<svg height="512" style="shape-rendering:geometricPrecision;text-rendering:geometricPrecision;image-rendering:optimizeQuality;fill-rule:evenodd;clip-rule:evenodd" viewBox="0 0 512 512" width="512" xmlns="http://www.w3.org/2000/svg"><circle cx="256" cy="256" r="256" style="fill:none"/><path d="m256 379.35s25.41-53.59 104.12-108.84c114.24-88.26-49.35-202.47-104.12-93.14l25.42 31.07-23.05 58.99 12.5 39.84-19.24 64.2s4.37 7.88 4.37 7.88zm-2.85-207.29c-57.33-100.19-213.59 11.67-101.27 98.45 54.69 38.39 83.64 75.97 96.22 95.33l17.55-58.54-12.57-40.05 22.62-57.9-25.61-31.31 1.46-2.9c.52-1.04 1.06-2.07 1.6-3.08z" style="fill:#b71c1c"/><path d="m252.29 172.08c-39.27-67.99-125.29-36.53-137.78 18.26-5.54 24.28 3.53 53.07 37.8 79.56 27.39 19.23 48.34 38.26 64.02 54.9 14.97 15.9 25.14 29.63 31.52 39.29l17.02-56.78-12.58-40.09 22.56-57.73-25.64-31.35zm3.68 205.67c4.36-8.4 31.83-57.39 103.72-107.85 34.27-26.49 43.34-55.28 37.8-79.56-12.94-56.75-103.04-87.24-140.6-13.07l25.38 31.04-23.11 59.14 12.49 39.82-19.22 64.12zm104.58-106.62c-79.09 55.51-103.87 108.54-104.51 109.84-1.74-3.14-3.48-6.27-5.22-9.41l19.27-64.28-12.51-39.88 22.98-58.82-25.45-31.11.22-.44c38.05-75.96 130.34-45.28 143.62 12.98 5.7 24.98-3.55 54.01-38.4 81.12zm-180.97-138.61c27.12-3.7 55.81 7 74.42 39.53l-3.02 5.89 25.58 31.27-22.68 58.06 12.55 40.03c-5.98 20.11-12.05 40.2-18.08 60.3-6.99-10.76-16.77-24.42-33.11-41.77-15.62-16.59-36.49-35.54-63.79-54.7l-.03-.03c-76.77-59.51-28.99-130.78 28.16-138.58z" style="fill-rule:nonzero"/></svg>