<svg xmlns="http://www.w3.org/2000/svg" xml:space="preserve" fill-rule="evenodd" clip-rule="evenodd" image-rendering="optimizeQuality" shape-rendering="geometricPrecision" text-rendering="geometricPrecision" viewBox="0 0 1050 1050"><path fill="#F6483D" d="M305.84 525s1.02-106.9 0-146.99c-1.09-42.33-37.25-81.49-37.25-81.49h512.82s-36.16 39.16-37.24 81.49c-1.03 40.09 0 146.99 0 146.99s-1.03 106.9 0 146.99c1.08 42.33 37.24 81.49 37.24 81.49H268.59s36.16-39.16 37.25-81.49c1.02-40.09 0-146.99 0-146.99z"/><path fill="#E2493F" d="M305.84 525s1.02-106.9 0-146.99c-1.09-42.33-37.25-81.49-37.25-81.49h36.6s36.16 39.16 37.25 81.49c1.02 40.09 0 146.99 0 146.99s1.02 106.9 0 146.99c-1.09 42.33-37.25 81.49-37.25 81.49h-36.6s36.16-39.16 37.25-81.49c1.02-40.09 0-146.99 0-146.99z"/><path fill="#F85D52" d="M744.17 525s-1.03-106.9 0-146.99c1.08-42.33 37.24-81.49 37.24-81.49h-36.6s-36.16 39.16-37.24 81.49c-1.03 40.09 0 146.99 0 146.99s-1.03 106.9 0 146.99c1.08 42.33 37.24 81.49 37.24 81.49h36.6s-36.16-39.16-37.24-81.49c-1.03-40.09 0-146.99 0-146.99z"/><path fill="#DD4137" d="M525 296.52H268.59V260.4c0-12.95 10.6-23.55 23.55-23.55h465.72c12.96 0 23.55 10.6 23.55 23.55v36.12H525zm0 456.96H268.59v36.12c0 12.95 10.6 23.55 23.55 23.55h465.72c12.96 0 23.55-10.6 23.55-23.55v-36.12H525z"/><path fill="#F3C534" d="m470.12 447.51 44.86 93.51c2.71 5.63 2.35 11.76-.97 17.05-3.33 5.28-8.7 8.25-14.95 8.25h-89.72c-6.25 0-11.62-2.97-14.95-8.25-3.33-5.29-3.68-11.42-.98-17.05l44.86-93.51c3.01-6.28 8.97-10.03 15.93-10.03 6.96 0 12.91 3.75 15.92 10.03z"/><circle cx="453.81" cy="478.48" r="6.59" fill="#E5A12E"/><circle cx="431.6" cy="531.59" r="6.59" fill="#E5A12E"/><circle cx="474.71" cy="537.91" r="6.59" fill="#E5A12E"/><path fill="#F3C534" d="m658.93 376.08-7.9 103.41c-.48 6.24-3.85 11.37-9.38 14.28-5.52 2.92-11.66 2.8-17.07-.32l-77.7-44.86c-5.41-3.13-8.58-8.38-8.82-14.63-.23-6.24 2.52-11.72 7.68-15.25l85.61-58.55c5.74-3.93 12.78-4.2 18.8-.72 6.03 3.48 9.31 9.7 8.78 16.64z"/><circle r="27.98" fill="#E5A12E" transform="matrix(.20397 .11776 -.11776 .20397 629.317 394.755)"/><circle r="27.98" fill="#E5A12E" transform="matrix(.20397 .11776 -.11776 .20397 583.523 429.64)"/><circle r="27.98" fill="#E5A12E" transform="matrix(.20397 .11776 -.11776 .20397 617.701 456.673)"/><path fill="#F3C534" d="m611.34 564.1 19.12 101.94c1.16 6.14-.77 11.96-5.35 16.21-4.59 4.25-10.54 5.72-16.58 4.11l-86.66-23.23c-6.04-1.61-10.46-5.87-12.3-11.84-1.85-5.97-.6-11.98 3.47-16.72l67.53-78.71c4.53-5.28 11.25-7.36 17.98-5.56 6.72 1.8 11.5 6.96 12.79 13.8z"/><circle r="27.98" fill="#E5A12E" transform="matrix(.2275 .06096 -.06096 .2275 587.563 589.802)"/><circle r="27.98" fill="#E5A12E" transform="matrix(.2275 .06096 -.06096 .2275 552.358 635.351)"/><circle r="27.98" fill="#E5A12E" transform="matrix(.2275 .06096 -.06096 .2275 592.368 652.617)"/><path d="m782.74 750.48 1.67 1.83v37.29c0 14.61-11.94 26.55-26.55 26.55H292.14c-14.61 0-26.55-11.94-26.55-26.55v-37.29l1.68-1.83c6.23-6.92 12.33-15.73 17.07-23.53 9.93-16.35 18-35.69 18.5-55.03.75-29.32.5-58.89.38-88.22-.08-19.56-.19-39.12-.38-58.71.19-19.57.3-39.13.38-58.68.12-29.33.37-58.91-.38-88.22-.5-19.35-8.57-38.69-18.5-55.04-4.74-7.8-10.84-16.6-17.07-23.53l-1.68-1.82v-37.3c0-14.6 11.94-26.55 26.55-26.55h465.72c14.61 0 26.55 11.95 26.55 26.55v37.3l-1.67 1.82c-6.23 6.93-12.33 15.73-17.07 23.53-9.94 16.35-18.01 35.69-18.51 55.04-.75 29.31-.5 58.89-.38 88.22.08 19.55.19 39.11.39 58.69-.2 19.58-.31 39.14-.39 58.7-.12 29.33-.37 58.9.38 88.22.5 19.34 8.57 38.68 18.51 55.03 4.74 7.8 10.84 16.61 17.07 23.53zM268.59 296.52V260.4c0-12.95 10.6-23.55 23.55-23.55h465.72c12.96 0 23.55 10.6 23.55 23.55v36.12s-36.16 39.16-37.24 81.49c-1.03 40.09 0 146.99 0 146.99s-1.03 106.9 0 146.99c1.08 42.33 37.24 81.49 37.24 81.49v36.12c0 12.95-10.59 23.55-23.55 23.55H292.14c-12.95 0-23.55-10.6-23.55-23.55v-36.12s36.16-39.16 37.25-81.49c1.02-40.09 0-146.99 0-146.99s1.02-106.9 0-146.99c-1.09-42.33-37.25-81.49-37.25-81.49z"/></svg>