<svg height="512pt" viewBox="0 0 512 512" width="512pt" xmlns="http://www.w3.org/2000/svg"><g><path d="M192.7 91.7c-.2.5-.7 2-1.1 3.5-.5 2.3-.4 2.7 1.1 2.1 3.2-1.1 3.5-1.5 2.2-2.4-1-.6-1-.9-.2-.9.7 0 1-.7.7-1.5-.7-1.6-2-2-2.7-.8zM198 95.9c0 1.7 3 4 5.3 4.1.9 0 1.7-.7 1.7-1.6 0-1 .6-1.4 1.5-1 2.2.8 1.9-.1-.4-1.4-1.5-.8-2.4-.6-3.7.7-1.5 1.6-1.7 1.6-3-.2-.9-1.2-1.4-1.4-1.4-.6zM180.3 97.7c1.5.2 3.9.2 5.5 0 1.5-.2.2-.4-2.8-.4s-4.3.2-2.7.4zM174 99.1c0 .5.5.7 1 .4.6-.3 1-.8 1-1.1 0-.2-.4-.4-1-.4-.5 0-1 .5-1 1.1zM227.2 102.6c-.5 1.1-1.8 5.4-2.8 9.6-1 4.3-2.1 7.8-2.4 7.8-.4 0-1.2-1.1-1.8-2.4-1.3-2.9-13.3-15.9-14-15.2-.2.3 1.6 2.5 4.2 4.8 2.6 2.4 6.4 6.8 8.5 9.8 3.2 4.7 4.2 5.5 6.9 5.5 3.3 0 4.2-.9 2-1.8-.7-.3-.4-.6.7-.7 1.7-.2 1.6-.3-.5-1l-2.5-.8 2.5-.1c3.3-.2 5.6-1.6 4.1-2.5-.6-.4-1.1-.2-1.1.3 0 .6-.8 1.1-1.7 1.1-1.1 0-1.4-.3-.7-.8.6-.4 1.4-2 1.8-3.6.6-2.3 1.1-2.7 2.9-2.3 2.1.6 2.1.6.3-.8-1.1-.8-2.3-1.5-2.8-1.5-.4 0-.8-.8-.8-1.8 0-1.4.2-1.5 1-.2.9 1.4 1.1 1.3 1.4-.9.4-3.1 5.2-2.2 6.6 1.2.7 1.7.9 1.8.9.5.1-2.2-3.7-4.7-8.2-5.5-2.8-.4-3.7-.1-4.5 1.3z"/><path d="M186 103.1c0 .5-.4.8-1 .4-.5-.3-1.6.8-2.5 2.5-1.6 3.1-3.2 4.2-2.1 1.4.4-1.2.2-1.5-.9-1-.8.3-1.5.2-1.5-.2s-.9-.8-2-.8c-1.5 0-1.9.5-1.4 2.1 1 3.4 2.2 3.9 8.5 4.1 6.2.3 14.9 3.6 15.7 6.1.2.6-1.1 1.9-2.8 2.8s-6.7 4.5-11.1 8.1c-4.5 3.5-8.6 6.8-9.3 7.2-.6.4-3.1 2.9-5.5 5.7-7.8 9.1-14.6 25.3-17.2 41.1-1 6.7-1.8 8.6-5 12.4-7.6 9.3-9.9 17.6-9.9 36.5 0 10.5.3 13.7 1.5 14.8.9 1 1.1 1.7.4 1.9s-.2 3.8 1.4 10.6c1.4 5.6 2.8 10.6 3.1 11 .3.5.8 3.3 1.1 6.2.7 6.4 1.8 8.6 4.5 9.5 1.3.4 2 1.5 2 3.3 0 4.1 3.9 23.8 6.2 31.5 2.2 7.3 10.9 25.1 16 32.6 1.7 2.5 7.3 9.3 12.3 15.1s13 15.7 17.8 22.1c7.6 10.3 9.7 12.5 17.9 18.1 5.1 3.5 11.6 7.3 14.3 8.5 7 3 16.4 4.6 22.1 3.9 2.7-.3 5.7-.6 6.7-.5.9 0 3.6.1 6 .1 7.1.3 20.9-1.9 27-4.3 7.1-2.7 15.2-10.3 16.6-15.6.6-2.2 3.3-6.1 6.8-9.7 3.2-3.3 4.9-5.3 3.7-4.3-1.1.9-2.6 1.7-3.2 1.7-.7 0-1.2.5-1.2 1.1 0 .5-.4.8-.9.4-.5-.3-1.2.4-1.6 1.4-.3 1.1-1.5 2.3-2.6 2.6-1 .4-1.9 1.1-1.9 1.6s-.8.9-1.8.9-2.7.7-3.8 1.5c-1.8 1.4-1.8 1.6-.1 2.6 2.2 1.3 1.6 5.4-1.4 8.2-1.1 1.1-4.1 3-6.4 4.3-4 2.1-4.4 2.1-4.8.6s-.5-1.4-.6.2c-.1 1.4-.7 1.7-2.6 1.4-1.3-.3-2.6 0-2.9.6-.2.6-.3.1-.3-1.1.1-1.2.5-1.9 1.1-1.6.5.3.6.1.2-.5-.7-1.2 2.3-6.7 3.1-5.8.3.3 1 .1 1.7-.4 4.2-3.4 6.6-5.9 6.6-6.9 0-.6.7-1.1 1.6-1.1.8 0 1.3-.4.9-.9-.3-.5-.1-1.2.4-1.5s.7-1.5.4-2.6c-.7-2.5 3.2-7 6-7 3.1 0 15.8-14.6 14.1-16.2-.2-.3.2-1.8 1.1-3.4.8-1.6 1.5-3.8 1.5-4.8 0-1.1.3-1.7.6-1.3.7.7 1.3.2 8.6-6.6 4.5-4.2 5.1-5.2 5-8.4-.2-4.7-2.2-7-2.2-2.5 0 2-.8 3.9-2 4.9-1.1 1-2 2.3-2 3s-.4 1.3-.8 1.3c-.5 0-1.8.9-3.1 2.1-2.1 1.9-5.9 2-4.7 0 .3-.5 0-1.1-.8-1.4-1.1-.4-1.3.4-1.2 3.6.2 3.8-.4 7.1-2.2 11.7-.3.8-.6 1.9-.7 2.5 0 .5-.6.9-1.3.8-.6-.2-.9.4-.5 1.2.6 1.6-5.6 8.5-7.7 8.5-.5 0-1 .4-1 .8s-1.6 1.4-3.5 2c-3 1.1-3.6 1.1-5.2-.5-1-1-3.3-3-5.2-4.6-2-1.7-3.1-3.3-2.7-4.2.3-.8.5-1.6.4-1.8-.1-.1.5-1.3 1.2-2.7.8-1.4 1.3-2.8 1.2-3.2-.1-.5.9-.8 2.3-.8s2.5-.5 2.5-1c0-.6.3-.9.8-.8 2 .4 8.1-1.5 7.5-2.5-.4-.6 0-.8 1.1-.4.9.4 1.5.3 1.2-.2s0-1.1.8-1.4 2.7-2.5 4.4-4.9c3-4.4 3.2-4.8 3.2-7.2 0-1.5 3.6-3.2 5.9-2.7.7.1 1-.2.6-.8-.3-.6 0-1.1.7-1.1 3-.1 8.9-9.2 6.8-10.5-.5-.3-1.2.6-1.6 2-.9 3.6-6 6.3-7.6 4-.5-.6-.8-.3-.8.7 0 1.9-2.5 1.4-4.8-.9s-2.7-1.5-2.7 6c0 6.5-.3 7.6-2.6 9.8-3.2 3.3-7.1 5.8-9.8 6.4-1.1.3-3 .7-4.1.9-1.1.3-3.3.1-4.9-.4-2.4-.7-3-.5-3.4 1.1-.3 1-.1 1.9.3 1.9 1.2 0 .5 3.2-1.7 8.1-1.2 2.7-2.5 4.2-4.3 4.6-2.6.6-6 3.1-6 4.3 0 .4 1.1.7 2.5.7s2.5-.3 2.5-.8c0-2.2 9.8.5 12.5 3.5 1.9 2.2 3.5 5.6 2.6 5.6-.5 0-1.1.9-1.4 2s-.1 2 .4 2c.6 0 .4.6-.3 1.4s-1.6 1.2-1.9 1c-.3-.1-1.2.6-2 1.7-1.5 2.2-5.7 5-4.5 3.1.3-.6.1-1.4-.5-1.8-.8-.4-.9-.3-.5.4s.1 1.2-.7 1.2c-1.8 0-3.7 4.2-3 6.9.4 1.5-.7 3.2-4 6.5-4.4 4.3-4.8 4.4-10.6 4.5-5.6 0-6.2-.2-8.1-3-2.2-2.9-2.9-7.6-1.6-9.8.4-.6 1.1-.9 1.6-.6s1.1.1 1.5-.5c.3-.5.1-1-.6-1-1.3 0-.3-1.4 1.2-1.6.5-.1 1-.2 1.2-.3.1-.1 1.8-.4 3.7-.7 5.3-.6 8.9-2.4 8.3-4-.3-.8-.1-1.4.4-1.4.8 0 1-5.1.4-8-.1-.3-1.4-1.1-3.1-1.8-2.2-1-2.9-2-2.8-3.8.1-1.3.5-2.4.8-2.4s1.4-1.7 2.3-3.8c1.8-4.1 2.3-10.7.8-11.6-1.6-1-5.1-8.6-5.1-11.1 0-1.4-.4-2.5-1-2.5-.5 0-1 .7-1 1.5 0 .9-.7 1.8-1.5 2.1-1.3.5-1.3.9-.1 2.6.8 1.1 1.2 2.7.9 3.4-.3.8-.1 1.4.4 1.4 1.5 0 5.1 7.3 4.9 9.9-.2 1.3-1 2.9-1.8 3.5-2.2 1.6-4.8 8.2-4.8 11.9 0 2.4.3 2.8 1.2 1.9 1.8-1.8 3.6-1.5 4.9.9.7 1.4.8 2.4.1 3.1-.6.6-.8 1.6-.6 2.3.6 1.5-3.3 2.7-4.2 1.3-.4-.7-.9-.6-1.4.2-1.1 1.8-4.6-.4-5.4-3.5-.4-1.4-1-2.4-1.5-2.1-.4.3-.6-2.7-.5-6.7.3-8.3.5-9.7 1.4-9.7.4 0 1.3-1.8 2-4 .9-2.9 1-4.3.2-5.2-1.7-2.1-2.5-6.6-2.6-14.6-.1-6.2.2-7.6 1.8-8.8 1.1-.8 1.6-1.4 1.2-1.4-.5 0-.3-.6.3-1.4.9-1 .8-1.5-.3-1.9-.8-.3-1.7.2-2.1 1.1-.5 1.4-.7 1.4-1.5.2-.5-.8-.6-1.8-.4-2.2.3-.4.1-.8-.4-.8s-.9-1.5-.8-3.3c.1-3.2.6-3.4 3.8-2.2 1.5.6 1.5.4 0-2.9-1-1.9-2.4-3.6-3.2-3.6-1.3 0-1.3-.1 0-1 .8-.5 1-1 .4-1-.7 0-1.1-1.7-1-4.3.1-3.6.4-4.2 2.1-4 1.1.1 1.5 0 .8-.3-1.5-.7-.5-3.6 1.6-4.9 1.9-1.2 5.1-1.5 5.1-.5 0 .4.7.7 1.5.7s1.5-.5 1.5-1.1 1.6-1.2 3.6-1.3c1.9-.1 4.1-.6 4.8-1.2s1.5-.9 1.8-.6c1.1 1.2 2.8-2.4 3.2-7 .3-2.6.9-5.1 1.3-5.4.5-.3.9-1.5.8-2.6 0-1.5.7-2 2.7-2 1.4-.1 3.3-.7 4.1-1.4.9-.6 2.7-1.3 4.1-1.4s2.6-.7 2.6-1.2c.2-1.3 4-3.4 6.3-3.5 1 0 1.5-.5 1.2-1-.3-.6.3-1 1.4-1 1.2 0 2.1-.7 2.1-1.5 0-1.3 1.2-1.8 4-1.7.3 0 1.9-1.3 3.5-2.9 2.9-2.8 2.9-2.9.7-2.9-1.3 0-3.2.5-4.3 1.1-1.5.8-2.4.7-3.7-.3-1.3-1.1-1.5-1.1-.9.4.3 1 .2 1.8-.3 1.8-.6 0-1-.5-1-1.1 0-.5-.4-.7-1-.4-.5.3-2-.4-3.2-1.5-4.7-4.4-11.9-6.1-14.9-3.4-2.7 2.5-2.4 3.1 1.7 2.6 2.3-.3 3.4-.1 3.1.5-.4.6.4.9 1.7.8 2.2-.3 4.8 1.8 5.4 4.3.1.7-.3 1.2-.9 1.2s-.8.8-.4 2c.5 1.5.2 1.8-1.4 1.5-1.3-.2-2.1.1-2.1.9s-2.3 2.1-5.1 3c-7.5 2.5-9.6 4.2-10.5 8.4-.4 2-.6 4.2-.5 4.9.1.6-.3 1.4-.9 1.8-.5.3-1 1.5-1 2.6 0 1-.3 1.9-.7 2-.5 0-2 .2-3.5.4s-3-.1-3.4-.6c-.3-.5-.9-.7-1.4-.4s-1.2 0-1.6-.6c-.5-.8-.2-1 .7-.5 1 .5 1 .4-.1-.6-2.1-1.8-2.2-6.7-.2-10.6.9-1.7 1.9-3.2 2.2-3.2s.7-1.9.8-4.3l.2-4.2-1.7 3c-1.9 3.6-3.8 5.5-5.2 5.5-.6 0-1.1.4-1.1 1 0 .5-.9 1-1.9 1-1.7 0-1.8.4-1 3.8 1 4.8.7 9.4-.8 9.9-1.4.5-3.1-4.4-2.7-7.5.3-1.3 0-2.1-.6-1.7-.6.3-.8-1.8-.6-5.7.2-3.5.8-6.4 1.5-6.6.6-.2 1.1-1 1.1-1.8s.6-1.4 1.4-1.4 1.6-.6 1.8-1.2c.3-.7 1.8-1.1 3.6-1 3.7.3 3.9-.1 1.2-2.8-1.2-1.2-1.8-2.5-1.5-2.9.2-.5-.2-1.2-1.1-1.5-.8-.3-1.2-1-.9-1.6.3-.5.1-1-.5-1s-.8-.5-.5-1c.3-.6-.1-1.3-1-1.6-1.3-.6-1.4-.8-.3-1.5 1-.7.8-.9-.6-.9-1.5 0-1.6-.3-.6-1.5s.9-1.5-.6-1.5c-1.6 0-1.6-.2-.4-1 .8-.5 1.1-1.2.8-1.5-.4-.4-.3-1.8.2-3.1s.6-2.4.1-2.4-1.2-.7-1.5-1.6c-.3-.8-.2-1.3.2-1 1 .6.2-12.4-.9-14.6-.6-1.1-.5-1.8.4-2.1.9-.4.9-.6 0-.6-1.5-.1-.7-2.5 1.9-6.3 1-1.4 1.7-3.6 1.6-4.9-.2-1.5.5-2.7 2-3.5l2.3-1.1-2.2-.6c-1.9-.5-2-.8-.9-2.1.7-.9.8-1.6.2-1.6-1.2 0-.4-3.8 1-4.6.5-.3 2.9.1 5.3 1.1 3.8 1.4 4.5 2.2 5.1 5.1.3 1.9 1 3.4 1.5 3.4.4 0 .6 1 .4 2.1-.3 1.2-.2 1.9.2 1.6.3-.4 1.1 0 1.7.9.6.8 2 1.7 3.1 1.9s2 .4 2 .5 1 .3 2.3.6c1.6.3 2.1 0 1.6-.8-.4-.7-.3-.8.5-.4.9.6.9 1.1.1 2.1s-.7 1.3.6 1.1c.9 0 1.9.6 2.1 1.4.4 1.3.3 1.3-.6 0s-1.1-1.3-1.1.2c0 1 .7 1.8 1.5 1.8s1.5.5 1.5 1.1c0 .5-.6.7-1.2.4-.7-.4-.5 0 .4.7 2.3 1.9 3.3 7.2 1.2 6.4-.8-.3-1.7.1-2 .9-.4.8-1.2 1.5-2 1.5s-2.3.9-3.3 1.9c-1.1 1.1-2.2 1.7-2.5 1.5-.4-.2-.2.1.3.8.7.8 1.4.8 2.3.1 2.6-2.1 9.8-2 9.8.2 0 .8.6 1.4 1.2 1.3.7-.2 1.3.4 1.3 1.2s.7 2.2 1.5 3.1c2.5 2.6 10.8 7.9 12.4 7.9 1.9 0 3.1 2 2.7 4.5-.2 1.1 0 1.7.5 1.3.4-.5 2.2.3 3.9 1.7 1.8 1.3 3.5 2.1 3.9 1.8.3-.4.6-.1.6.5 0 .7.7 1.2 1.5 1.2s1.5.4 1.5.8c0 1.7 12.1 1.7 15.3.1 3.4-1.8 6.7-5.1 6.1-6.1-.3-.5-1.1-.5-1.7.1-.7.5-2.7.8-4.5.7-1.7-.1-3.2.1-3.2.5s-1.1.6-2.5.5c-1.4 0-2.5-.4-2.5-.9 0-.4-.8-.7-1.7-.6-1.1 0-1.3.3-.5.6.6.2 1 .9.7 1.3-.8 1.4-5.4-1-6-3.2-.4-1-1.3-1.8-2.1-1.8s-1.4-.4-1.4-.8c0-.5-.9-1.8-2-3-1.2-1.2-1.6-2.2-1-2.2.7 0 .9-.8.5-2-.3-1.1-.2-2 .4-2 .5 0 1.6-.2 2.3-.5.8-.3 3.1.6 5.2 2 2 1.4 3.4 2 3 1.4-.5-.9 0-1 1.4-.7 1.2.4 2.2.3 2.2-.2 0-.4 1-.6 2.3-.4 6.7.9 10.3 1.8 11.5 2.7 2.6 2.1 2.1-.2-.8-3.3-1.6-1.8-3-3.5-3-3.9s-.7-.8-1.5-.8-1.5.5-1.5 1.1-.5.4-1-.4c-.7-1.2-1.3-1.2-2.7-.4-1.4.9-2.3.8-4-.4-1.3-.8-2.3-1-2.3-.4 0 1.4-4.1.2-4.7-1.4-.3-.8-1-1.4-1.5-1.4-.6 0-1.9-1.1-3-2.5s-2.4-2.3-2.9-2c-.5.4-.9.2-.9-.3 0-1.7-7.4-3.1-8.9-1.6-.7.7 2.1 3.4 3.6 3.4s4.3 2.3 4.3 3.6c0 1.8-5.3 7.5-6.6 7-.8-.3-1.4-.1-1.4.5 0 .5-1.1-.2-2.5-1.7s-2.5-3.3-2.5-4.1-.4-1.1-1-.8c-.5.3-1.1.3-1.1-.2-.1-.4-.3-2.2-.6-3.8-.3-1.7-.5-3.8-.6-4.7s-.5-1.4-.9-1.2c-.4.3-1.5-.8-2.5-2.2-1.3-2-1.4-2.9-.5-3.2s.8-1.1-.3-3.2c-2-3.9-2-8 .1-8 .8 0 1.3-.4.9-.9-.3-.5-.1-1.2.4-1.6.6-.3.7-1.3.4-2.2-.4-1.1-.3-1.4.5-.9.7.4 1.2.2 1.2-.3 0-.6 1-1.1 2.1-1.1 1.9 0 2 .2.8 1.7-1.1 1.5-1.1 1.6.1.5 1.7-1.4 5-1.6 5-.2 0 .5 1.1 1 2.5 1 1.3 0 2.9.8 3.4 1.7.6 1 1.1 1.3 1.1.6 0-.9.7-1 2.3-.4 1.2.5 2.1 1.4 1.9 2.1-.1.6.1.9.6.6.9-.5 3 1.2 5.8 4.9.9 1.1 1.2 1.4.8.6-.5-1-.3-1.2.5-.7.7.5 1 1.4.7 2.2-.3.9.1 1.4 1.2 1.4.9 0 2.2 1 2.7 2.2.6 1.3 2.1 2.8 3.4 3.4 1.3.7 2.7 1.8 3.1 2.5.5.7 2.8 1.2 5.6 1.1 2.6 0 5.2.5 5.9 1.1.6.7 2.4 2.1 3.8 3.2 1.5 1.1 2.7 2.3 2.7 2.8 0 .4.8 1.7 1.8 2.8 2.3 2.4 4.4 11.5 3.5 14.9-1.8 6.9-9.7 12.6-16 11.6-4.5-.7-4.3 1.5.3 3.7 4.8 2.3 6.8 6.9 4.9 11.4-.8 1.8-1.2 3.3-.9 3.3s-.7 1.6-2.2 3.5l-2.6 3.5h4.9c5 0 8.3 2.2 8.3 5.5 0 .8.3 1.5.8 1.5.6 0 .8 6.5.3 10.9-.2 1.7-6.8 8.1-8.4 8.1-.9 0-1.8.4-2.2.9-1.5 2.6-11-2.4-15.2-8-1.8-2.3-3.3-4.6-3.3-5.1 0-.4-.5-.8-1.1-.8-.9 0-.7 1.6.8 5.7.4.9-.4.9-3.1.2-2-.6-4.1-.7-4.6-.4-.6.3-1 .2-1-.4 0-.5-1-1.1-2.2-1.3-1.3-.2-2.1-.7-2-1.2.2-.5-.3-1.3-1.1-1.8-.9-.4-1.8-2.2-2.2-3.8-1.2-5.2-2.2-3.2-2.1 3.9.1 6.2-.2 7.1-2.5 9.2-4.3 4-9.2 7.9-10.1 8-1.3.2-2.2.5-5.1 1.7-1.6.7-3.2 1.2-3.7 1.2s-.6 1.2-.4 2.7c.6 3.1-1.4 7.5-2.9 6.6-.6-.4-.8 0-.5.9.4.8-.2 2-1.3 2.6-1 .7-1.9 2.1-1.9 3.1 0 1.1-.5 2.1-1.1 2.3s-1.1 2.5-1.1 5.1c-.1 4 .4 5.3 2.6 7.5l2.6 2.7-.6-3.5c-.4-1.9-1.2-3.8-1.8-4.2-.7-.5-.6-.8.3-.8 1.1 0 1.1-.3.1-1.5s-1-1.5 0-1.5c.8 0 1-.3.7-.6-.4-.4.2-1.9 1.3-3.4s1.7-3 1.4-3.2c-.3-.3.5-1.4 1.8-2.5 1.3-1 2.4-2.5 2.6-3.3s.7-1.7 1-2c.4-.3.8-1.4 1-2.4s.9-2.4 1.5-3c1.6-1.6 8-4.2 9.2-3.8.6.2.7.1.3-.3-.8-.9 1-2.8 3.5-3.8 1.1-.4 2.1-1.6 2.4-2.7s.9-2 1.4-2 1.4-1.2 1.9-2.6c.6-1.4 1.5-2.2 2-1.9.6.4.8 1 .5 1.5s.5.9 1.7.8c5.4-.2 8.7.3 10 1.5.7.7 1.8 1.5 2.3 1.8.6.2.8.8.7 1.4-.2.5 0 .7.4.2.4-.4 1.8.2 3 1.4 2.7 2.6 9.5 4.2 14 3.3 3-.6 3.3-.4 2.7 1.2-.3 1.1-.9 2.1-1.2 2.4-.8.6-3.1 8.6-3.7 12.5-.3 2 .2 1.3 1.5-2 1-2.8 2.8-6.9 4-9.2 1.1-2.3 2.1-4.8 2.1-5.6 0-.7 1.3-3.1 2.9-5.3 3.8-5.3 5.5-10.7 4.8-15.9-.5-3.1-.2-4.6.8-5.5 2.1-1.7 5.5-11.6 5.7-16.4.2-3-.4-5-1.9-7l-2.1-2.7 2.3-4.2c4.1-7.3 6-30.1 3.5-41.2-.8-3.5-1.4-12.5-1.5-21.6-.1-14.5-.3-15.9-2.6-20-1.3-2.4-4.1-5.5-6.2-6.8-2.7-1.8-3.7-3.1-3.7-5-.1-6.8-7.5-17-14.3-19.6-4-1.5-4.2-1.9-4.2-5.4 0-5.7-4.8-11-13.3-14.9-3.8-1.8-9-3.4-11.6-3.7-2.5-.3-6.4-1.4-8.6-2.5-5.6-2.9-14.7-2.9-20-.1-2.2 1.2-5.9 2.1-8.1 2.1-4.7 0-7.2 1.1-11.6 5.3-3.1 2.9-3.4 2.9-5.1 1.4-2.4-2.2-9.7-4.7-13.8-4.7-1.9 0-5.2.7-7.5 1.7-3.9 1.5-4.2 1.5-5.1 0-1.2-2.3-2.4-2.1-2.4.2 0 1.1.4 1.7.9 1.4s.2.6-.7 1.9c-.9 1.4-1.3 2.8-.9 3.3.5.4-.4.5-1.9.1-1.8-.4-2.8-.2-2.8.4s.5.8 1.2.4.8-.3.4.4c-.5.8-1.5.8-3.2.2-3.1-1.2-3.7-1.2-3-.1.3.5-.5 1.1-1.9 1.3-1.4.3-2.5.1-2.5-.4s-.4-.7-.9-.3c-.5.3-1.2.1-1.5-.4s.5-1.2 1.9-1.5c3.1-.8 3.3-2.6.3-2-1.4.3-1-.1 1-1 3.8-1.8 4.3-3 .6-1.6-3.5 1.4-4.2 1.2-2-.5 2.5-1.9 1.4-3-1.6-1.5-2.3 1.1-2.3 1.1-.3-.7 1.1-1 1.9-2.6 1.7-3.6-.4-1.8-2.7-2.3-3.7-.7-.3.5.1 1 .9 1 .9 0 1.6.4 1.6 1 0 1.6-2.7 1.1-3.4-.6-.4-1 .2-2.4 1.5-3.5 2.5-2.1 1.8-2.5-1.3-.8-1.6.9-1.9.8-1.6-.3.2-.7 1.4-1.7 2.6-2.3 1.2-.5 2.4-1.5 2.7-2.2.3-.9-.4-.8-2 .3-2.6 1.7-5.5 1.3-5.5-.8 0-.9.3-.9 1 .2.7 1.2 1.2 1.2 2.2.2.9-.9.9-1.2 0-1.2-.7 0-1.2-.9-1.2-2.1 0-1.3-.8-2.3-2.1-2.6-1.3-.4-1.8-1.1-1.4-2.1.4-1.2.1-1.2-2.1.2-2.5 1.7-2.5 1.7-1.5-.3 1.7-3 1.3-3.6-.9-1.6-2.1 1.9-2.9.8-.9-1.2.9-.9.4-1.1-2.1-.8-2.8.4-3.2.2-2.7-1.6.5-1.9.4-2-1.2-.5-1.7 1.6-1.8 1.5-1.5-1.1.2-1.5.1-2.2-.2-1.6-.3.7-1 1.3-1.5 1.3-.6 0-.7-.6-.4-1.3.4-.6-.1-.3-.9.7-1.6 1.9-1.6 1.9-1.6-.5-.1-2.3-.1-2.3-1.5.6l-1.4 3 .4-3c.3-1.7.2-2.4-.1-1.8-.9 2.1-2.6 1.5-1.9-.7.3-1.1.4-2 .1-2s-.6.5-.6 1.1zm-1.3 3.1c-.3.8-.6.5-.6-.6-.1-1.1.2-1.7.5-1.3.3.3.4 1.2.1 1.9zm20.8 14.6c-6.3 9.5-9.2 24.9-6.3 33.4 1.3 3.7 1.3 4.7.2 6.2-1.2 1.7-1.4 1.7-2.9.2-3.1-3.1-7.2-2-12.3 3.3-5 5.1-18.2 15.1-20.1 15.1-.6 0-1.1.5-1.1 1.1 0 .5-.4.7-1 .4-.5-.3-1-.2-1 .4 0 1.9-3.7.7-4.7-1.6-1-2-.9-2.3.5-2.1s1.6-.4 1.3-3.2c-.2-2.9-.1-3.2 1.1-2.2 1.2.9 1.5.8 1.5-.6 0-.9-.3-2.2-.7-2.7-.4-.6-.3-2.1.1-3.5.4-1.6.7-1.9.8-.8.1 2.2 1 2.3 3.8.3 1.4-1 1.9-2.2 1.6-3.6-.4-1.4-.8-1.7-1.3-.8-.5.7-.6 1.8-.3 2.6.3.7.1 1.3-.5 1.3-1.4 0-2.5-3.2-1.4-3.9.5-.3 1.5-2.3 2.2-4.3.9-2.5 2.1-3.9 3.8-4.3 1.8-.4 2.1-.9 1.3-1.9-1.3-1.5-.5-4.6 1.2-4.6.7 0 .7.4-.1 1.2-.7.7-1.2 1.7-1.2 2.2 0 .6.7.3 1.5-.7.7-1.1 1.1-2.5.8-3.3s0-1.4.5-1.4c.6 0 1.3.8 1.6 1.7.3 1.2.5.9.4-.7-.1-4.4.2-4.9 2-4.6.9.2 2.6 0 3.7-.4 1.8-.7 1.8-.9.3-1.5-1.4-.5-1.1-1.2 2-4.1 2-1.9 4-3.4 4.5-3.4 1.5 0 3.4-2.5 2.9-3.9-.3-1 .2-1.3 2.1-.9 1.5.3 2.4.1 2.1-.3-.3-.5.3-.9 1.3-.9 1.5 0 1.6-.2.3-1-1.2-.8-1.1-1 .6-1 1.1 0 2.5.4 3.2 1 .8.7.9.7.3-.1-.7-.8.4-1.9 3.2-3.4 2.3-1.3 4.3-2.4 4.5-2.4.1-.1-.9 1.6-2.3 3.7zm3.6 5.5c-1 .9-1.1.8-.5-.6.3-1 .9-1.5 1.2-1.2s0 1.1-.7 1.8zm-.1 2.7c0 .5-.8 1-1.7 1.1-1 0-1.3.3-.6.5.9.4.9 1.3.2 3-.5 1.4-.9 3.7-1 5.2 0 2.4-.1 2.5-.8.7-.5-1.1-.5-2.7 0-3.6.6-1.1.4-2.1-.6-2.9-1.3-1-1.1-1.5.8-3.1 2.5-2.1 3.7-2.4 3.7-.9zm95.9 2.1c1.4 1.3 2.1 1.5 2.1.7 0-.9.3-.9.9.2.6.8.7 1.8.4 2.4-.3.5-.1.6.6.2 1.6-1 4.3 1.3 3.7 3.1-.3.8-.1 1.1.4.8.6-.3 1.3.1 1.6 1 1 2.4 2.6-.4 1.8-2.9-.5-1.5-.3-1.8 1-1.3.9.4 1.6.2 1.6-.3s2.1 0 4.6 1c2.5 1.1 5 2 5.5 2 2.1 0 8.1 5.7 9.5 9 1.4 3.2 1.3 3.6-.2 4.7-1.4 1-1.4 1.3-.3 1.3 1 .1.9.4-.4 1.1-1 .6-2.5.8-3.3.5-.9-.3-1.2-.1-.9.4.3.6-.3 1-1.4 1-2.2 0-7.1-4.1-7.1-5.9 0-.6-.5-1.1-1-1.1-.6 0-.9 1.5-.8 3.2.2 2.4-.1 3.3-1.2 3.3-.8 0-2 .7-2.6 1.5-.9 1.1-1.5 1.1-2.5.3-.8-.6-3.6-1.4-6.2-1.8-2.8-.4-5.1-1.4-5.4-2.2-.4-1.1-.8-1.1-1.3-.3-.4.6-2.5 1.3-4.7 1.5-4.8.4-11.2 4.3-13.5 8.3-2.3 3.8-.8 6.3 1.6 2.7 1-1.5 2-2.4 2.3-2.1.4.3 1.1-.4 1.8-1.7.6-1.2 1.7-2.1 2.3-2 .7.2 1.2-.1 1.2-.6s.7-1.2 1.6-1.5c1-.4 1.3-.2.8.7-.5.8-.3.8.9-.1 1.4-1.2 2.1-1.2 4.7-.1 1.6.8 3 1.7 3 2.1 0 .5.4.8 1 .8.5 0 .7-.7.3-1.6-.5-1.4-.3-1.5 1.5-.5 1.6.8 2.2.9 2.2.1 0-.6.5-.8 1-.5.6.4.7 1.1.4 1.7-.4.7-.2.8.5.4.6-.4 1.4 0 1.7.9.5 1.1 1 1.3 1.9.5s1.5-.8 2 0c.3.6 1.1.7 1.7.4.7-.4.8-.2.4.5-.4.6-1.2.9-1.7.6s-.6 0-.3.8c.3.9-1 2-3.7 3.2-4 1.9-4.1 1.9-1.7 2.7 2.7.9 11.4-2.3 10-3.7-.4-.4.1-.5 1.1-.2 1.1.4 1.6.3 1.2-.3-.3-.6-.1-1 .4-1 .6 0 1-.6.9-1.3-.2-.6.5-1.1 1.4-1.1 1 .1 1.5-.2 1.2-.7-.7-1.2 1-1.1 2.2.1 1.4 1.4 5.7.1 4.5-1.4-.7-.8-.4-1.2.9-1.2 1 0 1.6.5 1.4 1.1-.3.5.1.2.9-.8.8-.9 1.9-1.7 2.5-1.7 1.9 0 7.2 3.5 7.2 4.8 0 2.3 3.3 6.3 4.6 5.8 1.6-.6 1.9 1 .4 1.9-.5.3-1 1.2-1 1.8 0 .7.4.6 1-.3.7-1.2 1.2-1.2 2.2-.2.9.9.9 1.2-.1 1.2-1.1 0-1.1.3-.1 1.5 1.5 1.8-.1 2-1.8.3-.7-.7-1.2-.8-1.2-.2 0 1.5 5.3 6.9 6.8 7 2.6.2 3.2.4 3.2 1.3 0 .6 1.1 2.2 2.4 3.6 2.9 3.1 4.8 9.9 3.3 11.4-.8.8-.8 1.1.1 1.1.7 0 1 .9.8 2.2-.3 1.3-.5 2.7-.6 3.3 0 .5-.9-.8-2-3-1-2.3-3-4.7-4.4-5.5-1.4-.7-2.6-2-2.6-2.8 0-1.1-.3-1.2-1.3-.4-.7.6-1.8.7-2.6.2-.8-.4-2.1-.6-2.9-.2-1 .3-1.3.1-.9-.5s0-1.8-.9-2.7c-.8-.9-1.3-1.9-1.1-2.3.3-.5-1.7-2.4-4.4-4.3s-4.4-3.7-3.9-3.8c.6-.2.7-.8.4-1.4-.3-.5-.6-2.6-.6-4.6v-3.7l-1.9 2.4c-1.1 1.3-1.8 3-1.5 3.8s-.2 1.3-1.4 1.3c-1.1 0-1.9.3-1.9.7.5 2.8-.1 3.5-1.8 2.2-1.4-1.2-1.5-1.2-.9 0 1.1 1.7-1.5 3.5-2.7 1.8-.6-.8-.7-.3-.4 1.1.4 1.8.2 2.2-.9 1.8-.8-.3-1.4-.1-1.4.4 0 .6-.9 1-2.1 1-1.1 0-1.8-.4-1.5-.8.3-.5-.1-.9-.8-.9-.8 0-1.2.6-1 1.2.6 1.5-2.4 1.3-5.5-.4-1.7-.9-2.1-1-1.6-.1s.1.8-1.6-.1c-1.3-.7-3.2-1.4-4.2-1.6-1.6-.3-1.6-.1-.1 2.2.9 1.4 2.3 2.5 3 2.5.8 0 1.4.7 1.4 1.6s.6 1.4 1.3 1.1c.6-.2 2 0 3.1.5 1.3.7 1.6.7 1.2-.1-.4-.6-.3-1.1.3-1.1.5 0 1.3.4 1.6 1 .3.5 1.6.8 2.8.6 1.2-.3 2.8-.5 3.5-.5.6-.1 1.2-.9 1.2-1.9 0-1.4.2-1.5 1-.2.8 1.2 1.1 1.2 2.8-.3 1-.9 2.1-1.4 2.5-1.1.3.3 1.6-.3 2.8-1.5 2.7-2.5 3.8-2.6 4.5-.6.4.8 1.2 1.5 2 1.5s1.4.4 1.4 1c0 .5.6 1 1.3 1 1.6 0 1.7 9.2.2 9.7-1.1.3-1.2 8-.2 9 .4.3 1-.3 1.3-1.3.4-1 1.4-2.7 2.1-3.6.8-.9 1.2-2.1.9-2.6-.9-1.4 2.4-2.4 3.9-1.2.7.6 1.7 1 2.1.9.5-.1 1.7-.1 2.8 0 1.6.1 1.7.3.5 1.8s-1.2 1.6.4 1c1.1-.4 1.6-.3 1.2.4-.4.5-.1 1.6.5 2.4.7.8.9 1.5.5 1.5s-.1 1 .7 2.2c.8 1.3 1.8 4.5 2.2 7.3.4 2.7 1.5 5.8 2.3 6.7.9 1 1.2 1.8.7 1.8s-.4.4.2.8c1.8 1.2 2.7 5.2 1.2 5.2-.8 0-.6.5.5 1.1.9.6 1.5 1.4 1.2 2-.4.5-.1.9.4.9.6 0 1.1.5 1.1 1.1 0 .5-.5.7-1.1.3-.7-.4-.7.1.1 1.6.8 1.4.9 3.5.4 5.9-.5 2-.9 5.4-1.1 7.6-.3 6.4-1.2 10.8-2.3 11.9-.5.5-1 2.3-1 3.8 0 2.7-.3 3-3.2 3.2-.7.1-1.9.7-2.6 1.3-1.1 1.1-1.1 1.5 0 2.6.7.8 1.9 1.2 2.6.9.6-.2 1.2.1 1.2.7s.7 1.1 1.5 1.1c1.9 0 3.1 4.8 1.6 6.3-1.4 1.4-1.5 3-.1 2.2.6-.3 1 .1 1 1 0 .8-.6 1.8-1.4 2.1s-1.2 1.2-1 1.9c.7 1.6-2.5 5-4.6 4.9-4.7-.3-5.1-.5-4.8-2.1.2-1-.2-1.7-.8-1.6-.8.1-.9-1.2-.3-4.5.5-2.5.7-6.3.5-8.3-.4-3 .1-4.2 3-7.5 1.8-2.1 3.4-4.2 3.4-4.5s.9-1.6 2-2.9c1.2-1.3 1.8-3 1.6-3.7-.3-.7-.1-1.5.4-1.8s.5-1.9 0-3.7c-.5-1.7-.7-3.5-.4-3.9.3-.5 0-.9-.6-.9-.7 0-1-.7-.6-1.5.3-.8.1-1.5-.5-1.5s-.8-.4-.4-.9c.3-.5.1-1.2-.5-1.6s-.8-1.1-.5-1.6c.4-.5.2-.9-.4-.9-.5 0-1.3-1-1.7-2.3-.4-1.2-1.5-2.8-2.6-3.5-1-.7-1.6-1.8-1.3-2.3s0-.6-.7-.4c-2 .8-6.1-3.4-5.5-5.6.3-1.1.1-1.7-.4-1.3-.5.3-.9-.4-.9-1.5 0-1.2-.4-2.1-1-2.1-.5 0-1 .7-1 1.5s-.8 1.5-1.7 1.5c-1.2 0-1.4.3-.6.8s.8 1.2-.2 2.5c-.8 1.2-1.5 1.4-2 .7-.3-.5-1.1-.7-1.7-.4-.7.5-.9.1-.5-.9.4-1.2.2-1.4-1-1-1.2.5-1.4.3-.8-.7.6-.9.4-1.2-.6-.8-1.6.6-4.2-1.6-3.1-2.7.4-.3-.1-1.1-1.1-1.6-.9-.6-1.7-1.7-1.7-2.4 0-.8-.5-1.5-1.1-1.5-.8 0-.7-.6.2-1.7 1.2-1.4 1.2-1.5 0-.9-1 .7-1.2.3-.6-1.5.4-1.7.3-2-.3-1-.8 1.1-1.1 1.1-1.8 0-1.3-2.1-1.2-3.2.5-5.3.9-1.1 1.1-1.6.4-1.3-1.7 1-2.7-1.1-1.3-2.8.7-.8 1-2 .8-2.6s-1.8 1-3.6 3.7c-1.7 2.7-3.5 4.8-3.9 4.8-.4-.1-1.4.1-2.2.4-.7.3-1.6 0-2-.7s-1.7-1.3-2.9-1.4c-1.3-.1-1.8-.5-1.2-1.2 1.4-1.6-12.3-.9-15.7.9-1.7.8-3.3 1.3-3.6 1s-.3.3 0 1.5c.7 2.8-2.1 5.4-5.2 4.8-1.4-.2-2.5 0-2.5.4 0 .5-.4.9-.9.9-.6 0-.8-.9-.6-2 .3-1.3-.2-2-1.2-2s-1.3-.5-.9-1.7c.4-1 .4-1.4 0-1.1-.3.4-1.5-.3-2.6-1.5s-1.7-1.6-1.3-1c.3.7.1 1.3-.4 1.3-.6 0-1.1-.6-1.1-1.3s-1.3-2.3-3-3.5c-2.2-1.7-4.3-2.2-9-2.2-4.1 0-6.2-.4-6.6-1.3-.7-2 1.3-6.7 3.3-7.4 1-.4 2.1-1.1 2.5-1.7s2.1-.4 4.9.7c2.3.9 4.6 1.4 5 1.1.5-.3.9.1.9.9s.7 1.8 1.6 2.1c.8.3 1.2 1 .9 1.6-.3.5-.1 1 .4 1 .6 0 1 .3.9.7-.5 1.7 2.4 5.4 5.2 6.8 2.7 1.4 3.2 1.4 5.5-.1 1.4-.9 2.5-2.3 2.5-3.2 0-1.3-.2-1.3-1.8.1-1 1-2.6 1.7-3.6 1.7-1.6 0-4.2-1.8-4.3-3 0-.3-1-2.4-2.1-4.6-1.2-2.3-1.9-4.4-1.7-4.8.3-.3.2-.4-.2-.1-.3.3-1.7-.5-3-1.7s-2.3-1.8-2.3-1.4c0 .3-1.4-.1-3-.9-1.7-.9-3.5-1.3-4-1-.6.3-1 .1-1-.4 0-.6-.6-1.1-1.4-1.1-1.6 0-2.6-2.1-2.6-5.6 0-1.8.5-2.4 1.7-2.2 1 .2 1.8-.2 1.8-.9 0-1.9 1.3-2.6 4.5-2.5 1.6 0 3-.4 3-1s.6-.6 1.5.2c.8.7 1.5.9 1.5.5s.7-.2 1.5.5c1.1.9 1.5.9 1.5.1 0-.7.6-1.1 1.3-1 .6.2 2.8-.1 4.7-.6s4.2-.9 5-.9c2.4-.1 4.3 2.3 3.7 5-.2 1.3-.1 2.7.3 2.9.4.3.6 1.8.4 3.5-.4 3.4 2.4 9.6 4.4 9.4.6-.1 2-.2 2.9-.3 1.5-.1 1.5-.3-.3-1.7-1-.8-1.3-1.2-.5-.8.9.4 1.2.3.7-.4-.4-.6-1.3-.9-2.1-.6-1 .4-1.4-.4-1.3-3.6 0-2.8.3-3.8.9-2.9 1.2 2 1.1.2-.1-2.2-.8-1.3-.7-1.9 0-1.9s1-1.5.8-3.8c-.2-2.5-.7-3.6-1.7-3.4-.8.2-1.1-.3-.8-1.1.3-.9-.6-1.4-3-1.5-2-.2-3.8-.3-4.2-.4-.3-.1-1.3.1-2.1.5-1.6.6-7.9 1.7-9.5 1.7-3.2 0-8.5-1.3-8.5-2.1 0-.5-.7-.6-1.6-.2-1 .4-1.7-.1-2.1-1.6-.3-1.1-.9-2.1-1.4-2.1s-.9-.5-.9-1.1.7-.9 1.5-.5c2 .7 1.9-.4-.2-2.1-1.6-1.3-1.4-1.4 1.7-.8 1.9.3 3.7 1 3.8 1.5.5 1.3 5.7 1.3 8 0 .9-.5 2.8-1.4 4.2-1.9 3-1 7.3-9 6.8-12.3-.3-1.8-.7-1.3-2.2 2.4-1 2.7-2.4 4.8-3.1 4.8s-1.5.7-1.9 1.5c-.3.8-1.2 1.5-2.1 1.5-.8 0-1.5.4-1.5.8 0 1.2-3.9 1.2-4.6.1-.3-.6.2-1.9 1.2-3 1.1-1.2 1.3-1.9.5-1.9-.7 0-1-.4-.6-1 .3-.5 1.2-.7 1.9-.4.9.3 1.5-.6 2-2.7.8-4.1.5-4.3-2.5-1.5-1.4 1.2-3.7 2.5-5.1 2.8-2.4.4-2.9 0-4.3-3.4-1.9-4.8-1.9-4.7.8-4.1 2.1.5 2.1.5.2-1-1.8-1.4-1.7-1.6 3-4.6 2.7-1.7 5.9-3.2 7.2-3.2 1.3-.1 2.9-.2 3.6-.3.6-.2 2.6.6 4.3 1.6s3.4 1.8 3.7 1.8c.7 0-.4-4.2-1.5-5.7-.7-.8.3-1.4 3.4-2 5.6-1.1 9.1-.6 11.7 1.8zm-94.9 11c0 4.6-.4 7-1.5 7.9-2.5 2.1-4 .6-4-3.8 0-5.5 1.3-5.4 1.8 0 .3 3.3.4 2.7.5-2.2.4-12.8 3.2-14.5 3.2-1.9zm-6.7-6.5c-.7.3-.9 1.2-.6 2s0 1.4-.6 1.4c-1.2 0-1.5-2.3-.4-3.3.3-.4 1.1-.7 1.7-.6.7 0 .6.2-.1.5zm42.4 6.4c-.1 3.8.2 6.5.6 6.1.5-.5.9-2.8 1-5.2.1-2.9.8-4.9 2-5.7 1.7-1.3 4.2-.8 3.3.7-1 1.5-1.5 6.4-.7 5.5.5-.5 1.1-1.8 1.3-2.9s1.2-2.1 2.3-2.2c1.4-.2 1.5-.1.5.4-1 .4-.4 1 2 1.8 3.1 1 3.5 1.6 3.3 4.4-.1 1.7.5 4.3 1.2 5.8 1.3 2.4 1.2 3.1-.7 6.2-1.2 1.9-1.6 3.1-.9 2.7 1.5-1 1.2 4.4-.4 5.7-.6.6-.6 1 .3 1.4.6.2 1.2 1.1 1.2 1.9 0 .9.5 1.2 1 .9.6-.3 1 .4.9 1.7 0 1.3-.3 1.7-.6 1-.2-.6-.9-1-1.4-.6-.5.3-.9-.4-.9-1.5 0-1.4-.5-1.9-1.5-1.5-.8.4-2.2 0-3.1-.7-1.7-1.4-5.4-2-5.4-.9 0 .3-1.4.6-3.2.6-2.5-.1-3.7-.9-5.5-3.6-1.3-1.9-2.6-3.7-2.9-4-1.2-1.1 2.1 5.6 3.3 6.8 1.3 1.3 1.8 3.2.8 3.2-.7 0-5.3-4.8-5.8-6.2-.2-.7-.8-1-1.2-.6s.4 2.3 1.9 4.3c2.6 3.4 2.2 5.1-.4 1.9-.8-.8-2.1-1.9-3.1-2.5-1.4-.7-1.7-.6-1.3.5.3.8 0 1.7-.7 2.2-.8.4-1 .3-.5-.4.4-.8.2-1-.8-.6-.8.3-1.2 1.2-.9 2 .3.9-.2 1.4-1.6 1.4-1.8 0-2 .3-.9 1.9.6 1.1 1.9 1.7 2.7 1.4 1.4-.4 1.4-.3.1.5-.9.7-1.8.8-2.6.1-.8-.6-1.4-.6-1.8-.1-1 1.6 2.1 2.2 5.4 1 1.7-.5 3.3-.8 3.6-.6 1.1 1.1-1 3.8-3 3.9-2 .2-2 .2.2.6 1.2.2 2.2 1.1 2.2 1.9 0 1-1.3 1.4-5 1.4-3.9 0-5 .4-5 1.6 0 .9.5 1.2 1.1.8.7-.4 2.9-.9 5-1.1 3.6-.5 3.8-.4 3.5 2.4-.3 4.1 1.8 11.7 5 17 2.3 4 2.5 4.9 1.4 6.7l-1.3 2.1 2.3-2 2.3-2-1.2 2.2c-.6 1.2-1.5 2.4-2 2.7-1 .7-2.2-1.8-1.7-3.7.1-.6.1-.9-.1-.5-.3.5-.9.8-1.4.8-.6 0-.7-.5-.4-1 .3-.6-.1-1-.9-1-.9 0-1.5-.3-1.5-.8.4-2.1-.2-3.2-1.3-2.6-.9.5-.9.2.1-.9 1.2-1.5 1-1.7-1.5-1.7-2.2 0-2.5-.3-1.4-.9.8-.6 1.8-.7 2.2-.5.4.3.8 0 .8-.5 0-.6-1.2-1.1-2.6-1.1-2.2 0-2.5-.2-1.4-1.5 1-1.2.9-1.5-.4-1.5-1 0-1.4-.5-1.1-1 .4-.6 1.1-.8 1.6-.5.5.4.9.1.9-.5 0-.7-.7-1-1.5-.6-.8.3-1.5.1-1.5-.5s.9-1.3 2-1.6 2-1 2-1.5c0-.6-.7-.7-1.6-.4s-2.7.9-4.1 1.2c-2.4.6-2.4.8-.7 1.7 1.8 1 1.7 1.1-.6 1.8-2.4.7-2.4.7-.2.8 2.3.1 3 1.7 1.1 2.3-.8.3-.6 1 .5 2.1 1 .9 1.5 1.8 1.2 1.8-.3.1-1 .2-1.5.3-.5 0-1.3.5-1.8.9-.4.5-.3.8.2.7 2.2-.5 3.5.1 3.5 1.5 0 .8.6 1.5 1.4 1.5 1 0 1.3.8 1.1 2.2-.3 1.2.3 3 1.3 4.1 1.6 1.8 1.6 2-.3 3.4-2 1.5-1.9 1.5.3.8 3.2-.9 2.7.4-1.5 4.3l-3.8 3.5 3.5-2.5c1.9-1.3 4.7-2.4 6.2-2.3 2.9.2 5.2 1.5 2.6 1.5-.8 0-2 1.1-2.6 2.5-1.2 2.6-3.7 3.4-4.4 1.4-.3-.8-.8-.7-1.8.2-3 2.9-7.7 5.8-8.4 5.2-.4-.4.5-1.6 2-2.8 2.4-1.9 2.4-2.1.6-2.1-1.1 0-1.8.4-1.6.8.3.4-.4.8-1.5.8-1.2 0-2.1.4-2.1 1 0 .5-.7.7-1.6.3-.9-.3-2 0-2.5.8-.7 1.1-.9.9-.9-.6s1.1-2.5 3.8-3.4c2-.8 4.8-2.3 6.2-3.4 1.9-1.6 2-1.8.5-1.2-10.5 4.2-12.6 4.7-15.2 4l-2.8-.8 3-.7c4.4-1.1 8.8-3 8.3-3.6-.3-.2-1.6-.1-2.9.4-3 1.1-4.9.5-4.9-1.5 0-1.3.2-1.3 1.7-.2.9.8 1.4.9 1 .2-.7-1.1 4.5-3.6 5.7-2.7.3.2.4.1.1-.3-.4-.6-3.6-1.2-7.3-1.5-1.6-.2-1-2 .8-2.6.7-.3 1 0 .6.7-.4.6-.3 1.1.3 1.1.5 0 1.1-.5 1.3-1.2.2-.6 2-1.8 3.9-2.5l3.4-1.3-3.7.5c-3.3.5-3.7.4-3.1-1.2.7-1.7.6-1.7-1.1-.1-.9 1-2.3 1.8-3.1 1.8-1.6 0-2.8-2.7-1.5-3.5.6-.4 1-.1 1 .4 0 .6.5 1.1 1.1 1.1.5 0 .7-.5.4-1-.3-.6.5-1 1.9-1 2.9 0 4.3-1.5 2.2-2.3-.8-.3-1.6-.1-1.8.5-.8 2.2-3.5 0-4.2-3.2-.5-2.6-1-3.1-2.6-2.7-2.8.7-2.5 0 .8-1.7 1.9-1.1 2.2-1.5 1-1.6-1 0-1.8-.5-1.8-1.1 0-.5-.3-.8-.8-.5-.4.2-1.5-.2-2.5-.9-1.6-1.2-1.6-1.3.8-1.7 1.4-.3 2.5-.2 2.5.1s1.1.6 2.4.6c3 0 2.4-.7-1.7-2.1-1.8-.6-3.4-1.9-3.5-2.9-.3-1.2 0-1.5 1-.9 2.1 1.3 3.5 1.3 3.5-.2 0-.7-.3-1.3-.6-1.2-2.1.2-3.2-.4-2.9-1.4.3-.8 2-1.2 4.4-1.1 3.6.3 3.7.2 1.4-.8-4.4-1.9-5.5-2.6-5-3.1.3-.3-.1-1.2-.9-2.2-1.2-1.5-1.1-1.5 1-.7 1.3.5 2.3 1.4 2.2 1.9s.7.8 1.8.5c1.8-.5 1.6-.8-1.6-3.1-2-1.5-3.4-3.1-3.1-3.9.3-.7 0-1.3-.6-1.3s-.8-.3-.5-.6c1-1 3.8 1.7 3 2.9-.3.6-.1.7.6.3.6-.4 2.8.2 4.9 1.4 3.6 2.2 3.7 2.2 1.8.1-1-1.1-2.8-2.3-4-2.7-1.1-.4-3.2-1.8-4.6-3.2l-2.5-2.5 2.4.8c1.8.6 2.2.4 1.5-.6-.5-.9.1-.8 1.9.3 3.9 2.6 5.6 2.2 2.4-.6-2.4-2-2.5-2.5-1.2-3.6 1-.9 1.5-.9 1.5-.1 0 .6.7 1.1 1.5 1.1s1.5.4 1.5 1c0 .5.5 1 1.1 1 .7 0 .5-.9-.5-2.4-.9-1.4-1.3-3.3-1-4.3.6-1.5.4-1.5-.9.2-.9 1.1-1.7 1.5-1.7.8 0-.6.7-1.9 1.6-2.7 1.4-1.4 1.7-1.4 4 0 1.3.9 2.4 2 2.4 2.5s.5.9 1.1.9.1-1.4-1.1-3.1c-1.2-1.6-1.9-3.3-1.6-3.6s0-1.3-.7-2.2c-1.1-1.4-1-1.4.5-.2 1 .7 1.5 1.7 1.2 2.2s0 .9.5.9c.6 0 1.6-.9 2.3-1.9.6-1.1 1.8-1.7 2.6-1.3 1 .3 1.3.1.8-.6-.4-.7-.2-1.2.3-1.2.6 0 1.1.7 1.1 1.5 0 .9 1 2.6 2.1 3.8 2 2 2.1 2 1.4.2-1.2-3.1-1.1-6 .1-5.8.7.1 1.1-.5 1-1.5-.1-1.1.6-1.6 1.7-1.5 1.1 0 1.6-.4 1.3-1.2-.7-2 1.5-3.7 3.1-2.4.7.7 1.3 1.6 1.3 2.2s-.7.2-1.5-.9c-.8-1-1.5-1.4-1.5-.8s1 2 2.3 3.2l2.4 2.2-.5-2.8c-.3-2 .4-3.6 2.5-5.9 1.5-1.8 2.9-3.2 3-3.3.1 0 .1 3.1 0 7zm-29.7-4c0 .5-.5 1-1.1 1-.5 0-.7-.5-.4-1 .3-.6.8-1 1.1-1 .2 0 .4.4.4 1zm14 8c0 .5-.2 1-.4 1-.3 0-.8-.5-1.1-1-.3-.6-.1-1 .4-1 .6 0 1.1.4 1.1 1zm-20.5 13.8c-.8.9-2.5-2-1.8-3.1.3-.5 1-.2 1.5.7.6 1 .7 2 .3 2.4zm-14.1 1.8c.9.8 1.6 3 1.6 4.7 0 2 .8 3.9 2 5 1.8 1.5 2 2.6 1.6 8.9-.2 4-.7 8.1-1.1 9.1-.5 1.1-.1 2.5 1.1 3.8 1.3 1.4 1.8 3.4 1.6 6.3-.1 2.6.6 5.8 1.8 8.2 2.3 4.5 2.6 11.4.6 15.3-.8 1.5-3.5 4.6-6.1 7-3.5 3.2-5.2 4.1-6.8 3.7-1.8-.4-2.5.1-3.5 2.4-1.5 3.2-5.9 6.3-12.9 9-3.6 1.3-4.7 2.3-4.8 4-.1 1.3-1.4 3.4-2.8 4.6-1.5 1.3-2.7 3-2.7 3.8 0 2-3.9 4.6-6.7 4.6-2.7 0-2.9 1.4-.8 6.2 1.2 3.1 1.2 3.8-.1 5.7-.9 1.2-1.3 2.9-1 3.7.7 1.9-1 6.4-2.6 6.4-.9 0-.9-.3 0-1.2.7-.7 1.2-2.6 1.2-4.3v-3l-1.3 2.4c-.6 1.4-1.9 2.7-2.7 2.9-.8.3-1.2.1-.8-.3.4-.5.3-1.4-.4-2.2-.8-1-.8-1.7.1-2.6 1-.9 1.1-.8.6.8s-.5 1.7.3.5c1.3-1.7.6-3-1.6-3.1-1 0-1.2-.3-.5-.5.7-.3.9-1.2.6-2s0-1.4.7-1.4c.6 0 .8-.5.5-1-.5-.8-1.1-.7-2.1.1-2 1.6-1.7.6.5-1.9 1-1.2 2.1-2 2.5-1.7.3.3.1-.1-.5-.8-.9-.9-1.2-.9-1.6 0-.3.7-.9 1.3-1.4 1.3-.6 0-.7-.5-.4-1 .3-.6.1-1-.4-1-.6 0-1.1-.8-1-1.8 0-1 .3-1.2.6-.5.2.7.9 1.3 1.4 1.3.6 0 .8-.4.5-.9s-.1-2.3.6-4.2c1-3 .9-3.4-1.8-5.7-1.6-1.3-2.2-2.2-1.3-1.9s2.2 0 2.8-.6c.9-.9 1.4-.8 2.1.3.6.9 1 1 1 .3 0-.6.6-1.3 1.3-1.6.6-.2.4-.3-.6-.1-.9.1-2.4-.4-3.2-1.3-.9-.8-2.3-1.2-3.5-.8-1.1.4-2 .2-2-.4s.5-1.1 1.1-1.1c.5 0 .7-.5.4-1.1-.4-.6-1.4-.8-2.2-.5s-1.2.2-.8-.3c.3-.5.2-1.1-.2-1.4-.5-.2-.2-.2.5-.1.6.2 1.2-.5 1.2-1.4 0-1 .3-2.2.8-2.8.4-.5 0-.1-1 .8-2 2.2-3.2 2.3-2.4.2.3-.8.2-1.3-.3-1-.4.3-.8-.7-.7-2.3.1-2.9 1.4-3.1 4.4-.8.8.6 1.2.6 1.2-.2 0-.6-.5-1.1-1.1-1.1-.5 0-.8-.4-.4-1 .3-.5 1.2-.7 2-.4.8.4 1.3 1 1 1.4-.3.5-.1 1.1.4 1.4 1.3.8 2.1-2 1-3.1-.7-.7-.5-1.2.6-1.7.9-.3 1.3-.2 1 .4s.1.7 1 .4c1.1-.5 1.3-1 .5-1.9-.9-1.1-.7-1.2.9-.8 1.4.3 2.3 0 2.7-1.1.3-.9 1-1.6 1.6-1.6.5 0 .6.4.3 1-.3.5-.2 1 .3 1 .6 0 1.2-.6 1.5-1.4.4-1-.2-1.3-2.3-1.2-1.6.1-2.8 0-2.6-.2.9-.9-4.7-5.2-6.8-5.2-3.3 0-3.9-1-1.9-3.3 1.7-1.9 1.7-2 .1-1.4-1.2.4-1.5.2-1.2-.8.3-.8 1.4-1.7 2.4-2s2.1-1.3 2.4-2.1 1-1.2 1.6-.9c.5.3 1 0 1-.8 0-1.1.7-1.3 2.1-1 1.5.4 2 .2 1.7-.7-.6-1.8-4.8-2.4-4.8-.6 0 .7-.6 1.9-1.4 2.5-1 .9-1.7.7-2.7-.5-1.2-1.5-1.1-1.6.9-1 2.3.8 3.2-.8 1-1.7-.8-.3-.5-.6.5-.6 1.1-.1 1.5-.6 1.1-1.2-.4-.7.1-.7 1.6.1 2 1.1 2.2 1 1.7-.4s-.3-1.6 1.2-1.1c1.1.3 2.2.1 2.6-.5.3-.5-.1-1-.9-1-1.9 0-2.1-2.6-.3-3.4.6-.3.2-.3-1 0-1.3.3-2.3.1-2.3-.5s.5-1.1 1.1-1.1c.5 0 .7-.4.4-1-.3-.5.6-2.2 2.1-3.7 2.4-2.4 2.8-2.5 3.9-1 1.3 1.9 3 2.4 1.9.6-.4-.7 0-.9 1.4-.5 1.1.4 2.3.2 2.7-.5.6-.8 1-.7 1.6.2.7 1.1.9 1 .9-.3 0-.9.6-1.9 1.3-2.2.6-.3.3-.4-.8-.1-1.6.4-2-.1-2.1-1.9-.1-1.5.5-2.7 1.4-3.1 1.4-.5 1.5-.7.2-1.6-1.2-.9-1.2-1 .3-.5 2.4.8 6.7-1 6.7-2.8 0-.8 1-1.8 2.3-2.2 2.8-.9 4-2.6 2.4-3.6-.7-.5 0-.8 1.7-.8 2.5 0 2.7-.2 1.5-1.7-.8-.9-.9-1.4-.3-1 .7.4 1.5 0 1.8-.9.4-1 1.3-1.3 2.6-.9 2.4.7 4.3-.2 3.4-1.7-.4-.7-.9-.6-1.4.2-.5.9-.9.9-1.4.1-.4-.6-.2-1.2.3-1.2.6-.1 1.7-.2 2.4-.3.6-.1 1.1-.7 1-1.4-.4-1.7 1.3-1.5 3.1.4zM353 167c0 1.3-.1 1.3-1 0-.5-.8-1-2.2-1-3 0-1.3.1-1.3 1 0 .5.8 1 2.2 1 3zm-114.2 5.6c-1 1-2.8-.6-2.8-2.4 0-1.5.1-1.5 1.7.1.9.9 1.4 1.9 1.1 2.3zm18.5 0c1.8 1.4 2.5 2.8 2.1 3.8-.8 2.1-2.1 2-2.8-.2-.2-.9-.2.5.1 3.1l.5 4.8-2.8-.7c-1.6-.4-3.9-1.1-5.2-1.5-3.4-1.3-3.8-1.1-1.6.6 1 .8 2.9 1.5 4.1 1.5 3.5 0 3.7 2 .3 3.1-1.7.6-2.9 1.4-2.6 1.6.3.3 1.9-.2 3.7-1.1 2.6-1.3 3.4-1.4 4.1-.4.8 1.2.7 2.1-.8 8.4-.5 1.7 0 3.4 1.3 5.2 1.1 1.5 1.9 3.5 1.7 4.5-.1.9.4 1.7 1.2 1.7s1.4.7 1.4 1.5-.4 1.5-.9 1.5-.8 1.9-.7 4.2c.1 3.8-3.2 15.9-4.8 17.5-.3.3-.2 1.1.4 1.8 1.3 1.6 1.9 8.5.8 8.5-.6 0-.8.7-.4 1.5.3.8.2 1.5-.2 1.5s-.7 1.1-.7 2.4.3 2.2.8 1.9c.4-.2.7 0 .7.6 0 1.7-1.7 2.1-2.9.7-.8-1-2.3-1.3-4.6-.9-2.6.4-3.6.2-4.1-1.1-.4-1.1-1.4-1.5-3.1-1.1-2.1.3-2.4.1-2-1.5.3-1.1.1-2-.4-2s-.9.6-1 1.2c0 1-.2 1-.6 0-.2-.6-1.2-1.2-2-1.2-1 0-1.3-.6-.9-1.6.5-1.2.2-1.5-1.1-1-1.6.6-1.6.6 0-1.1 1.1-1.3 1.3-2.3.7-3.3-1.9-3-1-4.7 3.8-7 2.6-1.3 5.6-3.1 6.6-3.9 1.1-.9 1.6-1.1 1.3-.5-.4.7 0 1.4.8 1.8 1.1.4 1.5-.1 1.5-1.8 0-1.9.4-2.3 1.9-1.9 1 .3 2.2-.1 2.7-.8.5-.9.2-1.1-.9-.6-1.1.4-1.4.2-1.1-.7.3-.8 1.4-1.2 2.5-.9s1.9 0 1.9-.6c0-.7-.5-.9-1.2-.5-.9.5-.9.2.1-.9.7-.9.9-1.7.4-1.7-.6 0-.8-1.7-.6-4 .4-3.2.2-4-1.2-4-.9 0-1.4-.4-1.1-.9 1-1.5-3.7-8-5.9-8.1-1.1-.1-1.4-.4-.8-.7.9-.3 1-1 .3-2.2-.5-1-.6-2.1-.3-2.5.3-.3.1-.6-.5-.6-.7 0-1.2-.7-1.2-1.5s-.5-1.5-1.2-1.5c-.6 0-.8-.3-.4-.7.4-.5 1.4.1 2.2 1.1 1.1 1.5 1.4 1.6 1.4.5 0-.9-1.5-2.3-3.2-3.3-1.8-.9-2.5-1.4-1.5-1.2.9.3 1.7.1 1.7-.4 0-.6-.6-1-1.4-1-.7 0-2-.8-2.7-1.7-1.2-1.4-1.2-1.6.1-.8 2.8 1.7 4.8 1.3 4.2-.9-.3-1.1-.7-1.5-1-.8-.3.9-.7.8-1.8-.2-1.9-1.9-1.8-2.5.4-1.9 1.5.4 1.8-.1 1.6-2.7-.1-2.1.4-3.3 1.7-4.1 1.4-.7 1.9-.6 1.9.2 0 1.2 1.5.3 1.5-.9.1-3.5 5.2-3.2 9.8.4zm-22.9-1.2c-.3.8.4 1.6 1.7 1.9 1.3.4 2 .9 1.7 1.3-1.2 1.1-5.8-.5-5.8-2 0-1.2.6-1.8 2.7-2.5.1-.1 0 .5-.3 1.3zm65.6 1.2c0 .8-.5 1.2-1 .9-.6-.4-.8-1.1-.5-1.6.9-1.4 1.5-1.1 1.5.7zm-135 9.9c-1 1.2-1 1.5.4 1.5.9 0 1.6.4 1.6 1 0 1.2-1 1.3-2.9.1-1.6-1-.8-4.1 1-4.1.8 0 .8.4-.1 1.5zm0 4.5c0 .5-.2 1-.4 1-.3 0-.8-.5-1.1-1-.3-.6-.1-1 .4-1 .6 0 1.1.4 1.1 1zm44 14.9c0 1.1-.5 2.3-1.2 2.7-.8.5-.9.2-.4-1.1.4-1.1.2-2.2-.6-2.7-1-.6-.8-.8.5-.8 1 0 1.7.8 1.7 1.9zm160 5.1c0 .5-.2 1-.4 1-.3 0-.8-.5-1.1-1-.3-.6-.1-1 .4-1 .6 0 1.1.4 1.1 1zm-124.7 7.8c-.3 1.2-.9 2.2-1.4 2.2-1.2 0-1.1-.7.3-3 1.5-2.4 1.9-2.1 1.1.8zm-7.9 1.9c.4.9.1 2.1-.5 2.7-.9.8-1 .7-.6-.5.3-.9 0-2.2-.6-2.8-.8-.8-.8-1.1 0-1.1.6 0 1.4.8 1.7 1.7zm-94.7 6.8c-1.5 1.6-1.9 1.3-1.1-.9.3-.9 1-1.3 1.5-1s.3 1.1-.4 1.9zm9.5.2c-.6.2-.9 1-.6 1.5.4.7.2.8-.4.4-1.8-1.1-1.4-2.6.6-2.5 1 0 1.2.3.4.6zm-3.2 4.7c0 .3-.4.8-1 1.1-.5.3-1 .1-1-.4 0-.6.5-1.1 1-1.1.6 0 1 .2 1 .4zm80 2.6c0 .5-.5 1-1.1 1-.5 0-.7-.5-.4-1 .3-.6.8-1 1.1-1 .2 0 .4.4.4 1zm-12.3 4.2c3.3.8 5.4 2.3 8.8 6.4 2.5 2.9 5.5 5.4 6.8 5.6 1.8.2 2.3 1.2 2.9 4.8.3 2.5 1.1 6.2 1.6 8.3 1 3.9.4 5.9-5.5 17-.8 1.6-1.2 3.6-.8 4.5.6 1.5.8 1.5 1.5-.3.4-1.1.6-2.3.3-2.8-.5-.9 2.2-3.7 3.6-3.7.6 0 .8-.6.5-1.3-.2-.7.2-2.1 1.1-3.2 1.4-1.9 1.5-1.9.8-.1-.4 1.4-.3 1.7.6 1.2.7-.5 1.7.5 2.6 2.8 1.4 3.3 1.3 4-.5 8.8-2.7 7-2.5 8.5.3 2.6 1.2-2.7 2.5-4.8 2.9-4.8s1 2 1.4 4.5c.3 2.5 1 4.5 1.4 4.5.9 0 .3-3.1-2.5-12.8-1-3.4-2.2-6.2-2.7-6.2s-.6-.5-.3-1c.3-.6.2-1-.2-1-.5 0-.9-.8-1-1.8-.2-3 4.6-1.6 5.8 1.7 1.1 2.8 2.6 4.1 4.9 4 .8 0 .3-.6-1.1-1.4-1.5-.8-3-2.6-3.3-4-.5-1.8-1.5-2.7-3.4-3.1-2.3-.5-2.8-1.1-2.7-3.2.1-1.5-.5-4.4-1.2-6.6-1.7-5.2-1.7-5.4 1.1-4.9 1.5.3 2.9 1.6 3.6 3.3.6 1.6 2.5 3.4 4.1 4 2.3 1 2.9 1.9 3 4.4.1 1.7.5 4.2 1 5.6.6 1.9.7 1.4.3-1.9-.5-4.3-.4-4.4 1.4-2.8 1 .9 2.5 1.7 3.2 1.7 1 0 .9-.4-.4-1.3-.9-.7-1.8-2.2-1.8-3.4-.1-1.3-.7-1.9-1.5-1.6-.9.4-1.1 0-.6-1.3.4-1.2.3-1.5-.5-1-1.6 1-5.4-.3-4.7-1.5.9-1.3 7.9-1.1 9.7.3 3.8 3.2 7.2 18.8 4 18.8-.7 0-1.1.4-.8.9.3.4-.1 1.7-.9 2.7s-1.5 3.3-1.5 4.9c0 1.7-.5 3.6-1.2 4.3-.8.8-.8 1.5 0 2.4.7.9.7 2-.3 3.8-1.7 2.9-1.9 4.4-.6 3.5 2.2-1.3 3.7 6.1 1.7 8.4-.9 1.2-.7 1.3.9.7s1.7-.5.8.5c-1 1-1 1.6 0 2.7.9 1.2.9 1.6-.1 2-1 .3-1 .7-.1 1.8.7.9.8 1.4.1 1.4-.6 0-.9 1.1-.6 2.5.2 1.4.1 2.5-.4 2.5s-.9.6-.9 1.4.5 1.4 1 1.3 1.1.8 1.3 2.1c.2 1.4 0 2.1-.6 1.7-.5-.3-1-.2-1 .4 0 .5.4 1.2.9 1.6 1.2.7.1 7.8-1.3 8.7-.7.5-.5.8.6.8 1.2 0 1.5.6 1 2.2-.3 1.3-1 2.6-1.6 3-.7.5-.5.8.6.8s1.5.6 1.1 2c-.3 1.3.1 2.2 1.1 2.6 1.6.6 1.6.8 0 3.1-.9 1.4-1.1 2.2-.5 1.9.7-.5 1.1.1 1.1 1.4 0 1.2-.4 1.9-.9 1.6s-1.1.1-1.5.9c-.3.8.2 1.8 1 2.3 1.4.8 1.4 1.1-.1 2.5-.9 1-2 1.5-2.4 1.3-.4-.3-.8.2-.8 1s.6 1.3 1.3 1c.8-.3 1.6-.1 1.9.4s1.3.7 2.3.4c1.1-.4 1.3-.3.5.3-1 .7-.9 1.5.2 3.6.7 1.5 1.1 2.7.7 2.7s-1.3.9-2 2.1c-.8 1.2-.9 1.8-.3 1.4.7-.4 1 .2.7 1.7-.3 1.3-.5 2.7-.5 3.1-.1.5-.5.6-1 .3s-.8 1.7-.6 4.4c.2 4.1-.1 5-1.4 5-1.1 0-1.2.3-.4.8.7.4 1.4 1.7 1.6 2.9.1 1.2.9 2.9 1.7 3.8 1.2 1.4 1.2 1.8-.1 2.7-1.1.8-1.1.9.4.4.9-.3 1.7-.1 1.7.4 0 .6-.5 1-1.1 1-.5 0-.8.4-.5.8.3.5-.4 1.6-1.5 2.5-1.9 1.7-1.8 4.3.2 3.2.5-.4.9-.1.9.4 0 .6-.4 1.1-.9 1.1s-1.1.7-1.4 1.4c-.4 1-.1 1.3.7 1 .7-.3 1.7.3 2 1.3.4 1 .2 1.9-.3 2.1-.6.2-1.1.8-1.1 1.3 0 .6.6.7 1.3.3.8-.5.7-.2-.2 1-1.1 1.3-1.6 1.4-2.2.4-.6-.9-.9-.8-.9.6 0 1.9 0 1.9-1.4.1-1.3-1.8-3.2-2.4-9.1-2.8-1.8-.1-3.1-.8-3.3-1.8-.4-2.3-5.2-4.3-6.6-2.9-.8.8-.6.9.7.5 1.2-.5 1.7-.2 1.7 1.1 0 1.4-.2 1.6-.9.6-.4-.8-1.1-1.3-1.5-1.3-3.3.5-3.5-1.1-.3-2.7 2-1 2-1.1.2-.9-1.1.1-2.7.9-3.5 1.7-.8.9-1.2 1.1-.8.5.9-1.4.8-2.8-.4-4.2-.5-.7-.6-1.7-.2-2.4.5-.8-.2-1-2.5-.7-2.6.4-3.1.1-3.1-1.6 0-2 0-2-1.5 0-.8 1-1.5 1.5-1.5 1s-.6-.3-1.4.3c-1.2 1-1.3.8-.9-1 .4-1.5.3-2-.5-1.5-.7.4-1.2.2-1.2-.3 0-1.5 1.7-1.4 2.6.1.5.8 1.1.6 2-.6.7-1 1.8-1.5 2.5-1.1.7.5 1 .3.7-.5-.2-.8-1.4-1.4-2.7-1.5-1.4-.1-2 .3-1.7 1.2.6 1.5-1 1.8-1.8.4-.3-.5-1.6-.7-2.8-.3-2.7.7-1.5-1.5 1.6-2.9 1.7-.8 1.4-.9-1.6-.5-3.6.4-3.7.4-2.7-2.2s1-2.6-1.1-.7c-1.1 1-2.3 1.5-2.7 1.2-.3-.4-.1-.7.6-.7s.9-.5.4-1.3c-.4-.6-.8-1.6-.8-2.2 0-.5-.9-1.1-2-1.2-1.8-.3-1.9-.2-.2.5 1.8.8 1.8.9.1 2.2-1.1 1-1.5 1-1 .2.4-.7.1-1.5-.8-1.8-1.2-.5-1.3-1.1-.6-2.4 1.3-2.4 1.3-2.7-.5-3.3-.8-.4-1.7-.1-2.1.5-.4.7-.3.8.4.4s1.2-.1 1.2 1c0 1.4-.3 1.4-1.5.4-.8-.7-1.4-2-1.3-2.8.2-.9-.8-2.1-2-2.8-1.5-.7-2-1.4-1.3-1.8.6-.4 1.1-1.3 1.1-1.9 0-.8-.3-.7-.9.2-1.1 1.6-3.1.6-3.1-1.6 0-1-.6-1.3-1.6-.9-1.2.5-1.5.2-1.1-1.3.3-1.4 0-1.8-1.7-1.5-1.1.2-1.5.2-.8-.2 1.6-.8.5-2.5-1.2-1.8-.8.3-1.7.1-2.1-.5-.3-.6 0-.9.8-.5.8.3 1.7-.1 2-.9.4-1.1 0-1.3-1.4-1-1.1.3-1.9 0-1.9-.6 0-.7.6-.9 1.3-.6.6.4.4 0-.5-.8-1-.8-1.5-1.6-1.2-1.9.2-.3-.7-.3-2.1-.1-2.4.5-3.7-1.1-1.4-1.9 1.9-.6-.3-3.8-2.6-3.8-2.5 0-5.5-3.8-5.5-6.9 0-1.1-.9-2.5-1.9-3.1-1.3-.6-1.8-1.8-1.6-3.1.2-1.1-.5-2.9-1.5-3.9-1.1-1.1-1.5-2.2-1-2.5.6-.4 1-1.4 1-2.3 0-1.1-.3-1.3-.8-.5s-1.2.8-2.6-.3c-1.7-1.2-1.8-1.4-.3-1.4 2 0 2.3-3.6.5-4.3-.8-.4-.7-.6.3-.6 1.7-.1 3.6-3.1 2-3.1-.5 0-1.1.5-1.3 1.1-.3.8-.9.6-2-.4-.8-.9-1.7-1.4-2-1.2-.2.2-.9-.5-1.6-1.5-1-1.7-1-2 .5-2 1.6 0 1.3-1.1-.4-1.3-1.6-.2-3.2-2.5-2.9-4.3.2-1-.1-2.4-.6-3.1s-.5-1.4.2-1.8c1.8-1.1 1.1-2.3-1.2-1.8s-2.3.5-.3-1c1.8-1.5 1.8-1.6.3-1.7-1 0-1.8-.4-1.8-.9s.8-.7 1.9-.4c1 .3 2.2-.1 2.6-.8.6-.8.4-1-.5-.4s-1 .2-.5-1.6c.4-1.3 1.2-3 1.8-3.7s.9-3.3.8-5.8c-.1-3.8.2-4.5 1.5-4.2 1.7.3 2.1.9 4.3 5.8.6 1.4 2.1 3.9 3.4 5.6 1.2 1.8 2.7 4 3.4 5 1 1.6 1 1.3.3-1.4-.5-1.7-2.2-4.9-3.9-6.9-1.7-2.1-3.1-4.5-3.1-5.4s-1.1-2.8-2.5-4.3c-2.9-3.1-2.8-2.7-1.6-6l1-2.5 3.9 1.9c2.1 1 4.5 2.6 5.2 3.5s2.3 2.1 3.4 2.7c1.4.7.9-.2-1.3-2.5-1.9-2-4.9-4.3-6.8-5.2-3-1.5-3.4-2-3.2-5.4.2-2-.1-4.2-.5-4.9s-.2-1.2.6-1.3c.7 0 .4-.4-.7-.9s-1.4-.9-.7-.9c.6-.1 1.2-.8 1.2-1.7 0-1.3.7-1.5 3.3-1 2.3.4 2.8.3 1.7-.4-1.2-.8-1.1-1 .6-1 1.8 0 2 .5 1.7 2.7-.4 2.3-.2 2.5.7 1.3 1-1.3 1.1-1.3.7 0-.2.8 0 2.3.5 3.4.7 1.3.7 1.6-.1 1.2-.6-.4-1.1-.2-1.1.3 0 .6.9 1.1 2 1.1s2 .7 2 1.5.5 1.5 1.1 1.5.9.7.5 1.5c-.3.8-.2 1.5.3 1.5 1.1 0 3 4.9 2.9 7.5-.1 1.1-.6 2.4-1.2 2.8-.7.6-.4.7.7.3 2.3-.7 2.4.6 1.2 13.9-.3 3.8-1.3 9.7-2.1 13-2 8-4.4 21.4-4.3 24.5 0 1.9.5 1.3 1.9-2.3 1-2.7 2.4-5.5 3-6.3 1.3-1.5 3.5-2 2.6-.5-.3.5.1 1.1.9 1.5.9.3 1.5 1.9 1.5 4.1 0 2.4.5 3.5 1.4 3.5s1.3.7 1.2 1.7c-1.3 6.8-1.5 12-.6 13.3.9 1.1 1 .7.5-1.7-.8-4.1 1-7.9 2.9-6.1.8.7 1.2 1.6.9 2-.2.5.1.8.7.8.7 0 1 .6.7 1.4-.5 1.3 2 3.2 2.9 2.3.7-.7-1.9-7.1-3.8-9.6-1-1.4-1.8-4-1.8-6.3 0-2.2-.4-3.7-.9-3.3-.5.3-1.9-.9-3.1-2.7l-2.2-3.3 2.6 2.8c1.4 1.5 2.6 2.4 2.6 1.9 0-1.6-4.1-6.2-5.3-5.9-.7.1-1.1-.7-1-2 .4-3.3-1.9-2.4-3.4 1.2l-1.2 3 .3-3c.2-1.7 1-4.4 1.6-6 .7-1.7 1.7-5.7 2.2-9s1.1-6.9 1.3-8c2.6-12.6 2.5-13.1-2.1-23.2-.8-1.7-1.4-3.7-1.4-4.3 0-.7-.9-2.8-2.1-4.6-1.1-1.9-1.7-3.9-1.3-4.5.4-.8.3-.9-.4-.5-.8.5-1.2-.6-1.3-3.6 0-2.4-.2-5.5-.3-7-.1-2 .3-2.6 1.6-2.5 1.9.1 2.2 4.6.4 5.9-.7.5-.5 1.8.7 3.8 1 1.6 1.5 3.4 1.2 4-.7 1.1 3.2 10 4.4 10 1.1 0 .4-3.4-1.6-7.8-.9-2.2-1.3-4.6-.8-6.8.4-2.2.2-3.4-.5-3.4-.6 0-.9-.4-.6-.9.3-.4.7-3.6 1-7.1.2-3.4.9-6.7 1.4-7.2.8-.8.9 2.4.5 10-.5 9.3-.3 12.1 1.3 16.9 1.1 3.4 1.8 8.2 1.7 11.6-.1 3.3.2 5.5.8 5.2.5-.4.9-1.8.9-3.2 0-1.9.4-2.4 1.6-1.9.9.3 1.2.2.9-.4-.8-1.4-1.7-6-1.1-6 .3 0 1.3 2.6 2.3 5.7 1.4 4.8 3 7.1 9.3 13.4 6.1 6.1 9.1 8.3 15.1 10.9 7.6 3.3 11.6 5.9 6.9 4.5-5-1.4-6.5-1.1-6.4 1.2.1 3-.4 2.9-1.6-.2-.5-1.4-2.2-3-3.6-3.5-1.4-.6-3.8-1.9-5.2-3-3.1-2.5-4.5-2.6-3.8-.3.2 1 .7 4.7 1 8.3l.6 6.5-2-6.9c-1.2-3.8-1.8-7.6-1.6-8.3.3-.8.1-1.1-.4-.8s-1.2-.7-1.6-2.2-1.1-3.3-1.6-4-.5-1.4.2-1.8c.6-.4-.7-2.4-3.2-5l-4.3-4.4-1.6 9.2c-.9 5.1-2.1 11.2-2.8 13.7-2 6.8-.7 14.8 2.9 18.5 1.5 1.6 3.3 4.6 3.8 6.5.6 1.9 1.1 2.7 1.1 1.7.2-2.8-2.6-8.7-4.4-9.3-.9-.4-1.4-1.3-1.1-2s.1-1.6-.4-1.9c-.6-.4-1-1.1-1-1.6 0-.6.4-.8.9-.5.4.3.6-.5.4-1.8-.3-1.3 0-3.4.7-4.6 1-1.8 1-2.1-.2-1.4-.7.4-.5-.2.5-1.3 1.9-2.2 2.2-4 .7-4.5-1.6-.5 1.2-5.6 3.8-6.7 1.7-.8 2.2-.7 2.2.3 0 .8-.6 1.7-1.2 2-.7.3-.4.4.8.1 1.7-.4 2.3.3 3.7 4.2 2.6 7.2 2.3 9.5-1 9.3-4.7-.3-6 .1-3.5 1.1 1.3.5 2.9.6 3.4.2.8-.4.9.2.4 1.8-.4 1.3-1 3.5-1.3 4.9-.4 2-.1 1.8 1.4-.9 2.3-4.5 4.1-5 4.9-1.4 1.8 8.1 3.8 14.3 4.5 14.3 1.3 0 1.1-5.3-.2-8.7-1.2-3-1.8-14.4-.8-13.7.4.2.9-.3 1.2-1.1.4-.9.1-1.2-.7-.9-.7.3-1.3-.2-1.3-1.1 0-1.1.6-1.3 2.1-.9 1.2.3 2.6.7 3.1.8 1.5.2 5.5 6.2 5.8 8.8.1 1.3.6 2.6 1 2.9.5.4.9 3.7.9 7.5.1 8.5 1.3 12.6 1.5 4.9.1-3.1.4-5.9.7-6.3.3-.3 1.5.3 2.6 1.3 1.7 1.6 2 1.6 1.5.3-.4-.9-1.3-1.9-2.2-2.2-.8-.4-1.3-1.3-.9-2.1.3-.8.1-1.5-.4-1.5-.6 0-1-.7-1-1.6 0-1.4.3-1.5 2.3-.2 6.3 4.1 7 3 .7-1.3-4.4-3-4.8-5.6-.9-6.4 1.6-.4 3.2-.4 3.7-.1s2.2.2 3.7-.3l2.9-.7-5.4-3.1c-3-1.7-8.4-4.5-12-6.1-4.4-2-8.2-4.8-11.8-8.6-2.9-3.1-5.7-5.6-6.2-5.6-.6 0-1-.9-1-2 0-1.5.7-2 2.9-2 1.6 0 3.4.7 4.1 1.5.7.9 2.7 2.6 4.4 3.7l3.1 2.2-2.4-2.7c-2.7-3-2.7-3 1.4-4.5 2.7-.9 2.5-1-1.6-.5-5.1.6-7.8-1.2-3.4-2.3 4.8-1.2 1.8-1.4-3.3-.2-4.9 1.1-5.3 1-7.2-1.2-1.1-1.3-2-3.1-2-4 0-1-.6-2.3-1.4-3-.8-.6-1.2-1.8-.9-2.6.3-.9-.1-1.4-1.2-1.4-1.2 0-1.6-.6-1.2-2 .3-1.2 0-2-.7-2-.8 0-1.3-1.8-1.4-5 0-2.9.4-5 1-5 .7 0 .6-.6-.2-1.5-1-1.2-1-1.5.4-1.5 1.1 0 1.6-.9 1.6-2.9s.6-3 2-3.4c2.1-.5 2.8-2.7.9-2.7-.5 0-.7.4-.4 1 .3.5-.1 1-.9 1-2.1 0-2.1-1.6 0-2.4.8-.3 1.3-1 1-1.5s.1-1.2 1-1.5c1.2-.5 1.5-.2 1 .9-.3.9-.2 1.3.4 1 1.6-1 1.2-3.8-.5-3.2-.8.4-1.7.2-1.9-.2-.7-1.1 3.6-3 8.2-3.7 2.1-.3 3.9-.8 4.1-.9.4-.5 5.3.3 10.8 1.7zm18.8 2.8c.3.5-.1 1-.9 1-.9 0-1.6-.5-1.6-1 0-.6.4-1 .9-1 .6 0 1.3.4 1.6 1zm-56.8 11.2c-.3.7-.5.2-.5-1.2s.2-1.9.5-1.3c.2.7.2 1.9 0 2.5zm-30.2 5.8c-.3.5-1.4 1-2.3.9-1.4 0-1.3-.2.3-.9 2.7-1.1 2.7-1.1 2 0zm24.5 2.5c-.7.8-1.7 1.5-2.3 1.5s-.2-.7.9-1.5c2.5-1.9 3-1.9 1.4 0zm-7.4 13.9c.7 4.2-.3 7.9-2.1 7.3-.7-.3-1.9 0-2.6.6-.7.7-.5.2.5-1s1.5-2.7 1.1-3.3c-.4-.7-.1-1.6.6-2.1 1.2-.8 1.2-1 0-1.8-1.5-1-.7-4.6.9-3.6.5.3 1.2 2.1 1.6 3.9zm-2.2 11.8c-.4 1.8-.7 3.9-.7 4.5 0 .7-.5 1.3-1 1.3s-.7-1.1-.5-2.5c.3-1.4.1-2.8-.3-3.1-.9-.5 1.1-3.3 2.4-3.4.5 0 .5 1.5.1 3.2zm34 8.3c1.1.8 1.6 1.5 1 1.5-.5 0-1.8-.7-2.8-1.5-1.1-.8-1.6-1.5-1-1.5.5 0 1.8.7 2.8 1.5zm-34.4 2.9c-.1.6-.7 2.2-1.5 3.6-1.3 2.3-1.4 2.3-1.5.4 0-1.1.6-2.6 1.3-3.3.6-.7.8-1.2.2-1.1-1.8.4-2.6 0-2-1 .7-1.2 3.5-.1 3.5 1.4zm3.5 31.5c.3.5 0 1.3-.6 1.7-.7.4-.9.3-.5-.4.3-.5 0-1.3-.6-1.5-.9-.4-1-.6-.1-.6.6-.1 1.4.3 1.8.8zm59.7 79.3c-.6.6-1.6.7-2.2.3-.9-.6-.9-.9.1-1.6 1.7-1 3.4 0 2.1 1.3zm5 4c-.8.8-.9.5-.5-1.3.6-2.1.5-2.3-1-1-1.5 1.1-1.7 1.1-1.7-.2 0-2.3 2.4-2.7 3.4-.5.6 1.2.5 2.3-.2 3z"/><path d="M192.1 127.6c0 1.1.3 1.4.6.6.3-.7.2-1.6-.1-1.9-.3-.4-.6.2-.5 1.3zM185.5 132c-.3.5-.1 1 .4 1 .6 0 1.1-.5 1.1-1 0-.6-.2-1-.4-1-.3 0-.8.4-1.1 1zM196 132c0 .5.4 1 .9 1 .6 0 1.3-.5 1.6-1 .3-.6-.1-1-.9-1-.9 0-1.6.4-1.6 1zM193.4 134.6c.3.8.2 1.2-.4.9s-1 .4-1 1.7c0 1.8-.2 2-1 .8-.8-1.3-1-1.2-1 .2 0 1-.5 1.7-1.1 1.5-.6-.1-1.4.4-1.6 1.1-.5 1.4 1.6 1.2 6-.6 1.7-.7 2.5-1.7 2.1-2.3-.3-.6-.1-1.5.6-1.9 1.6-1 .4-3-1.7-3-1 0-1.3.6-.9 1.6zM185.7 137.1c.7.7 1.5 1 1.8.7s-.2-.9-1.2-1.2c-1.4-.6-1.5-.5-.6.5zM185 142.4c0 .7.9 1.6 2.1 1.9 2 .5 2 .5.3-1.4-2-2.3-2.4-2.3-2.4-.5zM178.3 144.6c-1.5 1.5-1.7 3.4-.4 3.4.8 0 2.4-4.1 1.8-4.6-.1-.1-.8.4-1.4 1.2zM181.7 143.7c-.4.3-.7 1.3-.7 2.2 0 1.3.2 1.3.9.2.5-.8 1.4-1 2.2-.5 1.2.6 1.2.5 0-.9-1.5-1.9-1.5-1.9-2.4-1zM190.5 145.8c1.7 1.2 1.8 4.3 0 4-.8-.2-2.1.8-2.8 2.2-.9 1.7-2.1 2.4-3.8 2.3-2.3-.2-2.3-.1.3 1.1 2.3 1 2.6 1.4 1.5 2.5-1 1.1-.9 1.3.6.7 1-.3 2.1-.6 2.4-.6s0-.7-.7-1.5c-1-1.3-1-1.9.5-3.5 1-1.1 2.2-2 2.7-2s.2.7-.6 1.6c-2 2-2 3.4 0 3.4.8 0 1.3-.4 1-.9-.3-.4.6-.6 1.9-.3 1.9.3 2.5 0 2.5-1.4 0-2.6-3.7-8.4-5.2-8.4-.8 0-.9.3-.3.8z"/><path d="M183.3 152.4c.5 1.6 2.4 1.8 3 .4.3-.9-.3-1.4-1.4-1.4s-1.8.5-1.6 1zM166.6 154.7c-.6 1.4-.5 1.5.5.6.7-.7 1-1.5.7-1.8s-.9.2-1.2 1.2zM182 157c0 .5.5 1 1.1 1 .5 0 .7-.5.4-1-.3-.6-.8-1-1.1-1-.2 0-.4.4-.4 1zM175.2 160.7c-.6 1.6-1.3 3.6-1.6 4.6-.3 1.1-1.1 1.5-1.7 1.1-.8-.5-.9-.3-.5.5.6.9 1.6.4 3.6-1.6 1.5-1.5 3.8-2.8 5.1-2.8 1.4 0 2.3-.5 2.2-1.3-.2-.6.3-1.2 1-1.3.6-.1.1-.4-1.3-.8-1.5-.4-2.8-.3-3.2.3-.5.7-.8.7-.8-.2 0-2.2-1.7-1.3-2.8 1.5zM172 162c-.8 1.1-2 2-2.7 2s-1.3.4-1.3 1c0 .5.4 1 1 1 1.1 0 5-4 5-5.2s-.4-1-2 1.2zM334.8 175.7c.7.3 1.6.2 1.9-.1.4-.3-.2-.6-1.3-.5-1.1 0-1.4.3-.6.6zM345 197.1c0 .5.5.7 1 .4.6-.3 1-.8 1-1.1 0-.2-.4-.4-1-.4-.5 0-1 .5-1 1.1zM257.6 143.5c.4.8.7 1.5.9 1.5s.5-.7.9-1.5c.3-.9 0-1.5-.9-1.5s-1.2.6-.9 1.5zM234 148.1c.7 1.1 1.4 1.9 1.6 1.6.7-.7-.7-3.7-1.7-3.7-.6 0-.5.9.1 2.1zM259 151.1c0 .5.5.7 1 .4.6-.3 1-.8 1-1.1 0-.2-.4-.4-1-.4-.5 0-1 .5-1 1.1zM223 152c-1.2.7-1.2 1.2.5 2.9 2 2.3 3.5 2 1.6-.3-.7-.8-1-2-.6-2.6.8-1.2.4-1.2-1.5 0zM243 161.7c0 .6.9 2.1 2.1 3.4l2 2.4-1.7-3c-2.4-3.9-2.4-4-2.4-2.8zM247.1 161.7c0 .5.4 1.7.9 2.8.8 1.7.8 1.6.7-.8-.1-1.5-.5-2.7-.9-2.7s-.8.3-.7.7zM250 162.9c0 .6.4 1.2.8 1.5.5.3.9-.1.9-.9s-.4-1.5-.9-1.5c-.4 0-.8.4-.8.9zM217.5 165c-.3.5-.1 1 .4 1 .6 0 1.1-.5 1.1-1 0-.6-.2-1-.4-1-.3 0-.8.4-1.1 1zM214 168.4c0 .2.7.7 1.6 1 .8.3 1.2.2.9-.4-.6-1-2.5-1.4-2.5-.6zM226.9 179.9c1.1.7 1 1-.5 1.3-1.6.3-1.6.5-.3 1 .9.4 2-.1 2.7-1.3 1.1-1.7.9-1.9-1-1.9-1.7 0-2 .3-.9.9zM226.7 187.6c-1.2 1.2.3 2.2 2.4 1.7 1.6-.4 1.7-.8.7-1.4-1.6-1-2.3-1.1-3.1-.3zM214.8 191.7c.6.2 1.8.2 2.5 0 .6-.3.1-.5-1.3-.5s-1.9.2-1.2.5zM211 196c0 .5.5 1 1 1 .6 0 1-.5 1-1 0-.6-.4-1-1-1-.5 0-1 .4-1 1zM211 199.9c0 .9 6.6.8 7.5-.1.3-.3-1.3-.5-3.5-.6s-4 .2-4 .7zM222.3 212.7c.4.3-.1 1.2-1.1 2-1.5 1.3-1.5 1.3.6.3 1.9-.9 2.3-3 .5-3-.4 0-.3.3 0 .7zM220.4 218.5c-1 .8-1.4 1.5-.8 1.5.5 0 1.9-.7 3-1.5 1-.8 1.4-1.5.8-1.5-.5 0-1.9.7-3 1.5zM193.5 163c.3.5.8 1 1.1 1 .2 0 .4-.5.4-1 0-.6-.5-1-1.1-1-.5 0-.7.4-.4 1zM197.1 174.2c.4 3.4-.2 5-1.7 4.4-.8-.3-1.2-.2-.9.4.7 1.2 3.4 1.3 3.7.2.5-2.8.4-6.2-.4-6.2-.5 0-.8.6-.7 1.2zM192.3 189.8c-.1 1 .4 1.9 1.1 1.9.8 0 1.1-.8.8-1.9-.2-1-.7-1.8-1.1-1.8s-.7.8-.8 1.8zM195.6 189.3c.3 1 .9 1.5 1.2 1.2s0-1.1-.7-1.8c-1-.9-1.1-.8-.5.6zM158.3 190.2c-2.2 2.8-2.3 3.6-.5 3.1 1-.2 1.8-1.3 1.8-2.4 0-2.3-.1-2.3-1.3-.7zM197 196c0 .5.6 1 1.3 1 .8 0 .7.3-.3.9-.8.6-1.9.7-2.5.3-.5-.3-.4.2.3 1.1 1.2 1.5 1.6 1.5 2.9.1.8-.8 1.2-2.1.9-2.9-.6-1.7-2.6-2-2.6-.5zM157.5 205c-.3.5-.1 1 .4 1 .6 0 1.1-.5 1.1-1 0-.6-.2-1-.4-1-.3 0-.8.4-1.1 1zM195.7 213c-1.4 1.6-2.8 2.6-3.2 2.2-.5-.4-.5-.1 0 .7.7 1.2 1.1 1 2.6-.7 2.2-2.8 3.3-2.8 1.9-.2-.8 1.5-.8 2 .2 1.8.7-.2 1.7.7 2.3 1.9 1.2 2.8 1.7 2.9 3.4.2 1.1-1.8 1.1-2.3-.1-3-1.1-.7-1-1.1.2-1.9 1-.6 1.1-1 .3-1-.7 0-1.2-.5-1-1.1.5-2.6-4.2-1.8-6.6 1.1zm5.3 3c0 .5-.2 1-.4 1-.3 0-.8-.5-1.1-1-.3-.6-.1-1 .4-1 .6 0 1.1.4 1.1 1zM147.3 213.5c.4.8.2 1.7-.3 2-1.7 1.1-1.1 2.2 1.2 2 1.2-.1 2.8-1.2 3.7-2.6 1.1-1.8 1.1-2.1.1-1.2-1.9 1.7-3 1.6-3-.2 0-.8-.5-1.5-1.1-1.5s-.9.7-.6 1.5zM187.1 213.7c-1.2 1.4-1.2 1.5 0 1.1.8-.3 2 .2 2.7 1.1 1.1 1.3 1.1 1.2.1-.9-.6-1.4-1.2-2.6-1.3-2.6 0-.1-.7.5-1.5 1.3zM187 217c0 .5.5 1 1.1 1 .5 0 .7-.5.4-1-.3-.6-.8-1-1.1-1-.2 0-.4.4-.4 1zM151.7 217.6c-.6 1 2 5.1 2.7 4.3.2-.2-.1-1.5-.8-2.8s-1.6-2-1.9-1.5zM159.5 218c.3.5.8 1 1.1 1 .2 0 .4-.5.4-1 0-.6-.5-1-1.1-1-.5 0-.7.4-.4 1zM191.8 220.5c.9 1.1 1.8 2.1 1.8 2.3.1.2.1-.8 0-2.2-.1-1.6-.7-2.4-1.8-2.3-1.6.1-1.6.2 0 2.2z"/><path d="M195.5 220c-.3.5-.1 1.8.4 2.7.6 1 1.1 1.6 1.1 1.3.8-3.8.8-5 .1-5-.6 0-1.3.4-1.6 1zM156 221.4c0 .9 3 1.4 3.5.6.4-.6-.3-1-1.4-1-1.2 0-2.1.2-2.1.4zM199.5 223c.3.5 1.1 1 1.6 1 .6 0 .7-.5.4-1-.3-.6-1.1-1-1.6-1-.6 0-.7.4-.4 1zM156.8 232.2c.5.5 1.6.8 2.3.6.8-.3.3-.7-1-1.1-1.7-.4-2.1-.3-1.3.5zM168.4 234.8c-.1.9-.4 2.5-.9 3.4-.5 1.3-.3 1.8 1 1.8.9 0 1.3.4 1 1-.3.5.1 1 1 1 1.4 0 1.4-.3-.1-3.1-1.4-2.9-1.4-3.1 0-2.6.8.3 1.8.1 2.2-.6s.3-.9-.1-.4c-.5.4-1.6 0-2.5-.8-1.4-1.3-1.6-1.2-1.6.3zM155.5 235c-.3.5-.1 1 .4 1 .6 0 1.1-.5 1.1-1 0-.6-.2-1-.4-1-.3 0-.8.4-1.1 1z"/><path d="M173.3 236.5c-1.2 1.4-1.7 2.5-1.2 2.5.6 0 .7.4.4 1-.3.5-.2 1 .4 1s.8.7.5 1.5c-1 2.5 2.9 1.8 7.9-1.6 2.6-1.7 4.7-3.6 4.7-4.1 0-.6-.9-.3-2 .7s-2 1.4-2 .9-.5-.1-1.1 1c-.9 1.5-1.3 1.6-2 .5-.7-1.2-.9-1.2-.9 0 0 1.1-.4.9-1.4-.4-1.3-1.8-1.2-2.1 1.2-3.2l2.7-1.2-3 .5c-2.3.4-2.7.3-1.5-.5.8-.6 1.1-1.1.5-1.1-.5 0-2 1.2-3.2 2.5zM151.1 237.6c0 1.1.3 1.4.6.6.3-.7.2-1.6-.1-1.9-.3-.4-.6.2-.5 1.3zM145.5 240.1c-.4.6-.5 1.2-.2 1.5.2.3.7-.2 1-1.1.7-1.7.1-2-.8-.4zM150.9 241.1c-.1.8-.1 1.7-.1 2 .1.4-.8.5-1.8.2-1.1-.3-2 0-2 .6s.6 1.1 1.4 1.1 1.7.6 1.9 1.2c.4.8.8.4 1.2-.9s1.1-2 1.6-1.7c1.5.9 1-1.3-.6-2.6-1.2-1-1.5-1-1.6.1zM150.5 253c-.3.6-.1 1 .5 1 .7 0 .8.6 0 1.9-1.3 2.6-1.3 2.8.8 3.6 1.3.5 1.4.4.5-.6-.9-.9-.9-1.7-.1-3.2.8-1.6 1.2-1.7 1.9-.6.5.8.9.9.9.4 0-2.5-3.4-4.3-4.5-2.5zM243.5 175c.3.5 1.1 1 1.6 1 .6 0 .7-.5.4-1-.3-.6-1.1-1-1.6-1-.6 0-.7.4-.4 1zM247 196c0 .5.5 1 1.1 1 .5 0 .7-.5.4-1-.3-.6-.8-1-1.1-1-.2 0-.4.4-.4 1zM256.5 215c-.3.5-.1 1 .4 1 .6 0 1.1-.5 1.1-1 0-.6-.2-1-.4-1-.3 0-.8.4-1.1 1zM236.5 233c.3.5.8 1 1.1 1 .2 0 .4-.5.4-1 0-.6-.5-1-1.1-1-.5 0-.7.4-.4 1zM196.9 242.7c-1.3 1.6-1.2 1.7.4.4s2.1-2.1 1.3-2.1c-.2 0-1 .8-1.7 1.7zM197 246c-.9.6-1 1-.3 1 .6 0 1.5-.5 1.8-1 .8-1.2.4-1.2-1.5 0zM192.5 258c.3.5.8 1 1.1 1 .2 0 .4-.5.4-1 0-.6-.5-1-1.1-1-.5 0-.7.4-.4 1zM172.6 266.1c.4.6 0 1.5-.7 2-.7.4-1 1.1-.7 1.5.6.6 3.8-1.8 3.8-2.9 0-.3-.7-.8-1.6-1.1-.9-.4-1.3-.2-.8.5zM254.5 284c.3.5.8 1 1.1 1 .2 0 .4-.5.4-1 0-.6-.5-1-1.1-1-.5 0-.7.4-.4 1zM201.6 296.6c-.4.9-.4 1.9-.1 2.2s.5 0 .5-.7c0-.8.5-.7 1.6.3 2.6 2.6 3.9 1.8 1.4-.9-2.8-3-2.6-2.9-3.4-.9zM165.6 308.2c.3.5 1 .6 1.5.3 1.3-.9 1.1-1.2-.6-1.2-.8 0-1.2.4-.9.9zM165 311c0 .5.5 1 1.1 1 .5 0 .7-.5.4-1-.3-.6-.8-1-1.1-1-.2 0-.4.4-.4 1zM225.5 314c.3.5.8 1 1.1 1 .2 0 .4-.5.4-1 0-.6-.5-1-1.1-1-.5 0-.7.4-.4 1zM162.1 315.2c-.1 2 1.4 2.4 2.5.6.4-.6.3-.8-.4-.4-.5.3-1.3 0-1.5-.6-.3-.8-.6-.6-.6.4zM169 316c-.9.6-1 1-.3 1 .6 0 1.5-.5 1.8-1 .8-1.2.4-1.2-1.5 0zM223 316c0 .5.5 1 1.1 1 .5 0 .7-.5.4-1-.3-.6-.8-1-1.1-1-.2 0-.4.4-.4 1zM169 319.1c0 .5.5.7 1 .4.6-.3 1-.8 1-1.1 0-.2-.4-.4-1-.4-.5 0-1 .5-1 1.1zM165.5 321c-1.9.8-1.9.9.3.9 1.2.1 2.2-.4 2.2-.9 0-.6-.1-1-.2-.9-.2 0-1.2.4-2.3.9zM185.6 332.7c-.6 1.4-.5 1.5.5.6.7-.7 1-1.5.7-1.8s-.9.2-1.2 1.2zM195.1 339.6c0 1.1.3 1.4.6.6.3-.7.2-1.6-.1-1.9-.3-.4-.6.2-.5 1.3zM177.1 350.6c0 1.1.3 1.4.6.6.3-.7.2-1.6-.1-1.9-.3-.4-.6.2-.5 1.3zM209 380c0 .5.5 1 1.1 1 .5 0 .7-.5.4-1-.3-.6-.8-1-1.1-1-.2 0-.4.4-.4 1zM238.1 110.6c0 1.1.3 1.4.6.6.3-.7.2-1.6-.1-1.9-.3-.4-.6.2-.5 1.3zM234.2 130c0 1.4.2 1.9.5 1.2.2-.6.2-1.8 0-2.5-.3-.6-.5-.1-.5 1.3zM227.5 132c-2.5 1.1.1 1.1 3.5 0 2-.6 2.1-.8.5-.8-1.1 0-2.9.3-4 .8zM270.9 214.7c-1.7 4.4-1.7 15.2-.1 15.8.9.3 1.2 1.3.9 2.5-.3 1.1-.1 1.8.3 1.5.5-.3 1.1-.1 1.5.5.3.5.1 1-.4 1-.6 0-1.1.5-1.1 1.1s.7.8 1.6.5c1.4-.5 1.5-.4.4.9-1 1.2-1 1.5 0 1.5.7 0 1 .7.7 1.4-.4.9.2 1.7 1.4 2.1 2 .7 2 .7.2 2.2-1 .8-1.2 1.2-.5.8 1.3-.7 1.7 2.6.5 3.9-.9.9-1.2 15.6-.3 15.6.3 0 .6.9.7 2 .3 3 4.3 7.8 7.7 8.9l3.1 1.1-3.1-2.9c-3.9-3.5-4.7-5.9-4.8-13.4-.1-4.9.2-5.7 1.7-5.7 1.7 0 1.7-.1.3-1.6-1.7-1.6-2.2-2.9-.8-2.1.4.3.7-2.4.7-5.9s-.4-6.4-.8-6.4c-.5 0-.6-.4-.3-.8.3-.5-.4-1.6-1.5-2.5-1-.9-1.9-2.6-1.9-3.7s-.4-2-.8-2c-1.3 0-4-5.3-4.2-8.5-.2-1.7.2-4.3.9-5.8 1.4-3.5 1.4-4.7.1-4.7-.6 0-1.5 1.2-2.1 2.7zM326.8 251.7c.7.3 1.6.2 1.9-.1.4-.3-.2-.6-1.3-.5-1.1 0-1.4.3-.6.6zM321.9 280.7c-.2 4.7-3.4 12.2-5.6 13-.7.3-1.3 1.4-1.3 2.5 0 1.5-.5 1.9-1.9 1.5-1.2-.3-1.8 0-1.5.7.2.6-.5 1.6-1.7 2.1-1.2.6-3.1 3.5-4.4 6.8-2.4 6-5.2 10-6.5 9.2-.4-.2-1.3.7-2 2.1-.8 1.3-1.8 2.3-2.4 2.1s-1.7.3-2.5 1.1c-.9.9-2.6 1.2-4.5.9-1.7-.3-2.5-.3-1.8 0 .6.2 1 .8.7 1.3-.4.7-4.8.1-10.7-1.5-3.6-.9-3.5 0 .2 3.2 2.3 1.8 2.9 3.1 2.4 4.5-.4 1.4-.2 1.8.5 1.4 1.5-1 1.4.7-.1 2.2-.9.9-.9 1.2.1 1.2s1.1.3.2 1.3c-.6.8-.9 1.7-.6 2 .3.4.2.5-.1.2-.8-.5-3.4 2-3.4 3.4 0 .5-1.7 1.5-3.7 2.1-6.2 2-6.4 3.1-.4 2.9 5.2-.3 5.4-.3 8.9-5.6 1.9-2.9 3.9-5.3 4.5-5.3.5 0 .4-.7-.3-1.5-1-1.2-1-1.8 0-3 .7-.8.9-1.5.4-1.5s2.2-1.8 6-4c3.7-2.2 7.2-4 7.7-4 1.9 0 6.2-5.6 9.5-12.6 1.9-4.1 3.8-7.4 4.3-7.4 1.4 0 8.2-7.4 9.8-10.7 1.8-3.8 2.4-4 4.8-1.3 1.5 1.7 1.6 2.5.7 6.2-1.1 4.3-.7 6.3.7 3.9.5-.7 2.6-1.5 4.7-1.8 4.8-.6 8.9 2.2 9.9 6.7.8 3.9 2.5 4.9 2.5 1.5 0-4.4-5.6-12.5-7.4-10.8-.3.4-.6.2-.6-.3 0-.6-1.2-1-2.7-1-2.1.1-2.8-.5-3.4-2.7-.4-1.6-1.9-4-3.4-5.4-1.4-1.4-2.8-3.7-3.1-5-.7-2.7-2.4-3.1-2.5-.6z"/><path d="M308.2 287.7c-1.2 1.7-3.4 3.6-4.7 4.3-2.2 1.2-2.5 1.9-2.1 5.7.2 2.4-.1 4.3-.6 4.3s-.7.4-.3 1c.6 1-1.1 3-6.5 7.3l-3.5 2.8 3-.3c5.5-.6 11.5-9.6 10.1-15.4-.4-1.3-.2-2.4.4-2.4 1.2 0 5-3.7 5-4.9 0-.5.5-1.1 1.1-1.3s1-1.2.8-2.2c-.3-1.6-.7-1.4-2.7 1.1zM346.6 348.3c-1.1.8-1.6 1.9-1.2 2.5.9 1.4-6.8 9.2-9.1 9.2-.9 0-1.3.3-1 .7.4.3.2 1.2-.5 2-1 1.2-.7 1.3 1.8.7l2.9-.7-2.1 2.4c-1.2 1.3-2.4 3.7-2.8 5.4-.6 2.7-.4 2.5 2.8-1.8 1.8-2.6 3.7-5.9 4.1-7.4.3-1.4 1.7-3.4 2.9-4.4 4.3-3.3 6.3-11.6 2.2-8.6zM330.5 377.4c-.8 1.9-2.2 4.1-3 5-.9.9-1.2 1.6-.6 1.6 1 0 3.9-3.7 6-7.8.8-1.5.8-2.2.1-2.2-.6 0-1.7 1.5-2.5 3.4z"/></g></svg>