<svg height="512" style="shape-rendering:geometricPrecision;text-rendering:geometricPrecision;image-rendering:optimizeQuality;fill-rule:evenodd;clip-rule:evenodd" viewBox="0 0 512 512" width="512" xmlns="http://www.w3.org/2000/svg"><circle cx="256" cy="256" r="256" style="fill:none"/><path d="m376.34 331.86c-7.23 48.89-76.54 42.28-103.19 6.14-3.23 2.4-13.9 7.55-16.59 8.37-26.05 8-55.31 8.81-71.56-16.72-5.92-9.3-9.54-21.95-10.21-33.06-16.79 8.84-36.14 7.26-50.27-5.71-11.05-10.15-15.32-22.89-14.71-37.64.5-12.12 4.02-22.84 6.89-34.44l3.98-7.53c3.54-5.87 7.7-11.46 12.23-16.6 14.67-16.63 33.32-28.61 54.55-35.04 1.41-1.65 3.41-3.31 5.07-4.56 4.89-3.67 10.56-6.39 16.38-8.22 22.98-7.24 49.13-1.4 70.87 7.28 9.25-.75 20.79.49 29.65 2.63 18.64 4.5 34.57 14.57 42.28 32.69 7.07 2.02 15.22 6.87 20.62 11.48 14.18 12.1 19.6 28.63 18.22 46.93 16.71 22.48 15.19 72.28-14.21 84zm12.68-83.55c16.72 21.79 15.26 71.71-14.04 82.46-6.32 48.49-75.85 42.01-101.55 5.04-3.36 3.36-17.31 9.13-17.31 9.13-79.74 24.48-79.91-50.9-79.91-50.9s-27.15 17.34-50.67-4.26c-23.53-21.61-11.96-52.13-7.38-70.66 0 0 18.8-42.82 70.17-58.19 0 0 25.44-31.68 91.22-5.28 0 0 54.73-4.8 71.06 35.05 0 0 42.25 11.04 38.41 57.61z" style=""/><path d="m273.43 335.81c25.7 36.97 95.23 43.45 101.55-5.04 0 0-10.09.24-35.29-7.44-25.21-7.68-66.26 12.48-66.26 12.48z" style="fill:#e57373"/><path d="m239.53 154.88s4.99 9.13 14.11 7.21c0 0-5.09 3.93-7.58 3.16-7.64 27.05-31.5 32.33-31.82 32.01 3.6 14.26 2.99 30.94 10.07 33.91 6.19-.77 11.76 2.84 11.76 2.84-10.95-2.69-18.44 7.1-18.44 7.1-.96-3.46 2.31-7.68 2.31-7.68-2.5-1.54-6.92-16.52-6.92-16.52-7.27 13.99-47.63 1.93-46.66 37.64 4.8 2.31 5.76 9.22 5.76 9.22-3.08-6.14-19.98-5.38-19.98-5.38 4.61-4.32 8.07-5.08 8.07-5.08 6.38-44.38 34.68-21.07 51.85-42.64-.33-27.22-21.89-33.78-27.73-35.06-6.86 11.04-17.97 10.49-10.68 29.11 0 0 9.61 1.53 13.83-.77-9.91 15.86-27.78-8.55-46.47 13.83 0 0 4.99-15.37 27.27-14.6-7.25-17.79 11.8-24.62 20.74-39.94-.36 2.78-2.69 9.41-2.69 9.41 15.95 1.64 23.09 10.48 26.76 20.84.16-.42 17 1.51 29.68-27.95 0 0-4.47-4.09-3.24-10.66zm-121.37 64.24s18.8-42.82 70.17-58.19c0 0 25.44-31.68 91.22-5.28 0 0 54.73-4.8 71.06 35.05 0 0 42.25 11.04 38.41 57.61 5.83 16.95 8.96 32.45 4.14 50.12-18.66-2.01-41-28.37-55.6-3.93-.96-2.11-8.45-3.27-8.45-3.27 11.14 5.96 9.79 16.33 9.79 16.33 2.88-3.46 1.35-10.37 1.35-10.37 7.79-17.76 38.45 1.18 51.48 5.63-11.06 28.61-42.93 14.15-42.93 14.15.96-3.85 12.09-8.65 12.09-8.65-12.29-2.49-21.51 5.19-21.51 5.19-36.87-2.69-65.67 12.97-65.67 12.97-3.8-2.72-9.83-12.14-12.45-16.45-.96 13.82 6.05 20.26 6.05 20.26s-16.44 15.97-42.13 13.44c.55-2.13 27.5-26.22 5.83-32.07 14.04 9.98-8.5 23.05-12.47 31.36-10.96-2.26-32.14-11.54-37.41-49.34 34.11-27.38 112.22-42.02 118.6-69.28-30.35 34.76-30.35-2.3-30.35-2.3-.85 16.35-58.23 59.06-67.6 25.73-1.97-7.03-16.13-11.14-16.13-11.14 16.31 11.31 9.63 17.53 19.59 28.43-16.32 6.92-17.65 23.08-43.78 28.62-26.2-13.32-7.26-27.13-29.2-39.76 10.26 16.37 2.36 24.42 17.61 40.6-4.51-.78-45.13-9.66-31.71-75.46zm172.5-51.44c12.73-.57 28.11 9.71 33.51 5.77-15.3-2.39-15.28-16.3-33.51-5.77zm35.89 76.37c20.58-1.94 31.39 14.78 59.27 6.93-14.58 17.09-40.47-6.39-59.85-1.31-1.2 6.53-4.48 12.94-12.09 16.04 18.41 18.17-7.1 21.38-14.21 38.8-2.96-14.78 24.41-18.14 10.41-37.24-17.29 7.08-32.58 13.41-39.03 13.23 0 0 5 8.83 1.73 15.17 0 0-4.8-12.67-9.41-13.63 0 0-32.45 3.45-50.7 20.16 0 0 1.35 6.92-1.53 9.6 0 0-3.08-13.25-9.99-15.74 0 0 6.34-.19 9.41 2.69 34.39-32.75 118.94-10.37 114.46-68.56 0 0 1.76 6.38 1.53 13.87zm-59.85-38.03s18.25 5.95 19.21 14.21c0 0-2.11-10.18-6.53-13.44 11.25-22.07 53.6-23.94 63.62 2.99 2.6 7 5.17 13.53 12.62 16.02 0 0-1.73 10.94 3.84 13.82 0 0-2.11-13.05 8.64-19.78-3.5.29-7.46.89-10.17 3.27-10.89-6.74-8.16-17.53-17.09-26-16.38-15.51-56.28-16.16-67.03 5.83 0 0-2.5 0-7.11 3.08zm-19.97 23.62s-8.26-18.63 2.69-31.11c10.95-12.49 26.69-30.73 27.08-37.07 0 0-1.04 14.05-16.52 30.35-15.47 16.29-13.25 37.83-13.25 37.83z" style="fill:#ffccbc"/><path d="m239.53 154.88s4.99 9.13 14.11 7.21c0 0-5.09 3.93-7.58 3.16-7.64 27.05-31.5 32.33-31.82 32.01 3.6 14.26 2.99 30.94 10.07 33.91 6.19-.77 11.76 2.84 11.76 2.84-10.95-2.69-18.44 7.1-18.44 7.1-.96-3.46 2.31-7.68 2.31-7.68-2.5-1.54-6.92-16.52-6.92-16.52-7.27 13.99-47.63 1.93-46.66 37.64 4.8 2.31 5.76 9.22 5.76 9.22-3.08-6.14-19.98-5.38-19.98-5.38 4.61-4.32 8.07-5.08 8.07-5.08 6.38-44.38 34.68-21.07 51.85-42.64-.33-27.22-21.89-33.78-27.73-35.06-6.86 11.04-17.97 10.49-10.68 29.11 0 0 9.61 1.53 13.83-.77-9.91 15.86-27.78-8.55-46.47 13.83 0 0 4.99-15.37 27.27-14.6-7.25-17.79 11.8-24.62 20.74-39.94-.36 2.78-2.69 9.41-2.69 9.41 15.95 1.64 23.09 10.48 26.76 20.84.16-.42 17 1.51 29.68-27.95 0 0-4.47-4.09-3.24-10.66zm51.13 12.8c12.73-.57 28.11 9.71 33.51 5.77-15.3-2.39-15.28-16.3-33.51-5.77zm35.89 76.37c20.58-1.94 31.39 14.78 59.27 6.93-14.58 17.09-40.47-6.39-59.85-1.31-1.2 6.53-4.48 12.94-12.09 16.04 18.41 18.17-7.1 21.38-14.21 38.8-2.96-14.78 24.41-18.14 10.41-37.24-17.29 7.08-32.58 13.41-39.03 13.23 0 0 5 8.83 1.73 15.17 0 0-4.8-12.67-9.41-13.63 0 0-32.45 3.45-50.7 20.16 0 0 1.35 6.92-1.53 9.6 0 0-3.08-13.25-9.99-15.74 0 0 6.34-.19 9.41 2.69 34.39-32.75 118.94-10.37 114.46-68.56 0 0 1.76 6.38 1.53 13.87zm-59.85-38.03s18.25 5.95 19.21 14.21c0 0-2.11-10.18-6.53-13.44 11.25-22.07 53.6-23.94 63.62 2.99 2.6 7 5.17 13.53 12.62 16.02 0 0-1.73 10.94 3.84 13.82 0 0-2.11-13.05 8.64-19.78-3.5.29-7.46.89-10.17 3.27-10.89-6.74-8.16-17.53-17.09-26-16.38-15.51-56.28-16.16-67.03 5.83 0 0-2.5 0-7.11 3.08zm-19.97 23.62s-8.26-18.63 2.69-31.11c10.95-12.49 26.69-30.73 27.08-37.07 0 0-1.04 14.05-16.52 30.35-15.47 16.29-13.25 37.83-13.25 37.83zm82.38 61.59s7.49 1.16 8.45 3.27c14.6-24.44 36.94 1.92 55.6 3.93 4.82-17.67 1.69-33.17-4.14-50.12 16.72 21.79 15.26 71.71-14.04 82.46 0 0-10.09.24-35.29-7.44-25.21-7.68-66.26 12.48-66.26 12.48-3.36 3.36-17.31 9.13-17.31 9.13-79.74 24.48-79.91-50.9-79.91-50.9s-27.15 17.34-50.67-4.26c-23.53-21.61-11.96-52.13-7.38-70.66-13.42 65.8 27.2 74.68 31.71 75.46-15.25-16.18-7.35-24.23-17.61-40.6 21.94 12.63 3 26.44 29.2 39.76 26.13-5.54 27.46-21.7 43.78-28.62-9.96-10.9-3.28-17.12-19.59-28.43 0 0 14.16 4.11 16.13 11.14 9.37 33.33 66.75-9.38 67.6-25.73 0 0 0 37.06 30.35 2.3-6.38 27.26-84.49 41.9-118.6 69.28 5.27 37.8 26.45 47.08 37.41 49.34 3.97-8.31 26.51-21.38 12.47-31.36 21.67 5.85-5.28 29.94-5.83 32.07 25.69 2.53 42.13-13.44 42.13-13.44s-7.01-6.44-6.05-20.26c2.62 4.31 8.65 13.73 12.45 16.45 0 0 28.8-15.66 65.67-12.97 0 0 9.22-7.68 21.51-5.19 0 0-11.13 4.8-12.09 8.65 0 0 31.87 14.46 42.93-14.15-13.03-4.45-43.69-23.39-51.48-5.63 0 0 1.53 6.91-1.35 10.37 0 0 1.35-10.37-9.79-16.33z" style="fill:#e57373"/><path d="m240.83 154.14c.01.03 4.47 8.17 12.51 6.48l6.5-1.37c-2.7 2.06-8.63 7.17-12.68 7.56-4.8 15.72-17.43 28.33-31.1 31.57 1.91 8.26 3.65 30.3 8.5 31.26 6.55-.62 12.29 3.09 12.31 3.1l7.82 4.92-8.98-2.2c-10.47-2.57-17.01 6.72-18.73 8.9-1.22-4.38-1.75-6.27 1.07-10.81-2.01-2.84-4.34-9.52-5.58-13.36-6.94 7.11-23.58 5.91-34.52 12.72 5.4 1.56 22.76 5.58 25.27 14.52 8.76 31.16 63.89-10.46 64.67-25.41l2.99.07c0 .09-.01 33.1 27.72 1.33l3.96-4.53-1.38 5.85c-6.56 28.04-84.44 42.89-118.45 69.58 3.7 25.03 15.7 42.43 35.03 47 5.17-8.51 24.24-20.01 12.38-28.44l-6.81-4.85c9.38 2.54 20.25 4.01 17.1 15.66-1.86 6.89-8.55 14.37-12.38 18.75 19.75.96 33.34-9.08 37.15-12.27-2.05-2.56-6.2-9.2-5.44-20.24l.33-4.71c2.94 4.85 9.35 15.6 13.79 19.49 4.98-2.5 30.66-14.49 63.01-12.85.47-4.03 2.67-13.34-8.48-19.31l-8.04-4.29c3.73.62 13.19 1.75 16.85 3.96 15.12-22.8 36.99 1.56 54.83 4.55 2.06-8.16 2.39-15.87 1.54-23.5-.83-7.52-1.97-17.19-4.57-24.96l-2.07 3.65c-9.13 10.7-21.93 6.74-35.05 2.68-8.51-2.64-17.17-5.31-24.65-3.73-1.39 6.44-4.69 12.03-10.83 15.27 16.81 18.14-8.69 22.54-15.37 38.89l-1.88 4.6c-2-10.04-2.24-12.03 6.51-20.88 5.09-5.14 10.19-10.29 3.86-19.69-15.08 6.22-28.89 11.81-36.18 12.75 1.36 3.2 3.35 9.47.75 14.51l-1.52 2.96c-.66-1.71-5.8-15.44-9.32-15.76-3.04.36-31.95 4.13-48.99 19.21.8 6.03-.08 8.22-4.02 11.9-.52-2.27-3.19-14.89-9.61-17.21l-7.34-2.65c4.47-.14 12.41-1.1 17.16 1.98 14.05-12.67 35.43-16.91 56-20.99 30.76-6.09 59.65-11.82 57.05-45.5l-1.11-14.46c2.26 7.8 5.6 16.55 5.65 26.61 19.48-.98 32.51 14.81 57.35 7.09l4.8-2.13c17.29 22.52 15.63 73.64-14.72 84.77-.55.2-10.45.44-36.24-7.42-23.64-7.2-61.81 10.79-64.95 12.3-3.85 3.57-17.58 9.24-17.62 9.26l-.13.05c-72.96 22.4-80.87-36.82-81.73-49.83-7.04 3.63-29.94 13.03-50.3-5.66-23.78-21.85-12.98-51.2-7.81-72.11l1.45.35c-3.59 17.66-1.88 46.97 10.27 61.14 5.84 6.8 12.63 10.09 17.12 11.63-11.27-14.18-5.29-22.35-14.55-37.12l-3.19-5.08c13.2 7.6 16.38 10.09 18.74 22.68 1.24 6.56 2.49 13.23 15.12 19.79 14.72-3.24 21.25-10.04 27.39-16.43 4.03-4.2 7.91-8.24 13.75-11.14-8.41-10.33-2.9-16.19-18.01-26.67l-7.05-4.89c-5.84 3.71-9.99 9.76-9.91 20.64 6.04 3.75 6.3 13.56 7.12 19.13l-4.18-8.36c-2.79-5.58-19.57-4.51-22.58-4.4 4.01-3.76 6.66-6.35 10.67-7.87 4.15-27.02 16.4-29.19 29.37-31.48 7.82-1.38 15.93-2.81 22.32-10.54-.22-9.5-3.13-16.31-6.99-21.2-6.06-7.65-14.49-10.61-18.56-11.64-6.81 10.06-16.29 9.9-10.27 26.05 9.26 1.18 10.32.21 17.04-3.45-6.62 10.58-8.1 12.87-22.27 10.37-16.94-2.98-20.76.56-32.42 14.52l2.5-7.49c.01-.05 5.01-15.4 26.54-15.65-5.5-17.39 13.08-24.58 21.59-39.17l3.7-6.35c-.88 6.98-.71 8.12-3.08 15.25 13.28 1.9 21.34 9 25.74 20.46 3.77-.38 16.57-2.64 26.93-26.02-4.03-4.85-3.42-8.7-2.2-15.24zm-26.59 43.12c3.6 14.26 2.99 30.94 10.07 33.91 6.19-.77 11.75 2.83 11.76 2.84-10.95-2.69-18.44 7.1-18.44 7.1-.96-3.46 2.31-7.68 2.31-7.68-2.5-1.54-6.92-16.52-6.92-16.52-7.27 13.99-47.63 1.93-46.66 37.64 4.79 2.31 5.76 9.22 5.76 9.22-3.08-6.14-19.98-5.38-19.98-5.38 4.61-4.32 8.07-5.08 8.07-5.08 6.38-44.38 34.68-21.07 51.85-42.64-.33-27.22-21.89-33.78-27.73-35.06-6.86 11.04-17.97 10.49-10.68 29.11 0 0 9.61 1.53 13.83-.77-9.91 15.86-27.78-8.55-46.47 13.83 0 0 4.99-15.37 27.27-14.6-7.25-17.79 11.8-24.62 20.74-39.94-.36 2.78-2.69 9.41-2.69 9.41 15.95 1.64 23.09 10.48 26.76 20.84.16-.42 17 1.51 29.68-27.95 0 0-4.47-4.09-3.24-10.66 0 0 4.99 9.13 14.11 7.21 0 0-5.09 3.93-7.58 3.16-7.64 27.05-31.5 32.33-31.82 32.01zm76.42-29.58c12.73-.57 28.11 9.71 33.51 5.77-15.3-2.39-15.28-16.3-33.51-5.77zm95.16 83.3c-14.58 17.09-40.47-6.39-59.85-1.31-1.2 6.53-4.48 12.94-12.09 16.04 18.41 18.17-7.1 21.38-14.21 38.8-2.96-14.78 24.41-18.14 10.41-37.24-17.29 7.08-32.58 13.41-39.03 13.23 0 0 5 8.83 1.73 15.17 0 0-4.8-12.67-9.41-13.63 0 0-32.45 3.45-50.7 20.16 0 0 1.35 6.92-1.53 9.6 0 0-3.08-13.25-9.99-15.74 0 0 6.34-.19 9.41 2.69 34.39-32.75 118.94-10.37 114.46-68.56 0 0 1.76 6.38 1.53 13.87v-.01c20.58-1.94 31.39 14.78 59.27 6.93zm-100.26-32.21c.17.48.29.96.35 1.46 0 0-.12-.56-.35-1.46zm0 0c-.77-2.93-2.8-9.49-6.18-11.98 11.25-22.07 53.6-23.94 63.62 2.99 2.6 7 5.17 13.54 12.62 16.02 0 0-1.73 10.94 3.84 13.82 0 0-2.11-13.05 8.64-19.78-3.5.29-7.46.89-10.17 3.27-10.89-6.74-8.16-17.53-17.09-26-16.38-15.51-56.27-16.16-67.03 5.83 0 0-2.5 0-7.11 3.08 0 0 16.13 5.26 18.86 12.75zm-38.83 10.87c0-.01-8.25-18.63 2.69-31.11 10.69-12.2 25.97-29.89 27.03-36.61-.33 2.54-2.63 15.31-16.47 29.89-15.47 16.29-13.25 37.82-13.25 37.83zm29.72-67.72c.02-.16.04-.31.05-.46zm52.66 129.31s7.49 1.16 8.45 3.27c14.6-24.44 36.94 1.92 55.6 3.93 4.82-17.67 1.69-33.17-4.14-50.12 16.72 21.79 15.26 71.71-14.04 82.46 0 0-10.09.24-35.29-7.44-25.21-7.68-66.26 12.48-66.26 12.48-3.36 3.36-17.31 9.13-17.31 9.13-79.73 24.48-79.91-50.89-79.91-50.9-.01.01-27.15 17.34-50.67-4.26-23.53-21.61-11.96-52.13-7.38-70.66-13.42 65.8 27.2 74.68 31.71 75.46-15.25-16.18-7.35-24.23-17.61-40.6 21.94 12.63 3 26.44 29.2 39.76 26.13-5.54 27.46-21.7 43.78-28.62-9.96-10.9-3.28-17.12-19.59-28.43 0 0 14.16 4.11 16.13 11.14 9.37 33.33 66.75-9.38 67.6-25.73 0 0 0 37.06 30.35 2.3-6.38 27.26-84.49 41.9-118.6 69.28 5.27 37.8 26.45 47.08 37.41 49.34 3.97-8.31 26.51-21.38 12.47-31.36 21.67 5.85-5.28 29.94-5.83 32.07 25.69 2.53 42.13-13.44 42.13-13.44s-7.01-6.44-6.05-20.26c2.62 4.31 8.65 13.73 12.45 16.45 0 0 28.8-15.66 65.67-12.97 0 0 9.22-7.68 21.51-5.19 0 0-11.13 4.8-12.09 8.65 0 0 31.87 14.46 42.93-14.15-13.03-4.45-43.69-23.39-51.48-5.63 0 0 1.53 6.91-1.35 10.37 0 0 1.35-10.37-9.79-16.33zm-20.26-118.26c-12.02-3.95-13.08-4.02-24.25-3.51 13.39-7.74 17.48-10.19 27.93-2.87 6.07 4.25 7.66 4.72 15.44 5.94-5.95 4.34-6.78 4.51-19.12.44zm-21.83 45.48.38 1.61-2.96.46c-1.48-8.15-18.35-13.13-21.14-14.04 3.68-2.45 6.3-4.26 9.52-4.91 11.15-21.82 51.86-21.83 69.05-5.54 8.98 8.51 6.68 18.81 15.98 25.24 4.25-2.99 11.05-2.99 16.27-3.42l-5.23 3.27c-10.38 6.49-7.92 18.44-7.5 21.19l-2.61-1.35c-5.25-2.72-5.07-10.96-4.79-14.13-6.59-1.81-10.36-11.05-12.39-16.53-9.39-25.24-48.88-23.84-60.33-3.85 3.15 3.17 5.02 9.2 5.75 12zm-41.66 11.79c-.02-.05-8.64-19.5 2.94-32.7 5.92-6.75 25.62-28.63 26.7-36.21l2.99.22c0 .08-1.06 14.58-16.92 31.29-15 15.79-12.85 36.6-12.85 36.66l.88 9.26zm91.89 81.63 1.67.11c2.13-1.57 10.97-7.42 22.27-5.12l4.58.93c-2.96 1.32-12.19 5.12-14.89 8.41 6.08 2.29 29.35 9.36 38.87-12.51-2.37-.9-5.19-2.16-8.28-3.53-14.05-6.23-33.79-15-39.66-2.78.3 1.75 1.09 7.72-1.76 11.13z" style="fill:#212121"/></svg>