<svg height="512" style="shape-rendering:geometricPrecision;text-rendering:geometricPrecision;image-rendering:optimizeQuality;fill-rule:evenodd;clip-rule:evenodd" viewBox="0 0 512 512" width="512" xmlns="http://www.w3.org/2000/svg"><circle cx="256" cy="256" r="256" style="fill:none"/><path d="m397.96 176.83-62.79-62.79c-2.94-2.94-8.34-2.7-12.02.98l-67.2 67.2 73.83 73.83 67.2-67.2c3.68-3.44 4.17-8.83.98-12.02zm-215.84 79.22-67.2 67.2c-3.43 3.44-3.92 8.83-.98 12.02l62.79 62.79c2.94 2.94 8.34 2.7 12.02-.98l67.2-67.2zm155.26-114.05c0-4.6-3.74-8.34-8.34-8.34-4.61 0-8.34 3.74-8.34 8.34 0 4.61 3.73 8.34 8.34 8.34 4.6 0 8.34-3.73 8.34-8.34zm20.35 20.6c0-4.6-3.73-8.34-8.33-8.34-4.61 0-8.34 3.74-8.34 8.34 0 4.61 3.73 8.34 8.34 8.34 4.6 0 8.33-3.73 8.33-8.34zm20.61 20.36c0-4.61-3.74-8.34-8.34-8.34-4.61 0-8.34 3.73-8.34 8.34s3.73 8.34 8.34 8.34c4.6 0 8.34-3.73 8.34-8.34zm-60.83-21.09c0-4.61-3.73-8.34-8.34-8.34-4.6 0-8.34 3.73-8.34 8.34 0 4.6 3.74 8.34 8.34 8.34 4.61 0 8.34-3.74 8.34-8.34zm20.36 20.6c0-4.61-3.73-8.34-8.34-8.34-4.6 0-8.34 3.73-8.34 8.34 0 4.6 3.74 8.34 8.34 8.34 4.61 0 8.34-3.74 8.34-8.34zm20.6 20.36c0-4.61-3.73-8.34-8.34-8.34-4.6 0-8.34 3.73-8.34 8.34 0 4.6 3.74 8.33 8.34 8.33 4.61 0 8.34-3.73 8.34-8.33zm-60.83-21.1c0-4.6-3.73-8.33-8.33-8.33-4.61 0-8.34 3.73-8.34 8.33 0 4.61 3.73 8.34 8.34 8.34 4.6 0 8.33-3.73 8.33-8.34zm20.36 20.61c0-4.61-3.73-8.34-8.34-8.34-4.6 0-8.34 3.73-8.34 8.34 0 4.6 3.74 8.33 8.34 8.33 4.61 0 8.34-3.73 8.34-8.33zm20.6 20.35c0-4.6-3.73-8.33-8.33-8.33-4.61 0-8.34 3.73-8.34 8.33 0 4.61 3.73 8.34 8.34 8.34 4.6 0 8.33-3.73 8.33-8.34zm-148.63 66.72c0-4.61-3.73-8.34-8.34-8.34-4.6 0-8.33 3.73-8.33 8.34 0 4.6 3.73 8.33 8.33 8.33 4.61 0 8.34-3.73 8.34-8.33zm20.61 20.35c0-4.6-3.74-8.34-8.34-8.34-4.61 0-8.34 3.74-8.34 8.34 0 4.61 3.73 8.34 8.34 8.34 4.6 0 8.34-3.73 8.34-8.34zm20.35 20.61c0-4.61-3.73-8.34-8.34-8.34-4.6 0-8.33 3.73-8.33 8.34 0 4.6 3.73 8.33 8.33 8.33 4.61 0 8.34-3.73 8.34-8.33zm-60.82-21.1c0-4.6-3.74-8.34-8.34-8.34-4.61 0-8.34 3.74-8.34 8.34 0 4.61 3.73 8.34 8.34 8.34 4.6 0 8.34-3.73 8.34-8.34zm20.6 20.36c0-4.61-3.73-8.34-8.34-8.34s-8.34 3.73-8.34 8.34 3.73 8.34 8.34 8.34 8.34-3.73 8.34-8.34zm20.36 20.6c0-4.6-3.74-8.34-8.34-8.34-4.61 0-8.34 3.74-8.34 8.34 0 4.61 3.73 8.34 8.34 8.34 4.6 0 8.34-3.73 8.34-8.34zm-60.83-21.09c0-4.61-3.73-8.34-8.34-8.34-4.6 0-8.34 3.73-8.34 8.34 0 4.6 3.74 8.34 8.34 8.34 4.61 0 8.34-3.74 8.34-8.34zm20.6 20.36c0-4.61-3.73-8.34-8.34-8.34-4.6 0-8.33 3.73-8.33 8.34 0 4.6 3.73 8.33 8.33 8.33 4.61 0 8.34-3.73 8.34-8.33zm20.36 20.6c0-4.61-3.73-8.34-8.34-8.34-4.6 0-8.34 3.73-8.34 8.34 0 4.6 3.74 8.34 8.34 8.34 4.61 0 8.34-3.74 8.34-8.34z" style="fill:#ffcc80"/><path d="m257.01 183.28 67.2-67.2c1.55-1.55 3.44-2.38 5.25-2.53 1.78-.15 3.48.38 4.65 1.55l62.79 62.79.14.14c1.16 1.24 1.65 2.88 1.51 4.56-.14 1.74-.94 3.52-2.37 4.95-22.24 22-45.34 45.33-67.46 67.45l1.06 1.06 67.2-67.2c3.68-3.44 4.17-8.83.98-12.02l-62.79-62.79c-2.94-2.94-8.34-2.7-12.02.98l-67.2 67.2zm-1.06 146.6-67.2 67.2c-3.68 3.68-9.08 3.92-12.02.98l-62.79-62.79c-2.94-3.19-2.45-8.58.98-12.02l67.2-67.2 1.06 1.06-67.2 67.2c-1.46 1.46-2.3 3.34-2.45 5.19-.14 1.74.33 3.45 1.47 4.71l62.79 62.79c1.17 1.17 2.87 1.7 4.65 1.55 1.81-.15 3.7-.98 5.25-2.53l67.2-67.2zm81.43-187.88c0-4.6-3.74-8.34-8.34-8.34-4.61 0-8.34 3.74-8.34 8.34 0 4.61 3.73 8.34 8.34 8.34 4.6 0 8.34-3.73 8.34-8.34zm20.35 20.6c0-4.6-3.73-8.34-8.33-8.34-4.61 0-8.34 3.74-8.34 8.34 0 4.61 3.73 8.34 8.34 8.34 4.6 0 8.33-3.73 8.33-8.34zm20.61 20.36c0-4.61-3.74-8.34-8.34-8.34-4.61 0-8.34 3.73-8.34 8.34s3.73 8.34 8.34 8.34c4.6 0 8.34-3.73 8.34-8.34zm-60.83-21.09c0-4.61-3.73-8.34-8.34-8.34-4.6 0-8.34 3.73-8.34 8.34 0 4.6 3.74 8.34 8.34 8.34 4.61 0 8.34-3.74 8.34-8.34zm20.36 20.6c0-4.61-3.73-8.34-8.34-8.34-4.6 0-8.34 3.73-8.34 8.34 0 4.6 3.74 8.34 8.34 8.34 4.61 0 8.34-3.74 8.34-8.34zm20.6 20.36c0-4.61-3.73-8.34-8.34-8.34-4.6 0-8.34 3.73-8.34 8.34 0 4.6 3.74 8.33 8.34 8.33 4.61 0 8.34-3.73 8.34-8.33zm-60.83-21.1c0-4.6-3.73-8.33-8.33-8.33-4.61 0-8.34 3.73-8.34 8.33 0 4.61 3.73 8.34 8.34 8.34 4.6 0 8.33-3.73 8.33-8.34zm20.36 20.61c0-4.61-3.73-8.34-8.34-8.34-4.6 0-8.34 3.73-8.34 8.34 0 4.6 3.74 8.33 8.34 8.33 4.61 0 8.34-3.73 8.34-8.33zm20.6 20.35c0-4.6-3.73-8.33-8.33-8.33-4.61 0-8.34 3.73-8.34 8.33 0 4.61 3.73 8.34 8.34 8.34 4.6 0 8.33-3.73 8.33-8.34zm-148.63 66.72c0-4.61-3.73-8.34-8.34-8.34-4.6 0-8.33 3.73-8.33 8.34 0 4.6 3.73 8.33 8.33 8.33 4.61 0 8.34-3.73 8.34-8.33zm20.61 20.35c0-4.6-3.74-8.34-8.34-8.34-4.61 0-8.34 3.74-8.34 8.34 0 4.61 3.73 8.34 8.34 8.34 4.6 0 8.34-3.73 8.34-8.34zm20.35 20.61c0-4.61-3.73-8.34-8.34-8.34-4.6 0-8.33 3.73-8.33 8.34 0 4.6 3.73 8.33 8.33 8.33 4.61 0 8.34-3.73 8.34-8.33zm-60.82-21.1c0-4.6-3.74-8.34-8.34-8.34-4.61 0-8.34 3.74-8.34 8.34 0 4.61 3.73 8.34 8.34 8.34 4.6 0 8.34-3.73 8.34-8.34zm20.6 20.36c0-4.61-3.73-8.34-8.34-8.34s-8.34 3.73-8.34 8.34 3.73 8.34 8.34 8.34 8.34-3.73 8.34-8.34zm20.36 20.6c0-4.6-3.74-8.34-8.34-8.34-4.61 0-8.34 3.74-8.34 8.34 0 4.61 3.73 8.34 8.34 8.34 4.6 0 8.34-3.73 8.34-8.34zm-60.83-21.09c0-4.61-3.73-8.34-8.34-8.34-4.6 0-8.34 3.73-8.34 8.34 0 4.6 3.74 8.34 8.34 8.34 4.61 0 8.34-3.74 8.34-8.34zm20.6 20.36c0-4.61-3.73-8.34-8.34-8.34-4.6 0-8.33 3.73-8.33 8.34 0 4.6 3.73 8.33 8.33 8.33 4.61 0 8.34-3.73 8.34-8.33zm20.36 20.6c0-4.61-3.73-8.34-8.34-8.34-4.6 0-8.34 3.73-8.34 8.34 0 4.6 3.74 8.34 8.34 8.34 4.61 0 8.34-3.74 8.34-8.34zm144.79-235.06.01.01c1.78 1.78 2.88 4.24 2.88 6.95s-1.1 5.17-2.88 6.95l-.01.01c-1.78 1.78-4.24 2.88-6.95 2.88s-5.17-1.1-6.95-2.89c-1.79-1.77-2.89-4.23-2.89-6.95s1.1-5.18 2.88-6.96c1.79-1.78 4.25-2.88 6.96-2.88s5.17 1.1 6.95 2.88zm20.36 20.61c1.78 1.79 2.88 4.24 2.88 6.95s-1.1 5.17-2.88 6.95v.01c-1.79 1.78-4.24 2.88-6.95 2.88s-5.17-1.1-6.96-2.88c-1.78-1.78-2.88-4.24-2.88-6.96 0-2.71 1.1-5.17 2.88-6.95 1.79-1.78 4.25-2.89 6.96-2.89s5.16 1.11 6.95 2.89zm20.6 20.35.01.01c1.78 1.78 2.88 4.24 2.88 6.95s-1.1 5.17-2.89 6.95c-1.77 1.79-4.23 2.89-6.95 2.89s-5.18-1.1-6.96-2.88-2.88-4.24-2.88-6.96 1.1-5.18 2.88-6.96c1.79-1.78 4.25-2.88 6.96-2.88s5.17 1.1 6.95 2.88zm-60.83-21.09.01.01c1.78 1.78 2.88 4.24 2.88 6.95s-1.1 5.17-2.88 6.95c-1.79 1.78-4.24 2.89-6.96 2.89-2.71 0-5.17-1.11-6.95-2.89s-2.89-4.24-2.89-6.95c0-2.72 1.11-5.18 2.89-6.96s4.24-2.88 6.95-2.88 5.17 1.1 6.95 2.88zm20.36 20.6.01.01c1.78 1.78 2.88 4.24 2.88 6.95s-1.1 5.17-2.89 6.95c-1.77 1.79-4.23 2.89-6.95 2.89s-5.18-1.1-6.96-2.88-2.88-4.24-2.88-6.96 1.1-5.18 2.88-6.96c1.79-1.78 4.25-2.88 6.96-2.88s5.17 1.1 6.95 2.88zm20.6 20.36.01.01c1.78 1.78 2.88 4.24 2.88 6.95s-1.1 5.17-2.88 6.95-4.24 2.88-6.96 2.88c-2.71 0-5.17-1.1-6.95-2.88s-2.89-4.24-2.89-6.95c0-2.72 1.11-5.18 2.89-6.96s4.24-2.88 6.95-2.88 5.17 1.1 6.95 2.88zm-60.82-21.09c1.78 1.78 2.88 4.24 2.88 6.95 0 2.72-1.1 5.18-2.88 6.96s-4.24 2.88-6.95 2.88c-2.72 0-5.18-1.1-6.96-2.88s-2.88-4.24-2.88-6.96c0-2.71 1.1-5.17 2.88-6.95s4.24-2.88 6.96-2.88c2.71 0 5.17 1.1 6.95 2.88zm20.36 20.6c1.78 1.78 2.88 4.24 2.88 6.96 0 2.71-1.1 5.17-2.88 6.95s-4.24 2.88-6.96 2.88c-2.71 0-5.16-1.1-6.95-2.88-1.78-1.79-2.89-4.24-2.89-6.95s1.11-5.17 2.89-6.96c1.78-1.78 4.24-2.88 6.95-2.88 2.72 0 5.18 1.1 6.96 2.88zm20.6 20.36c1.78 1.78 2.88 4.24 2.88 6.95 0 2.72-1.1 5.18-2.88 6.96s-4.24 2.88-6.95 2.88c-2.72 0-5.18-1.1-6.96-2.88s-2.88-4.24-2.88-6.96c0-2.71 1.1-5.17 2.88-6.95s4.24-2.88 6.96-2.88c2.71 0 5.17 1.1 6.95 2.88zm-148.63 66.71c1.78 1.78 2.88 4.24 2.88 6.96 0 2.71-1.1 5.17-2.88 6.95s-4.24 2.88-6.96 2.88c-2.7 0-5.16-1.1-6.95-2.88-1.78-1.79-2.88-4.24-2.88-6.95s1.1-5.17 2.88-6.96c1.78-1.78 4.24-2.88 6.95-2.88 2.72 0 5.18 1.1 6.96 2.88zm20.6 20.36c1.78 1.78 2.89 4.24 2.89 6.95 0 2.72-1.11 5.18-2.89 6.96s-4.24 2.88-6.95 2.88-5.17-1.1-6.95-2.88l-.01-.01c-1.78-1.78-2.88-4.24-2.88-6.95s1.1-5.17 2.88-6.95 4.24-2.89 6.96-2.89c2.71 0 5.17 1.11 6.95 2.89zm20.36 20.6c1.78 1.78 2.88 4.24 2.88 6.96 0 2.71-1.1 5.17-2.88 6.95-1.79 1.78-4.25 2.88-6.96 2.88s-5.16-1.1-6.95-2.88c-1.78-1.79-2.88-4.25-2.88-6.95 0-2.72 1.1-5.18 2.88-6.96s4.24-2.88 6.95-2.88c2.72 0 5.18 1.1 6.96 2.88zm-60.83-21.09c1.78 1.78 2.89 4.24 2.89 6.95 0 2.72-1.11 5.18-2.89 6.96s-4.24 2.88-6.95 2.88-5.17-1.1-6.96-2.88c-1.78-1.78-2.88-4.24-2.88-6.96 0-2.71 1.1-5.17 2.88-6.95 1.79-1.78 4.25-2.89 6.96-2.89s5.17 1.11 6.95 2.89zm20.61 20.35c1.78 1.78 2.88 4.24 2.88 6.96 0 2.71-1.1 5.17-2.89 6.95-1.77 1.79-4.23 2.89-6.95 2.89s-5.18-1.1-6.96-2.88-2.88-4.24-2.88-6.96 1.1-5.18 2.88-6.96c1.79-1.78 4.25-2.88 6.96-2.88 2.72 0 5.18 1.1 6.96 2.88zm20.35 20.61c1.78 1.78 2.89 4.24 2.89 6.95s-1.11 5.17-2.89 6.96c-1.78 1.78-4.24 2.88-6.95 2.88-2.72 0-5.18-1.1-6.96-2.88s-2.88-4.24-2.88-6.96c0-2.71 1.1-5.17 2.88-6.95 1.79-1.78 4.25-2.89 6.96-2.89s5.17 1.11 6.95 2.89zm-60.82-21.1c1.78 1.78 2.88 4.24 2.88 6.96s-1.1 5.18-2.88 6.96-4.24 2.88-6.96 2.88c-2.71 0-5.17-1.1-6.95-2.88-1.78-1.79-2.89-4.25-2.89-6.96s1.11-5.17 2.89-6.96c1.78-1.78 4.24-2.88 6.95-2.88s5.17 1.1 6.96 2.88zm20.6 20.36c1.78 1.78 2.88 4.24 2.88 6.96 0 2.71-1.1 5.17-2.88 6.95-1.79 1.78-4.25 2.88-6.96 2.88s-5.16-1.1-6.95-2.88c-1.78-1.79-2.88-4.25-2.88-6.95 0-2.72 1.1-5.17 2.88-6.96 1.78-1.78 4.24-2.88 6.95-2.88s5.17 1.1 6.96 2.88zm20.36 20.6c1.78 1.78 2.88 4.24 2.88 6.96 0 2.71-1.1 5.17-2.88 6.95-1.79 1.78-4.25 2.89-6.96 2.89s-5.17-1.1-6.95-2.89h-.01c-1.78-1.78-2.88-4.24-2.88-6.95s1.1-5.17 2.89-6.96c1.77-1.78 4.23-2.88 6.95-2.88s5.18 1.1 6.96 2.88z" style="fill:#212121"/><path d="m176.73 114.04-62.79 62.79c-2.94 2.94-2.7 8.34.98 12.02l208.23 208.23c3.44 3.43 8.83 3.92 12.02.98l62.79-62.79c2.94-2.94 2.7-8.34-.98-12.02l-208.23-208.23c-3.44-3.68-8.83-4.17-12.02-.98zm69.07 83.69-50.47 50.47 73.01 73.01 50.47-50.46zm-95.56-14.77c0-4.61-3.73-8.34-8.34-8.34-4.6 0-8.34 3.73-8.34 8.34s3.74 8.34 8.34 8.34c4.61 0 8.34-3.73 8.34-8.34zm20.6-20.36c0-4.6-3.73-8.34-8.34-8.34-4.6 0-8.33 3.74-8.33 8.34 0 4.61 3.73 8.34 8.33 8.34 4.61 0 8.34-3.73 8.34-8.34zm20.36-20.6c0-4.6-3.73-8.34-8.34-8.34-4.6 0-8.34 3.74-8.34 8.34 0 4.61 3.74 8.34 8.34 8.34 4.61 0 8.34-3.73 8.34-8.34zm-21.09 60.83c0-4.61-3.74-8.34-8.34-8.34-4.61 0-8.34 3.73-8.34 8.34 0 4.6 3.73 8.33 8.34 8.33 4.6 0 8.34-3.73 8.34-8.33zm20.6-20.36c0-4.61-3.73-8.34-8.34-8.34s-8.34 3.73-8.34 8.34c0 4.6 3.73 8.34 8.34 8.34s8.34-3.74 8.34-8.34zm20.36-20.6c0-4.61-3.74-8.34-8.34-8.34-4.61 0-8.34 3.73-8.34 8.34 0 4.6 3.73 8.34 8.34 8.34 4.6 0 8.34-3.74 8.34-8.34zm-21.1 60.82c0-4.6-3.73-8.33-8.34-8.33-4.6 0-8.33 3.73-8.33 8.33 0 4.61 3.73 8.34 8.33 8.34 4.61 0 8.34-3.73 8.34-8.34zm20.61-20.35c0-4.61-3.74-8.34-8.34-8.34-4.61 0-8.34 3.73-8.34 8.34 0 4.6 3.73 8.33 8.34 8.33 4.6 0 8.34-3.73 8.34-8.33zm20.35-20.61c0-4.6-3.73-8.33-8.34-8.33-4.6 0-8.33 3.73-8.33 8.33 0 4.61 3.73 8.34 8.33 8.34 4.61 0 8.34-3.73 8.34-8.34zm66.71 148.64c0-4.61-3.73-8.34-8.33-8.34-4.61 0-8.34 3.73-8.34 8.34 0 4.6 3.73 8.33 8.34 8.33 4.6 0 8.33-3.73 8.33-8.33zm20.36-20.61c0-4.6-3.73-8.34-8.34-8.34-4.6 0-8.34 3.74-8.34 8.34 0 4.61 3.74 8.34 8.34 8.34 4.61 0 8.34-3.73 8.34-8.34zm20.6-20.35c0-4.61-3.73-8.34-8.33-8.34-4.61 0-8.34 3.73-8.34 8.34 0 4.6 3.73 8.33 8.34 8.33 4.6 0 8.33-3.73 8.33-8.33zm-21.09 60.82c0-4.6-3.73-8.34-8.34-8.34-4.6 0-8.34 3.74-8.34 8.34 0 4.61 3.74 8.34 8.34 8.34 4.61 0 8.34-3.73 8.34-8.34zm20.36-20.6c0-4.61-3.73-8.34-8.34-8.34-4.6 0-8.34 3.73-8.34 8.34s3.74 8.34 8.34 8.34c4.61 0 8.34-3.73 8.34-8.34zm20.6-20.36c0-4.6-3.73-8.34-8.34-8.34-4.6 0-8.34 3.74-8.34 8.34 0 4.61 3.74 8.34 8.34 8.34 4.61 0 8.34-3.73 8.34-8.34zm-21.09 60.83c0-4.61-3.74-8.34-8.34-8.34-4.61 0-8.34 3.73-8.34 8.34 0 4.6 3.73 8.34 8.34 8.34 4.6 0 8.34-3.74 8.34-8.34zm20.35-20.6c0-4.61-3.73-8.34-8.33-8.34-4.61 0-8.34 3.73-8.34 8.34 0 4.6 3.73 8.33 8.34 8.33 4.6 0 8.33-3.73 8.33-8.33zm20.61-20.36c0-4.61-3.74-8.34-8.34-8.34-4.61 0-8.34 3.73-8.34 8.34 0 4.6 3.73 8.34 8.34 8.34 4.6 0 8.34-3.74 8.34-8.34z" style="fill:#ffe0b2"/><path d="m177.79 115.1-62.79 62.79c-1.17 1.17-1.7 2.87-1.55 4.65.15 1.81.98 3.7 2.53 5.25l208.23 208.23c1.47 1.46 3.35 2.3 5.19 2.45 1.74.14 3.45-.33 4.71-1.47l62.79-62.79c1.17-1.17 1.7-2.87 1.55-4.65-.15-1.81-.98-3.7-2.53-5.25-69.47-69.47-139.4-138.66-208.48-208.49-1.43-1.43-3.21-2.23-4.95-2.37-1.67-.14-3.32.35-4.56 1.51zm-1.06-1.06-62.79 62.79c-2.94 2.94-2.7 8.34.98 12.02l208.23 208.23c3.44 3.43 8.83 3.92 12.02.98l62.79-62.79c2.94-2.94 2.7-8.34-.98-12.02l-208.23-208.23c-3.44-3.68-8.83-4.17-12.02-.98zm-26.49 68.92c0-4.61-3.73-8.34-8.34-8.34-4.6 0-8.34 3.73-8.34 8.34s3.74 8.34 8.34 8.34c4.61 0 8.34-3.73 8.34-8.34zm20.6-20.36c0-4.6-3.73-8.34-8.34-8.34-4.6 0-8.33 3.74-8.33 8.34 0 4.61 3.73 8.34 8.33 8.34 4.61 0 8.34-3.73 8.34-8.34zm20.36-20.6c0-4.6-3.73-8.34-8.34-8.34-4.6 0-8.34 3.74-8.34 8.34 0 4.61 3.74 8.34 8.34 8.34 4.61 0 8.34-3.73 8.34-8.34zm-21.09 60.83c0-4.61-3.74-8.34-8.34-8.34-4.61 0-8.34 3.73-8.34 8.34 0 4.6 3.73 8.33 8.34 8.33 4.6 0 8.34-3.73 8.34-8.33zm20.6-20.36c0-4.61-3.73-8.34-8.34-8.34s-8.34 3.73-8.34 8.34c0 4.6 3.73 8.34 8.34 8.34s8.34-3.74 8.34-8.34zm20.36-20.6c0-4.61-3.74-8.34-8.34-8.34-4.61 0-8.34 3.73-8.34 8.34 0 4.6 3.73 8.34 8.34 8.34 4.6 0 8.34-3.74 8.34-8.34zm-21.1 60.82c0-4.6-3.73-8.33-8.34-8.33-4.6 0-8.33 3.73-8.33 8.33 0 4.61 3.73 8.34 8.33 8.34 4.61 0 8.34-3.73 8.34-8.34zm20.61-20.35c0-4.61-3.74-8.34-8.34-8.34-4.61 0-8.34 3.73-8.34 8.34 0 4.6 3.73 8.33 8.34 8.33 4.6 0 8.34-3.73 8.34-8.33zm20.35-20.61c0-4.6-3.73-8.33-8.34-8.33-4.6 0-8.33 3.73-8.33 8.33 0 4.61 3.73 8.34 8.33 8.34 4.61 0 8.34-3.73 8.34-8.34zm66.71 148.64c0-4.61-3.73-8.34-8.33-8.34-4.61 0-8.34 3.73-8.34 8.34 0 4.6 3.73 8.33 8.34 8.33 4.6 0 8.33-3.73 8.33-8.33zm20.36-20.61c0-4.6-3.73-8.34-8.34-8.34-4.6 0-8.34 3.74-8.34 8.34 0 4.61 3.74 8.34 8.34 8.34 4.61 0 8.34-3.73 8.34-8.34zm20.6-20.35c0-4.61-3.73-8.34-8.33-8.34-4.61 0-8.34 3.73-8.34 8.34 0 4.6 3.73 8.33 8.34 8.33 4.6 0 8.33-3.73 8.33-8.33zm-21.09 60.82c0-4.6-3.73-8.34-8.34-8.34-4.6 0-8.34 3.74-8.34 8.34 0 4.61 3.74 8.34 8.34 8.34 4.61 0 8.34-3.73 8.34-8.34zm20.36-20.6c0-4.61-3.73-8.34-8.34-8.34-4.6 0-8.34 3.73-8.34 8.34s3.74 8.34 8.34 8.34c4.61 0 8.34-3.73 8.34-8.34zm20.6-20.36c0-4.6-3.73-8.34-8.34-8.34-4.6 0-8.34 3.74-8.34 8.34 0 4.61 3.74 8.34 8.34 8.34 4.61 0 8.34-3.73 8.34-8.34zm-21.09 60.83c0-4.61-3.74-8.34-8.34-8.34-4.61 0-8.34 3.73-8.34 8.34 0 4.6 3.73 8.34 8.34 8.34 4.6 0 8.34-3.74 8.34-8.34zm20.35-20.6c0-4.61-3.73-8.34-8.33-8.34-4.61 0-8.34 3.73-8.34 8.34 0 4.6 3.73 8.33 8.34 8.33 4.6 0 8.33-3.73 8.33-8.33zm20.61-20.36c0-4.61-3.74-8.34-8.34-8.34-4.61 0-8.34 3.73-8.34 8.34 0 4.6 3.73 8.34 8.34 8.34 4.6 0 8.34-3.74 8.34-8.34zm-229.48-153.13c1.78 1.77 2.88 4.23 2.88 6.95s-1.1 5.18-2.88 6.96c-1.79 1.78-4.25 2.88-6.96 2.88s-5.17-1.1-6.95-2.88c-1.78-1.79-2.89-4.25-2.89-6.96s1.1-5.17 2.89-6.95v-.01c1.78-1.78 4.24-2.88 6.95-2.88s5.17 1.1 6.96 2.89zm20.6-20.36c1.78 1.78 2.88 4.24 2.88 6.95 0 2.72-1.1 5.18-2.88 6.96-1.79 1.78-4.25 2.88-6.96 2.88s-5.17-1.1-6.95-2.88c-1.78-1.79-2.88-4.25-2.88-6.96s1.1-5.16 2.88-6.95c1.79-1.78 4.24-2.89 6.95-2.89s5.17 1.11 6.96 2.89zm20.35-20.6c1.79 1.77 2.89 4.23 2.89 6.95s-1.1 5.18-2.88 6.96c-1.79 1.78-4.25 2.88-6.96 2.88-2.72 0-5.18-1.1-6.96-2.88-1.78-1.79-2.88-4.25-2.88-6.96s1.1-5.17 2.88-6.95l.01-.01c1.78-1.78 4.24-2.88 6.95-2.88s5.17 1.1 6.95 2.89zm-21.09 60.82c1.78 1.78 2.89 4.24 2.89 6.96 0 2.71-1.11 5.17-2.89 6.95s-4.24 2.88-6.95 2.88c-2.72 0-5.18-1.1-6.96-2.88s-2.88-4.24-2.88-6.95c0-2.72 1.1-5.18 2.88-6.96 1.79-1.78 4.25-2.88 6.96-2.88s5.17 1.1 6.95 2.88zm20.6-20.35c1.79 1.77 2.89 4.23 2.89 6.95 0 2.71-1.1 5.17-2.89 6.95-1.77 1.79-4.23 2.89-6.95 2.89s-5.18-1.1-6.96-2.88-2.88-4.24-2.88-6.96 1.1-5.18 2.88-6.96c1.79-1.78 4.25-2.88 6.96-2.88s5.17 1.1 6.95 2.89zm20.36-20.61c1.78 1.78 2.89 4.24 2.89 6.96 0 2.71-1.11 5.17-2.89 6.95s-4.24 2.89-6.95 2.89c-2.72 0-5.18-1.11-6.96-2.89s-2.88-4.24-2.88-6.95c0-2.72 1.1-5.18 2.88-6.96 1.79-1.78 4.25-2.88 6.96-2.88s5.17 1.1 6.95 2.88zm-21.09 60.83c1.78 1.78 2.88 4.24 2.88 6.95 0 2.72-1.1 5.18-2.88 6.96s-4.24 2.88-6.96 2.88c-2.71 0-5.17-1.1-6.95-2.88-1.78-1.79-2.88-4.25-2.88-6.96s1.1-5.17 2.88-6.95 4.24-2.88 6.95-2.88c2.72 0 5.18 1.1 6.96 2.88zm20.6-20.36c1.78 1.79 2.89 4.25 2.89 6.96s-1.11 5.16-2.89 6.95c-1.79 1.78-4.24 2.88-6.95 2.88s-5.17-1.1-6.95-2.88h-.01c-1.78-1.79-2.88-4.24-2.88-6.95s1.1-5.17 2.88-6.96c1.78-1.78 4.24-2.88 6.96-2.88 2.71 0 5.17 1.1 6.95 2.88zm20.36-20.6c1.78 1.78 2.88 4.24 2.88 6.95 0 2.72-1.1 5.18-2.88 6.96s-4.24 2.88-6.96 2.88c-2.71 0-5.17-1.1-6.95-2.88-1.78-1.79-2.88-4.25-2.88-6.96s1.1-5.17 2.88-6.95 4.24-2.88 6.95-2.88c2.72 0 5.18 1.1 6.96 2.88zm66.71 148.63c1.78 1.78 2.88 4.24 2.88 6.96 0 2.71-1.1 5.17-2.88 6.95s-4.24 2.88-6.95 2.88-5.17-1.1-6.96-2.88c-1.78-1.78-2.88-4.24-2.88-6.95 0-2.72 1.1-5.18 2.88-6.96s4.24-2.88 6.96-2.88c2.71 0 5.17 1.1 6.95 2.88zm20.36-20.6c1.78 1.78 2.88 4.24 2.88 6.95 0 2.72-1.1 5.18-2.88 6.96-1.79 1.78-4.25 2.88-6.96 2.88s-5.17-1.1-6.95-2.88-2.89-4.24-2.89-6.96c0-2.71 1.11-5.17 2.89-6.95s4.24-2.89 6.95-2.89c2.72 0 5.18 1.11 6.96 2.89zm20.6-20.36c1.78 1.78 2.88 4.24 2.88 6.96 0 2.71-1.1 5.17-2.88 6.95s-4.24 2.88-6.95 2.88-5.17-1.1-6.96-2.88c-1.78-1.78-2.88-4.24-2.88-6.95 0-2.72 1.1-5.18 2.88-6.96s4.24-2.88 6.96-2.88c2.71 0 5.17 1.1 6.95 2.88zm-21.1 60.83h.01c1.78 1.78 2.88 4.24 2.88 6.95 0 2.72-1.1 5.18-2.88 6.96-1.79 1.78-4.24 2.88-6.96 2.88-2.71 0-5.17-1.1-6.95-2.88s-2.89-4.24-2.89-6.96c0-2.71 1.11-5.17 2.89-6.95s4.24-2.89 6.95-2.89 5.17 1.1 6.95 2.89zm20.37-20.61c1.78 1.79 2.88 4.25 2.88 6.96s-1.1 5.17-2.89 6.95c-1.77 1.79-4.23 2.89-6.95 2.89s-5.18-1.1-6.96-2.88-2.88-4.24-2.88-6.96 1.1-5.18 2.88-6.96c1.79-1.78 4.25-2.88 6.96-2.88 2.72 0 5.18 1.1 6.96 2.88zm20.6-20.35c1.78 1.78 2.88 4.24 2.88 6.95s-1.1 5.17-2.88 6.95l-.01.01c-1.78 1.78-4.24 2.88-6.95 2.88s-5.17-1.1-6.95-2.88-2.89-4.24-2.89-6.96c0-2.71 1.11-5.17 2.89-6.95s4.24-2.89 6.95-2.89c2.72 0 5.18 1.11 6.96 2.89zm-21.1 60.82c1.79 1.78 2.89 4.24 2.89 6.96 0 2.71-1.1 5.17-2.88 6.95h-.01c-1.78 1.79-4.24 2.89-6.95 2.89s-5.17-1.11-6.95-2.89c-1.79-1.78-2.89-4.24-2.89-6.95 0-2.72 1.1-5.18 2.88-6.96s4.24-2.88 6.96-2.88c2.71 0 5.17 1.1 6.95 2.88zm20.36-20.6c1.78 1.79 2.88 4.25 2.88 6.96 0 2.7-1.1 5.16-2.88 6.95-1.79 1.78-4.24 2.88-6.95 2.88s-5.17-1.1-6.96-2.88c-1.78-1.78-2.88-4.24-2.88-6.95 0-2.72 1.1-5.18 2.88-6.96 1.79-1.78 4.25-2.88 6.96-2.88s5.16 1.1 6.95 2.88zm20.6-20.36c1.79 1.79 2.89 4.25 2.89 6.96s-1.11 5.17-2.89 6.95c-1.77 1.79-4.23 2.89-6.95 2.89s-5.18-1.1-6.96-2.88c-1.78-1.79-2.88-4.25-2.88-6.96 0-2.72 1.1-5.18 2.88-6.96s4.24-2.88 6.96-2.88 5.18 1.1 6.95 2.88z" style="fill:#212121"/><path d="m0 0h99.19v143.51h-99.19z" style="fill:#ffcc80" transform="matrix(-.508766 .508766 -.508766 -.508766 318.808 270.747)"/><path d="m245.8 199.86-48.35 48.34 70.89 70.89 48.35-48.34zm0-2.13-50.47 50.47 73.01 73.01 50.47-50.46z" style="fill:#212121"/></svg>