<svg height="512" style="shape-rendering:geometricPrecision;text-rendering:geometricPrecision;image-rendering:optimizeQuality;fill-rule:evenodd;clip-rule:evenodd" viewBox="0 0 512 512" width="512" xmlns="http://www.w3.org/2000/svg"><circle cx="256" cy="256" r="256" style="fill:none"/><path d="m223.31 288.02s-.4-7.38 2.99-6.58c3.4.79 7.79 7.38 8.05 8.24.27.87-.53 11.84-11.04-1.66zm79.25-143.71s-12.37-7.72-23.54-3.86c25.8 12.02 40.74 50.42 53.21 47.36 6.16-1.84 8.96-5.41 9.07-11.88.12-7.15-6.23-9.48-11.51-12.99-9.09-6.04-18.2-12.45-27.23-18.63zm-1.06 22.88s-.67-7.45-7.72-10.24c0 0-11.17-2.53-12.1-3.19-.93-.67-4.26-3.73-4.26-3.73s-1.46-.4-3.33.67l-3.59-3.46s-2.79.26-2.79 2.39.46 2.79.86 3.26 8.25 7.05 8.25 7.05l5.12.53 3.59 2.13 4.26-.26s6.52 3.99 11.71 4.85zm37.38 24.28c3.19-.93 7.18-10.64 5.85-13.44 0 0 16.63 4.13 5.32 34.19 0 0-.53-13.97-11.17-20.75zm-1.23 8.81c-7.24-4.29-10.25 9.26-21.69 7.45-5.05-.8-10.5-.53-11.17 5.06-1.22 10.23 7.11 25.94 18.36 20.48 8.78-4.25 27.87-9.91 22.75-19.15-3.83-6.91-2.8-5.84-8.25-13.84zm53.48-9.44c-.48 10.14-4.38 12.34-8.12 21.68-1.06 2.66-6.38 4.66-5.59-.93.8-5.58 11.05-15.43 13.71-20.75zm-34.22 36.68c-2.99 2.9 4 5.22 7.7 1.39.86-.89 6.78-8.09 6.98-8.77.49-1.67-1.81-1.66-2.9-.75-1.65 1.37-2.6 2.43-4.53 3.8-2.4 1.7-5.12 2.75-7.25 4.33zm-9.55 8.95s-2.46-3.93-4.26-2.86c-17.91 10.62 10.42 12.57 4.26 2.86zm-15.9 6.72s.67-3.26-3.52-3.26-6.79.46-8.32 4.32 3.73 4.46 6.12 3.86c2.4-.6 5.32-2.33 5.72-4.92zm68.71-7.59s-13.03 17.43-18.09 18.03l-.27-4.85s5.72-3.33 18.36-13.18zm-25.47 20.68s-.2-4.51-2.46-5.04c-2.27-.54-11.44.2-11.44.2s-2.47 1.5-2.4 4.84 2.66 3.74 2.66 3.74l11.91-.6s1.86-1.13 1.73-3.14zm-36.15 4.43c.52 2.7 1.06 2.38 3.87 2.49 10.63.4 8.1-10.12 2.76-7.86-1.67.71-6.34 3.52-6.63 5.37zm-8.62 0c-2.43-2.57-9.47-.05-12.22 1.05-2.96 1.19-4.62 2.41-6.34 5.11 2.86.04 14.35.55 16.18-.01 2.6-.79 3.73-3.83 2.38-6.15zm33.63 60.08c-.14-2.43-.93-6.36-3.81-6.96-1.21 1.56-.36 8.93-.27 11.19.09 2.33-.22 12.28 2.71 12.9 2.49.53 1.59-10.57 1.56-12.16-.03-1.67-.09-3.3-.19-4.97zm-24.18-39.62s-5.26-2.99-4.46 1.33c1.03 4.04 13.55 22.56 16.91 24.21 4.44 2.19 6.54-1.94 3.3-6.69-1.74-2.55-5.54-6.58-7.71-9.2-2.68-3.22-5.36-6.43-8.04-9.65zm-17.58-4.1c-2.02-.26-10.95-.34-8.29 3.74 2.45 3.78 14.21 4.24 12.94-.3-.57-2.02-2.83-2.96-4.65-3.44zm-16.54 3.03c-1.97.14-5.97.58-7.54-.73 1.08-2.96 5.77-5.07 8.6-5.82 0 .95.18 5.93-.4 6.4zm20.21 79.56s1.87-14.37-4.78-12.51l-8.39 6.39s-2.26 13.97 2.67 18.09c4.92 4.12 9.71-5.45 10.5-11.97zm-3.99-18.09-.4-16.77s-7.18-9.18-11.7-2.92l.66 13.7s2.13 9.71 11.44 5.99zm-12.11-35.42c-.27 11 9.85 9.79 8.19 1.83-.79-3.77-6.63-10.14-8.02-2.97zm-2.99-3.7s-.86-6.85-.99-7.31c-.14-.47-4.73-5.79-5.46-.6s.73 10.57.73 10.57 3.6.94 5.72-2.66zm-13.3.47s.67-6.92-1.46-7.58c-2.13-.67-4.66 3.52-4.66 3.52s2.46 5.46 6.12 4.06zm-4.39-14.9s.4-7.38-2.99-6.58c-3.4.79-7.79 7.38-8.05 8.24-.27.87.53 11.84 11.04-1.66zm-32.69-95.96c-.02-.01-4.43-1.99-8.68 2.53s-12.33-8.65-13.66-10.38c-5.61-7.3 7.65 12.71 4.75 17.29-4.39 6.92-30.73 12.11-39.64 51.62 0 0 25.29 29.57 57.23 28.6 31.94.97 57.23-28.6 57.23-28.6-8.91-39.51-35.25-44.7-39.64-51.62-2.9-4.58 10.36-24.59 4.75-17.29-1.33 1.73-9.41 14.9-13.66 10.38s-8.66-2.54-8.68-2.53zm-12.12 98.2s8.82 1.44 12.12.91c3.3.53 12.12-.91 12.12-.91s4.87 1.42 4.41 5.7c-2.26 7.44-16.51 5.19-16.53 5.18-.02.01-14.27 2.26-16.53-5.18-.46-4.28 4.41-5.7 4.41-5.7zm-34.44-145.95s12.37-7.72 23.54-3.86c-25.8 12.02-40.74 50.42-53.21 47.36-6.16-1.84-8.96-5.41-9.07-11.88-.12-7.15 6.23-9.48 11.51-12.99 9.09-6.04 18.2-12.45 27.23-18.63zm1.06 22.88s.67-7.45 7.72-10.24c0 0 11.17-2.53 12.1-3.19.93-.67 4.26-3.73 4.26-3.73s1.46-.4 3.33.67l3.59-3.46s2.79.26 2.79 2.39-.46 2.79-.86 3.26-8.25 7.05-8.25 7.05l-5.12.53-3.59 2.13-4.26-.26s-6.52 3.99-11.71 4.85zm-37.38 24.28c-3.19-.93-7.18-10.64-5.85-13.44 0 0-16.63 4.13-5.32 34.19 0 0 .53-13.97 11.17-20.75zm1.23 8.81c7.24-4.29 10.25 9.26 21.69 7.45 5.05-.8 10.5-.53 11.17 5.06 1.22 10.23-7.11 25.94-18.36 20.48-8.78-4.25-27.87-9.91-22.75-19.15 3.83-6.91 2.8-5.84 8.25-13.84zm-53.48-9.44c.48 10.14 4.38 12.34 8.12 21.68 1.06 2.66 6.38 4.66 5.59-.93-.8-5.58-11.05-15.43-13.71-20.75zm34.22 36.68c2.99 2.9-4 5.22-7.7 1.39-.86-.89-6.78-8.09-6.98-8.77-.49-1.67 1.81-1.66 2.9-.75 1.65 1.37 2.6 2.43 4.53 3.8 2.4 1.7 5.12 2.75 7.25 4.33zm9.55 8.95s2.46-3.93 4.26-2.86c17.91 10.62-10.42 12.57-4.26 2.86zm15.9 6.72s-.67-3.26 3.52-3.26 6.79.46 8.32 4.32-3.73 4.46-6.12 3.86c-2.4-.6-5.32-2.33-5.72-4.92zm-68.71-7.59s13.03 17.43 18.09 18.03l.27-4.85s-5.72-3.33-18.36-13.18zm25.47 20.68s.2-4.51 2.46-5.04c2.27-.54 11.44.2 11.44.2s2.47 1.5 2.4 4.84-2.66 3.74-2.66 3.74l-11.91-.6s-1.86-1.13-1.73-3.14zm36.15 4.43c-.52 2.7-1.06 2.38-3.87 2.49-10.63.4-8.1-10.12-2.76-7.86 1.67.71 6.34 3.52 6.63 5.37zm8.62 0c2.43-2.57 9.47-.05 12.22 1.05 2.96 1.19 4.62 2.41 6.34 5.11-2.86.04-14.35.55-16.18-.01-2.6-.79-3.73-3.83-2.38-6.15zm-33.63 60.08c.14-2.43.93-6.36 3.81-6.96 1.21 1.56.36 8.93.27 11.19-.09 2.33.22 12.28-2.71 12.9-2.49.53-1.59-10.57-1.56-12.16.03-1.67.09-3.3.19-4.97zm24.18-39.62s5.26-2.99 4.46 1.33c-1.03 4.04-13.55 22.56-16.91 24.21-4.44 2.19-6.54-1.94-3.3-6.69 1.74-2.55 5.54-6.58 7.71-9.2 2.68-3.22 5.36-6.43 8.04-9.65zm17.58-4.1c2.02-.26 10.95-.34 8.29 3.74-2.45 3.78-14.21 4.24-12.94-.3.57-2.02 2.83-2.96 4.65-3.44zm16.54 3.03c1.97.14 5.97.58 7.54-.73-1.08-2.96-5.77-5.07-8.6-5.82 0 .95-.18 5.93.4 6.4zm-20.21 79.56s-1.87-14.37 4.78-12.51l8.39 6.39s2.26 13.97-2.67 18.09c-4.92 4.12-9.71-5.45-10.5-11.97zm3.99-18.09.4-16.77s7.18-9.18 11.7-2.92l-.66 13.7s-2.13 9.71-11.44 5.99zm12.11-35.42c.27 11-9.85 9.79-8.19 1.83.79-3.77 6.63-10.14 8.02-2.97zm2.99-3.7s.86-6.85.99-7.31c.14-.47 4.73-5.79 5.46-.6s-.73 10.57-.73 10.57-3.6.94-5.72-2.66zm13.3.47s-.67-6.92 1.46-7.58c2.13-.67 4.66 3.52 4.66 3.52s-2.46 5.46-6.12 4.06z" style="fill:#b71c1c"/><path d="m223.31 288.02s-.4-7.38 2.99-6.58c3.4.79 7.79 7.38 8.05 8.24.27.87-.53 11.84-11.04-1.66zm79.25-143.71s-12.37-7.72-23.54-3.86c25.8 12.02 40.74 50.42 53.21 47.36 6.16-1.84 8.96-5.41 9.07-11.88.12-7.15-6.23-9.48-11.51-12.99-9.09-6.04-18.2-12.45-27.23-18.63zm-1.06 22.88s-.67-7.45-7.72-10.24c0 0-11.17-2.53-12.1-3.19-.93-.67-4.26-3.73-4.26-3.73s-1.46-.4-3.33.67l-3.59-3.46s-2.79.26-2.79 2.39.46 2.79.86 3.26 8.25 7.05 8.25 7.05l5.12.53 3.59 2.13 4.26-.26s6.52 3.99 11.71 4.85zm37.38 24.28c3.19-.93 7.18-10.64 5.85-13.44 0 0 16.63 4.13 5.32 34.19 0 0-.53-13.97-11.17-20.75zm-1.23 8.81c-7.24-4.29-10.25 9.26-21.69 7.45-5.05-.8-10.5-.53-11.17 5.06-1.22 10.23 7.11 25.94 18.36 20.48 8.78-4.25 27.87-9.91 22.75-19.15-3.83-6.91-2.8-5.84-8.25-13.84zm53.48-9.44c-.48 10.14-4.38 12.34-8.12 21.68-1.06 2.66-6.38 4.66-5.59-.93.8-5.58 11.05-15.43 13.71-20.75zm-34.22 36.68c-2.99 2.9 4 5.22 7.7 1.39.86-.89 6.78-8.09 6.98-8.77.49-1.67-1.81-1.66-2.9-.75-1.65 1.37-2.6 2.43-4.53 3.8-2.4 1.7-5.12 2.75-7.25 4.33zm-9.55 8.95s-2.46-3.93-4.26-2.86c-17.91 10.62 10.42 12.57 4.26 2.86zm-15.9 6.72s.67-3.26-3.52-3.26-6.79.46-8.32 4.32 3.73 4.46 6.12 3.86c2.4-.6 5.32-2.33 5.72-4.92zm68.71-7.59c0 .01-13.04 17.43-18.09 18.03l-.27-4.85s5.72-3.33 18.36-13.18zm-25.47 20.68s-.2-4.51-2.46-5.04c-2.27-.54-11.44.2-11.44.2s-2.47 1.5-2.4 4.84 2.66 3.74 2.66 3.74l11.91-.6s1.86-1.13 1.73-3.14zm-36.15 4.43c.52 2.7 1.06 2.38 3.87 2.49 10.63.4 8.1-10.12 2.76-7.86-1.67.71-6.34 3.52-6.63 5.37zm-8.62 0c-2.43-2.57-9.47-.05-12.22 1.05-2.96 1.19-4.62 2.41-6.34 5.11 2.86.04 14.35.55 16.18-.01 2.6-.79 3.73-3.83 2.38-6.15zm33.63 60.08c-.14-2.43-.93-6.36-3.81-6.96-1.21 1.56-.36 8.93-.27 11.19.09 2.33-.22 12.28 2.71 12.9 2.49.53 1.59-10.57 1.56-12.16-.03-1.67-.09-3.3-.19-4.97zm-24.18-39.62s-5.26-2.99-4.46 1.33c1.03 4.04 13.55 22.56 16.91 24.21 4.44 2.19 6.54-1.94 3.3-6.69-1.74-2.55-5.54-6.58-7.71-9.2zm-17.58-4.1c-2.02-.26-10.95-.34-8.29 3.74 2.45 3.78 14.21 4.24 12.94-.3-.57-2.02-2.83-2.96-4.65-3.44zm-16.54 3.03c-1.97.14-5.97.58-7.54-.73 1.08-2.96 5.77-5.07 8.6-5.82 0 .95.18 5.93-.4 6.4zm20.21 79.56s1.87-14.37-4.78-12.51l-8.39 6.39s-2.26 13.97 2.67 18.09c4.92 4.12 9.71-5.45 10.5-11.97zm-3.99-18.09-.4-16.77s-7.18-9.18-11.7-2.92l.66 13.7s2.13 9.71 11.44 5.99zm-12.11-35.42c-.27 11 9.85 9.79 8.19 1.83-.79-3.77-6.63-10.14-8.02-2.97zm-8.71-1.04c.01 0 3.6.94 5.72-2.66 0 0-.86-6.85-.99-7.31-.14-.47-4.73-5.79-5.46-.6s.73 10.57.73 10.57zm-7.58-2.19s.67-6.92-1.46-7.58c-2.13-.67-4.66 3.52-4.66 3.52s2.46 5.46 6.12 4.06zm-4.39-14.9s.4-7.38-2.99-6.58c-3.4.79-7.79 7.38-8.05 8.24-.27.87.53 11.84 11.04-1.66zm-32.69-95.96c-.02-.01-4.43-1.99-8.68 2.53s-12.33-8.65-13.66-10.38l-.34-.44-.3.35c-.1-.04-.07-.12.16-.3l.12-.09c-4.62-5.86 7.95 13.3 5.11 17.77-4.39 6.92-30.73 12.11-39.64 51.62 0 0 25.29 29.57 57.23 28.6 31.94.97 57.23-28.6 57.23-28.6-8.91-39.51-35.25-44.7-39.64-51.62-2.84-4.47 9.73-23.63 5.12-17.77l.1.08c.23.18.26.26.16.3l-.29-.34-.34.44c-1.33 1.73-9.41 14.9-13.66 10.38s-8.66-2.54-8.68-2.53zm-12.12 98.2s8.82 1.44 12.12.91c3.3.53 12.12-.91 12.12-.91s4.87 1.42 4.41 5.7c-2.26 7.44-16.51 5.19-16.53 5.18-.02.01-14.27 2.26-16.53-5.18-.46-4.28 4.41-5.7 4.41-5.7zm-34.44-145.95s12.37-7.72 23.54-3.86c-25.8 12.02-40.74 50.42-53.21 47.36-6.16-1.84-8.96-5.41-9.07-11.88-.12-7.15 6.23-9.48 11.51-12.99 9.09-6.04 18.2-12.45 27.23-18.63zm1.06 22.88s.67-7.45 7.72-10.24c0 0 11.17-2.53 12.1-3.19.93-.67 4.26-3.73 4.26-3.73s1.46-.4 3.33.67l3.59-3.46s2.79.26 2.79 2.39-.46 2.79-.86 3.26-8.25 7.05-8.25 7.05l-5.12.53-3.59 2.13-4.26-.26s-6.52 3.99-11.71 4.85zm-37.38 24.28c-3.19-.93-7.18-10.64-5.85-13.44 0 0-16.63 4.13-5.32 34.19 0 0 .53-13.97 11.17-20.75zm1.23 8.81c7.24-4.29 10.25 9.26 21.69 7.45 5.05-.8 10.5-.53 11.17 5.06 1.22 10.23-7.11 25.94-18.36 20.48-8.78-4.25-27.87-9.91-22.75-19.15 3.83-6.91 2.8-5.84 8.25-13.84zm-53.48-9.44c.48 10.14 4.38 12.34 8.12 21.68 1.06 2.66 6.38 4.66 5.59-.93-.8-5.58-11.05-15.43-13.71-20.75zm34.22 36.68c2.99 2.9-4 5.22-7.7 1.39-.86-.89-6.78-8.09-6.98-8.77-.49-1.67 1.81-1.66 2.9-.75 1.65 1.37 2.6 2.43 4.53 3.8 2.4 1.7 5.12 2.75 7.25 4.33zm9.55 8.95s2.46-3.93 4.26-2.86c17.91 10.62-10.42 12.57-4.26 2.86zm15.9 6.72s-.67-3.26 3.52-3.26 6.79.46 8.32 4.32-3.73 4.46-6.12 3.86c-2.4-.6-5.32-2.33-5.72-4.92zm-68.71-7.59c0 .01 13.04 17.43 18.09 18.03l.27-4.85s-5.72-3.33-18.36-13.18zm25.47 20.68s.2-4.51 2.46-5.04c2.27-.54 11.44.2 11.44.2s2.47 1.5 2.4 4.84-2.66 3.74-2.66 3.74l-11.91-.6s-1.86-1.13-1.73-3.14zm36.15 4.43c-.52 2.7-1.06 2.38-3.87 2.49-10.63.4-8.1-10.12-2.76-7.86 1.67.71 6.34 3.52 6.63 5.37zm8.62 0c2.43-2.57 9.47-.05 12.22 1.05 2.96 1.19 4.62 2.41 6.34 5.11-2.86.04-14.35.55-16.18-.01-2.6-.79-3.73-3.83-2.38-6.15zm-33.63 60.08c.14-2.43.93-6.36 3.81-6.96 1.21 1.56.36 8.93.27 11.19-.09 2.33.22 12.28-2.71 12.9-2.49.53-1.59-10.57-1.56-12.16.03-1.67.09-3.3.19-4.97zm24.18-39.62s5.26-2.99 4.46 1.33c-1.03 4.04-13.55 22.56-16.91 24.21-4.44 2.19-6.54-1.94-3.3-6.69 1.74-2.55 5.54-6.58 7.71-9.2zm17.58-4.1c2.02-.26 10.95-.34 8.29 3.74-2.45 3.78-14.21 4.24-12.94-.3.57-2.02 2.83-2.96 4.65-3.44zm16.54 3.03c1.97.14 5.97.58 7.54-.73-1.08-2.96-5.77-5.07-8.6-5.82 0 .95-.18 5.93.4 6.4zm-20.21 79.56s-1.87-14.37 4.78-12.51l8.39 6.39s2.26 13.97-2.67 18.09c-4.92 4.12-9.71-5.45-10.5-11.97zm3.99-18.09.4-16.77s7.18-9.18 11.7-2.92l-.66 13.7s-2.13 9.71-11.44 5.99zm12.11-35.42c.27 11-9.85 9.79-8.19 1.83.79-3.77 6.63-10.14 8.02-2.97zm8.71-1.04c-.01 0-3.6.94-5.72-2.66 0 0 .86-6.85.99-7.31.14-.47 4.73-5.79 5.46-.6s-.73 10.57-.73 10.57zm7.58-2.19s-.67-6.92 1.46-7.58c2.13-.67 4.66 3.52 4.66 3.52s-2.46 5.46-6.12 4.06zm7.04-20.03c-1.19-.28-1.21 3.29-1.17 4.58 2.88 3.65 4.85 5.23 6.19 5.65.42.13.7.11.89 0 .23-.14.43-.44.58-.79.44-.98.53-2.03.47-2.21-.14-.44-1.76-2.9-3.75-4.94-1.1-1.13-2.26-2.06-3.21-2.29zm75.76-137.34c-.85-.52-9.52-5.6-18.41-4.55 11.76 6.79 21.12 18.58 29.05 28.56 7.89 9.94 14.3 18 19.46 16.81 2.76-.83 4.75-2.01 6.02-3.67 1.28-1.67 1.91-3.89 1.96-6.79.09-5.06-3.88-7.46-8-9.95-.93-.56-1.86-1.13-2.83-1.77-6.12-4.06-12.31-8.34-18.47-12.59-2.78-1.93-5.58-3.86-8.78-6.05zm-2.21 19.63c-.7-2.12-2.36-5.24-6.18-6.8-1.25-.29-11.44-2.63-12.52-3.41-.8-.57-3.17-2.71-4.07-3.53-.35-.01-1.02.05-1.91.56l-.97.55-3.84-3.7c-.38.12-.81.35-.81.78 0 .89.08 1.43.2 1.77.08.25.2.4.3.52.27.32 6.19 5.3 7.72 6.58l5 .52 3.47 2.06 4.26-.27.39.24c.02.01 4.58 2.8 8.96 4.13zm45.37 20.86c-.9 2.11-2.11 4.13-3.41 5.44 5.37 4.22 7.88 10.19 9.06 14.63 5.05-17.32-.73-23.59-4.11-25.68-.16 1.7-.74 3.72-1.54 5.61zm-8.27 15.38c-2.49-1.27-4.58.51-7.04 2.6-3.38 2.87-7.3 6.22-13.83 5.19-2.34-.37-4.74-.5-6.55.08-1.53.49-2.66 1.58-2.91 3.67-.43 3.64.44 8.03 2.27 11.81 1.04 2.16 2.4 4.09 4 5.54 1.51 1.38 3.25 2.31 5.12 2.53 1.5.18 3.12-.08 4.83-.91 1.59-.77 3.48-1.58 5.5-2.44 3.25-1.38 6.85-2.91 9.92-4.6 5.1-2.83 8.82-6.16 6.67-10.05-1.09-1.96-1.76-3.24-2.31-4.26-1.4-2.66-1.94-3.68-5.67-9.16zm48.86 2.65c1.28-2.32 2.41-4.35 3.17-6.94-.65.83-1.33 1.69-2.02 2.56-3.5 4.39-7.29 9.15-7.71 12.11-.15 1.02-.07 1.57.12 1.81.03.02.07.04.13.05.17.02.39-.01.62-.09.78-.26 1.56-.9 1.84-1.6 1.33-3.32 2.66-5.73 3.85-7.9zm-27.61 24.61c-.12.1-.19.14-.19.15 0 .02.06.07.16.13.21.15.51.26.86.35 1.42.32 3.44.01 4.84-1.44.48-.49 2.68-3.13 4.47-5.38l1.32-1.68c-.38.33-.79.7-1.19 1.06-.9.81-1.75 1.58-3.11 2.54-1.25.89-2.55 1.59-3.81 2.27-1.2.65-2.37 1.28-3.35 2zm-11.77 8.59c0-.01-1.69-2.69-2.23-2.37-4.57 2.71-5.71 4.37-5.21 5.22.37.63 1.57 1.01 2.95 1.12 1.53.12 3.19-.14 4.26-.82.88-.56 1.22-1.59.23-3.15zm-16.1 5.64s.31-1.48-2.05-1.48c-1.92 0-3.44.09-4.56.59-1 .43-1.77 1.27-2.37 2.78-.16.41-.2.71-.14.93.03.12.1.24.21.33.15.15.39.28.66.39 1.13.45 2.67.45 3.64.21 1.12-.28 2.38-.85 3.32-1.66.67-.58 1.16-1.27 1.28-2.03zm53.47 8.61c2.13-1.26 5.07-4.24 7.81-7.35-4.13 2.98-6.72 4.67-7.91 5.41zm-10.26 4.82s-.15-3.37-1.3-3.64c-1.8-.43-8.75.06-10.55.19-.5.42-1.49 1.5-1.45 3.36.03 1.75.99 2.17 1.29 2.26l11.24-.56c.33-.29.82-.85.77-1.58zm-33.1 4.42c.22.89.52.9 1.52.92l.86.02c3.11.12 4.79-.77 5.46-1.9.3-.51.4-1.08.34-1.59-.07-.5-.28-.95-.6-1.26l-.01-.01c-.42-.41-1.09-.57-1.91-.22-.91.39-2.8 1.46-4.26 2.64-.67.55-1.22 1.06-1.4 1.4zm-11.37.87c-.84-.72-2.64-.65-4.52-.3-2.27.42-4.62 1.29-5.94 1.82-1.35.54-2.4 1.08-3.27 1.77-.21.17-.41.34-.61.53 4.42.14 11.53.35 12.72-.02.19-.05.38-.14.57-.25.54-.31.93-.8 1.14-1.35.22-.56.25-1.19.07-1.79-.04-.14-.09-.27-.16-.41zm33.34 59.25c-.08-1.26-.34-2.95-1.02-4.2-.13-.23-.27-.45-.43-.64-.14 1.81.08 4.94.24 7.07.05.71.09 1.32.11 1.85l.02 1.27c.04 3.11.13 9.93 1.51 10.23.37.08-.46-.34-.38-.68.51-2.4.28-6.9.18-8.98l-.04-1.01c-.02-.8-.04-1.62-.08-2.46-.02-.77-.06-1.58-.11-2.45zm-23.65-38.52c-.58-.31-2.12-1.03-2.04-.2.53 1.99 4.13 7.88 7.91 13.3 3.39 4.86 6.84 9.25 8.19 9.91.82.4 1.47.52 1.94.41.22-.05.39-.16.5-.32.16-.21.25-.52.28-.91.05-.98-.34-2.27-1.31-3.69-1.1-1.62-3.16-3.96-5.05-6.1-.88-1-1.72-1.96-2.57-2.98zm-16.92-3.83c-.99-.1-3.32-.16-5.2.22-.68.14-1.28.33-1.64.58-.09.07-.15.12-.14.14.01.12.09.3.24.53.9 1.38 3.7 2.19 6.27 2.28.98.03 1.9-.04 2.65-.24.6-.15 1.05-.36 1.27-.63.09-.11.12-.27.06-.5-.17-.6-.64-1.07-1.22-1.43-.69-.44-1.53-.74-2.29-.95zm-16.94.12.44-.03c0-.46-.07-1.82-.12-3.03-1.13.44-2.34 1.02-3.4 1.74-.61.41-1.16.87-1.59 1.34 1.35.23 3.32.08 4.67-.02zm19.43 80.82c.01-.03 1.51-11.68-2.65-10.93l-7.64 5.82c-.36 2.59-1.51 12.99 2.23 16.12.46.39.89.59 1.28.64.41.05.84-.06 1.25-.3.53-.29 1.05-.76 1.56-1.37 2.03-2.43 3.56-6.62 3.97-9.97zm-4.03-18.96-.36-15.15c-1.22-1.42-5.78-6.26-8.7-2.99l.63 12.98c.23.91 2.07 7.07 8.43 5.16zm-9.1-34.22c-.06 3.31.89 5.23 2.07 6.01.42.28.86.4 1.27.38.4-.02.78-.18 1.1-.46.77-.66 1.2-2 .79-3.94-.29-1.41-1.47-3.29-2.78-4.37-.4-.33-.79-.57-1.13-.64-.14-.03-.27-.02-.35.05-.32.25-.6.85-.82 1.94zm-6.03-4.19c-.2-1.6-.79-6.23-.88-6.55-.03-.1-.75-.83-1.63-1.42-.24-.17-.48-.29-.66-.34-.09.15-.17.45-.24.95-.51 3.58.1 7.27.46 8.99.81-.04 2.01-.34 2.95-1.63zm-13.16-.47c.1-1.69.17-4.65-.5-4.86-.71-.22-1.85 1.26-2.48 2.17.55.95 1.65 2.53 2.98 2.69zm-4.46-14.16c.04-1.29.02-4.86-1.17-4.58-.95.23-2.11 1.16-3.21 2.29-1.99 2.04-3.61 4.5-3.75 4.94-.06.18.03 1.23.47 2.21.15.35.35.65.58.79.19.11.47.13.89 0 1.34-.42 3.31-2 6.19-5.65zm-31.82-94.05c-.01 0-3.46-1.55-6.98 2.19-2.6 2.77-5.83 1.27-8.81-1.53-.29-.27-.57-.55-.85-.84 1.35 3.61 2.13 7.16.92 9.07-1.3 2.06-4.03 3.81-7.57 6.09-9.44 6.07-25.12 16.17-31.7 44.31 3.65 4.03 26.88 28.39 55.56 27.52h.08c28.68.87 51.91-23.49 55.56-27.52-6.58-28.14-22.26-38.24-31.7-44.31-3.54-2.28-6.27-4.03-7.57-6.09-1.21-1.91-.43-5.46.92-9.07-.28.29-.56.57-.85.84-2.98 2.8-6.21 4.3-8.81 1.53-3.52-3.74-6.97-2.19-6.98-2.19l-.61.28zm.61 99.26c-3.23.41-10.3-.62-11.99-.88-.84.31-3.23 1.44-3.06 3.87.62 1.82 2.29 2.9 4.26 3.51 4.56 1.44 10.55.49 10.56.49l.23-.04.23.04c.01 0 6 .95 10.56-.49 1.97-.61 3.64-1.69 4.26-3.51.17-2.43-2.22-3.56-3.06-3.87-1.69.26-8.76 1.29-11.99.88zm-27.31-151.68c-8.89-1.05-17.56 4.03-18.41 4.55-3.2 2.19-6 4.12-8.78 6.05-6.16 4.25-12.35 8.53-18.47 12.59-.97.64-1.9 1.21-2.83 1.77-4.12 2.49-8.09 4.89-8 9.95.05 2.9.68 5.12 1.96 6.79 1.27 1.66 3.26 2.84 6.02 3.67 5.16 1.19 11.57-6.87 19.46-16.81 7.93-9.98 17.29-21.77 29.05-28.56zm-10.02 17.38c-3.82 1.56-5.48 4.68-6.18 6.8 4.38-1.33 8.94-4.12 8.96-4.13l.39-.24 4.26.27 3.47-2.06 5-.52c1.53-1.28 7.45-6.26 7.72-6.58.1-.12.22-.27.3-.52.12-.34.2-.88.2-1.77 0-.43-.43-.66-.81-.78l-3.84 3.7-.97-.55c-.89-.51-1.56-.57-1.91-.56-.9.82-3.27 2.96-4.07 3.53-1.08.78-11.27 3.12-12.52 3.41zm-48.14 33.1c-1.3-1.31-2.51-3.33-3.41-5.44-.8-1.89-1.38-3.91-1.54-5.61-3.38 2.09-9.16 8.36-4.11 25.68 1.18-4.44 3.69-10.41 9.06-14.63zm11.9 12.54c-2.46-2.09-4.55-3.87-7.04-2.6-3.73 5.48-4.27 6.5-5.67 9.16-.55 1.02-1.22 2.3-2.31 4.26-2.15 3.89 1.57 7.22 6.67 10.05 3.07 1.69 6.67 3.22 9.92 4.6 2.02.86 3.91 1.67 5.5 2.44 1.71.83 3.33 1.09 4.83.91 1.87-.22 3.61-1.15 5.12-2.53 1.6-1.45 2.96-3.38 4-5.54 1.83-3.78 2.7-8.17 2.27-11.81-.25-2.09-1.38-3.18-2.91-3.67-1.81-.58-4.21-.45-6.55-.08-6.53 1.03-10.45-2.32-13.83-5.19zm-59.07-6.89c.76 2.59 1.89 4.62 3.17 6.94 1.19 2.17 2.52 4.58 3.85 7.9.28.7 1.06 1.34 1.84 1.6.23.08.45.11.62.09.06-.01.1-.03.13-.05.19-.24.27-.79.12-1.81-.42-2.96-4.21-7.72-7.71-12.11-.69-.87-1.37-1.73-2.02-2.56zm30.97 31.7c0-.01-.07-.05-.19-.15-.98-.72-2.15-1.35-3.35-2-1.26-.68-2.56-1.38-3.82-2.27-1.35-.96-2.2-1.73-3.1-2.54-.4-.36-.81-.73-1.19-1.06l1.32 1.68c1.79 2.25 3.99 4.89 4.47 5.38 1.4 1.45 3.42 1.76 4.84 1.44.35-.09.65-.2.86-.35.1-.06.16-.11.16-.13zm13.81 6.07c-.54-.32-2.23 2.36-2.23 2.37-.99 1.56-.65 2.59.23 3.15 1.07.68 2.73.94 4.26.82 1.38-.11 2.58-.49 2.95-1.12.5-.85-.64-2.51-5.21-5.22zm15.92 6.53c-2.36 0-2.05 1.48-2.05 1.48l.01.06c.12.76.61 1.45 1.28 2.03.94.81 2.2 1.38 3.32 1.66.97.24 2.51.24 3.64-.2.27-.12.51-.25.66-.4.11-.09.18-.21.21-.33.06-.22.02-.52-.14-.93-.6-1.51-1.37-2.35-2.37-2.78-1.12-.5-2.64-.59-4.56-.59zm-63.33 2.74c2.74 3.11 5.68 6.09 7.81 7.35l.1-1.94c-1.19-.74-3.78-2.43-7.91-5.41zm19.37 8.53c-1.15.27-1.3 3.64-1.3 3.64v.03c-.05.73.44 1.29.77 1.58l11.24.56c.3-.09 1.26-.51 1.29-2.26.04-1.86-.95-2.94-1.45-3.36-1.8-.13-8.75-.62-10.55-.19zm30.28 8.98c1-.02 1.3-.03 1.52-.92-.18-.34-.73-.85-1.4-1.4-1.46-1.18-3.35-2.25-4.26-2.64-.82-.35-1.49-.19-1.91.22l-.01.01c-.32.31-.53.76-.6 1.26-.06.51.04 1.08.34 1.59.67 1.13 2.35 2.02 5.46 1.9zm17.41-.35c-1.88-.35-3.68-.42-4.52.3-.07.14-.12.27-.16.41-.18.6-.15 1.23.07 1.79.21.55.6 1.04 1.14 1.35.19.11.38.2.57.25 1.19.37 8.3.16 12.72.02-.2-.19-.4-.36-.61-.53-.87-.69-1.92-1.23-3.27-1.77-1.32-.53-3.67-1.4-5.94-1.82zm-36.84 55.35c-.68 1.25-.94 2.94-1.02 4.2-.05.87-.09 1.68-.11 2.45-.04.84-.06 1.66-.08 2.46l-.04 1.01c-.1 2.08-.33 6.58.18 8.98.08.34-.75.76-.38.68 1.38-.3 1.47-7.12 1.51-10.23l.02-1.27c.02-.53.06-1.14.11-1.85.16-2.13.38-5.26.24-7.07-.16.19-.3.41-.43.64zm24.67-34.52c.08-.83-1.46-.11-2.04.2l-7.85 9.42c-.85 1.02-1.69 1.98-2.57 2.98-1.89 2.14-3.95 4.48-5.05 6.1-.97 1.42-1.36 2.71-1.31 3.69.03.39.12.7.28.91.11.16.28.27.5.32.47.11 1.12-.01 1.94-.41 1.35-.66 4.8-5.05 8.19-9.91 3.78-5.42 7.38-11.31 7.91-13.3zm20.08-3.41c-1.88-.38-4.21-.32-5.2-.22-.76.21-1.6.51-2.29.95-.58.36-1.05.83-1.22 1.43-.06.23-.03.39.06.5.22.27.67.48 1.27.63.75.2 1.67.27 2.65.24 2.57-.09 5.37-.9 6.27-2.28.15-.23.23-.41.24-.53.01-.02-.05-.07-.14-.14-.36-.25-.96-.44-1.64-.58zm11.3-.13.44.03c1.35.1 3.32.25 4.67.02-.43-.47-.98-.93-1.59-1.34-1.06-.72-2.27-1.3-3.4-1.74-.05 1.21-.12 2.57-.12 3.03zm-16.34 69.92c-4.16-.75-2.66 10.9-2.65 10.93v.01c.41 3.35 1.94 7.54 3.97 9.97.51.61 1.03 1.08 1.56 1.37.41.24.84.35 1.25.3.39-.05.82-.25 1.28-.64 3.74-3.13 2.59-13.53 2.23-16.12zm1.74-23.18-.36 15.15c6.36 1.91 8.2-4.25 8.43-5.16l.63-12.98c-2.92-3.27-7.48 1.57-8.7 2.99zm6.67-13.06c1.18-.78 2.13-2.7 2.07-6.01l-.15-1.03c-.22-1.09-.5-1.69-.82-1.94-.08-.07-.21-.08-.35-.05-.34.07-.73.31-1.13.64-1.31 1.08-2.49 2.96-2.78 4.37-.41 1.94.02 3.28.79 3.94.32.28.7.44 1.1.46.41.02.85-.1 1.27-.38zm8.98-16.75c-.09.32-.68 4.95-.88 6.55.94 1.29 2.14 1.59 2.95 1.63.36-1.72.97-5.41.46-8.99-.07-.5-.15-.8-.24-.95-.18.05-.42.17-.66.34-.88.59-1.6 1.32-1.63 1.42zm12.78 1.22c-.67.21-.6 3.17-.5 4.86 1.33-.16 2.43-1.74 2.98-2.69-.63-.91-1.77-2.39-2.48-2.17z" style="fill:#212121"/></svg>