<svg xmlns="http://www.w3.org/2000/svg" xml:space="preserve" fill-rule="evenodd" clip-rule="evenodd" image-rendering="optimizeQuality" shape-rendering="geometricPrecision" text-rendering="geometricPrecision" viewBox="0 0 1024 1024"><defs><style>.fil3,.fil4{fill-rule:nonzero}.fil4{fill:#cfd8dc}.fil3{fill:#ffd54f}</style></defs><g id="Layer"><path fill="none" d="M0 0h1024v1024H0z"/><g id="Camera"><g id="Colour"><path fill="#5c7a93" fill-rule="nonzero" d="M275.89 330.49v-10.33c0-8.86 5.9-14.76 14.76-14.76h59.03c8.85 0 14.75 5.9 14.75 14.76v10.33h-88.54z"/><path fill="#ffb74d" fill-rule="nonzero" d="M402.8 674.33h389.58V423.46H402.8z"/><path d="M714.09 364.43H472.24l35.33-51.76c2.95-4.82 8.86-8.43 16.23-8.43h138.72c7.38 0 13.28 3.61 16.23 8.43l35.34 51.76z" class="fil3"/><path d="M792.38 423.46H379.19v-59.03h376.3c20.66 0 36.89 19.19 36.89 38.37v20.66z" class="fil4"/><path fill="#ef5350" fill-rule="nonzero" d="M460.35 445.6c-11.8 0-22.13-10.33-22.13-22.14s10.33-22.14 22.13-22.14c11.81 0 22.13 10.33 22.13 22.14s-10.33 22.14-22.13 22.14z"/><path d="M364.43 733.36v-59.03h427.95v28.03c0 20.66-16.23 30.99-36.89 30.99l-391.06.01z" class="fil4"/><path fill="#eee" fill-rule="nonzero" d="M600.54 408.7c72.33 0 132.81 59.73 132.81 132.81 0 73.78-59.03 132.82-132.81 132.82s-132.81-60.51-132.81-132.82c0-73.25 60.11-132.81 132.81-132.81z"/><path fill="#455a64" fill-rule="nonzero" d="M497.24 541.52c0-57.56 45.75-103.3 103.3-103.3s103.3 45.74 103.3 103.3c0 57.55-45.75 103.3-103.3 103.3s-103.3-45.76-103.3-103.3z"/><path fill="#e0e0e0" fill-rule="nonzero" d="M367.38 330.49c20.66 0 35.43 16.23 35.43 36.9l-.01 26.55H231.62v-26.55c0-19.19 16.23-36.9 35.42-36.9h100.34zm35.42 371.87c0 20.66-16.23 30.99-36.89 30.99l-98.87.01c-19.19 0-35.42-11.81-35.42-30.99v-42.8H402.8v42.79z"/><path d="M402.8 393.94v265.63H231.62V393.94z" class="fil3"/><path fill="#5c6bc0" fill-rule="nonzero" d="M600.54 615.3c-41.32 0-73.78-32.47-73.78-73.78 0-41.32 32.46-73.79 73.78-73.79s73.78 32.47 73.78 73.79c0 41.31-32.46 73.78-73.78 73.78zm0-125.44c-28.04 0-51.65 23.61-51.65 51.65s23.61 51.65 51.65 51.65 51.65-23.61 51.65-51.65-23.61-51.65-51.65-51.65z"/><path fill="#b2dfdb" fill-rule="nonzero" d="M630.06 563.65c0-8.15-6.61-14.76-14.76-14.76-8.15 0-14.76 6.61-14.76 14.76 0 8.15 6.61 14.76 14.76 14.76 8.15 0 14.76-6.61 14.76-14.76zm-14.76-36.89c0-12.23-9.91-22.14-22.14-22.14-12.22 0-22.13 9.91-22.13 22.14 0 12.22 9.91 22.14 22.13 22.14 12.23 0 22.14-9.92 22.14-22.14z"/></g><path id="Outline" fill="#000" d="M228.69 367.39c0-20.61 17.36-39.82 38.35-39.82h5.92v-7.41c0-10.47 7.21-17.68 17.69-17.68h59.03c10.47 0 17.68 7.21 17.68 17.68v7.41c20.06 0 35.39 14.25 37.99 33.94h65.34l34.43-50.43c3.95-6.4 11.29-9.76 18.68-9.76h138.72c7.39 0 14.72 3.36 18.68 9.76l34.43 50.43h39.86c21.76 0 39.82 19.94 39.82 41.29v299.56c0 23.21-18.67 33.91-39.82 33.91-162.82.01-325.64 0-488.45.01-20.09 0-38.35-12.5-38.35-33.91V367.39zm563.69 35.41c0-19.18-16.23-38.37-36.89-38.37h-41.4l-35.34-51.76c-2.95-4.82-8.85-8.43-16.23-8.43H523.8c-7.37 0-13.28 3.61-16.23 8.43l-35.33 51.76H402.7c-1.33-19.23-15.65-33.94-35.32-33.94h-2.95v-10.33c0-8.86-5.9-14.76-14.75-14.76h-59.03c-8.86 0-14.76 5.9-14.76 14.76v10.33h-8.85c-19.19 0-35.42 17.71-35.42 36.9v334.98c0 19.18 16.23 30.99 35.42 30.99l488.45-.01c20.66 0 36.89-10.33 36.89-30.99V402.8z"/></g></g></svg>