<svg height="512" style="shape-rendering:geometricPrecision;text-rendering:geometricPrecision;image-rendering:optimizeQuality;fill-rule:evenodd;clip-rule:evenodd" viewBox="0 0 512 512" width="512" xmlns="http://www.w3.org/2000/svg"><circle cx="256" cy="256" r="256" style="fill:none"/><path d="m203.12 176.56c19.73 0 37.98 6.29 52.88 16.97 14.9-10.68 33.15-16.97 52.88-16.97 5.73 0 11.33.54 16.77 1.55l-.03-.55-.73-13.89 12.99-4.99 13-4.99 8.75 10.82 8.76 10.81-7.58 11.67-2.65 4.09c25.03 16.18 41.59 44.33 41.59 76.36 0 50.18-40.68 90.87-90.87 90.87-19.73 0-37.98-6.29-52.88-16.96-14.9 10.67-33.15 16.96-52.88 16.96-50.19 0-90.87-40.69-90.87-90.87 0-50.19 40.68-90.88 90.87-90.88zm70.04 32.98c11.03 13.31 18.32 29.83 20.3 47.94l-24.32-6.52c-2.44-9.78-6.99-18.72-13.14-26.31-9.47 11.68-15.15 26.57-15.15 42.79 0 2.65.16 5.27.45 7.84l-22.25 5.96c-.69-4.5-1.05-9.11-1.05-13.8 0-22.01 7.82-42.18 20.83-57.9-10.38-6.42-22.61-10.13-35.71-10.13-37.56 0-68.02 30.46-68.02 68.03 0 37.56 30.46 68.02 68.02 68.02 13.1 0 25.33-3.71 35.71-10.12-5.49-6.65-10.06-14.08-13.51-22.12l22.39-6c2.27 4.66 5.06 9.02 8.29 13 7.97-9.83 13.25-21.93 14.72-35.17l22.27 5.96c-2.5 16.69-9.54 31.9-19.83 44.33 10.38 6.41 22.62 10.12 35.72 10.12 37.56 0 68.02-30.46 68.02-68.02 0-37.57-30.46-68.03-68.02-68.03-13.1 0-25.34 3.71-35.72 10.13z" style="fill:#ec407a"/><path d="m203.12 176.56c19.73 0 37.98 6.29 52.88 16.97 14.9-10.68 33.15-16.97 52.88-16.97 5.73 0 11.33.54 16.77 1.55l-.76-14.44 25.99-9.98 17.51 21.63-10.23 15.76c25.03 16.18 41.59 44.33 41.59 76.36 0 50.18-40.68 90.87-90.87 90.87-19.73 0-37.98-6.29-52.88-16.96-14.9 10.67-33.15 16.96-52.88 16.96-50.19 0-90.87-40.69-90.87-90.87 0-50.19 40.68-90.88 90.87-90.88zm35.71 148.78c-5.49-6.65-10.06-14.08-13.51-22.12l22.39-6c2.27 4.66 5.06 9.02 8.29 13 7.97-9.83 13.25-21.93 14.72-35.17l22.27 5.96c-2.5 16.69-9.54 31.9-19.83 44.33 10.38 6.41 22.62 10.12 35.72 10.12 37.56 0 68.02-30.46 68.02-68.02 0-37.57-30.46-68.03-68.02-68.03-13.1 0-25.34 3.71-35.72 10.13 11.03 13.31 18.32 29.83 20.3 47.94l-24.32-6.52c-2.44-9.78-6.99-18.72-13.14-26.31-9.47 11.68-15.15 26.57-15.15 42.79 0 2.65.16 5.27.45 7.84l-22.25 5.96c-.69-4.5-1.05-9.11-1.05-13.8 0-22.01 7.82-42.18 20.83-57.9-10.38-6.42-22.61-10.13-35.71-10.13-37.56 0-68.02 30.46-68.02 68.03 0 37.56 30.46 68.02 68.02 68.02 13.1 0 25.33-3.71 35.71-10.12zm-8.38-143.03c-8.61-2.76-17.79-4.25-27.33-4.25-24.68 0-47.02 10.01-63.19 26.18-16.18 16.17-26.18 38.52-26.18 63.2s10 47.02 26.18 63.19c16.17 16.17 38.51 26.18 63.19 26.18 9.54 0 18.72-1.49 27.33-4.25 8.91-2.86 17.22-7.09 24.68-12.43l.87-.63.87.63c7.46 5.34 15.77 9.57 24.68 12.43 8.61 2.76 17.79 4.25 27.33 4.25 24.68 0 47.02-10.01 63.19-26.18 16.18-16.17 26.18-38.51 26.18-63.19 0-15.47-3.92-30.01-10.83-42.69-7.16-13.15-17.54-24.31-30.07-32.42l-1.26-.81 10.46-16.1-16.15-19.95-23.96 9.2.8 15.26-1.86-.35c-2.71-.5-5.45-.89-8.21-1.14-2.69-.25-5.46-.38-8.29-.38-9.54 0-18.72 1.49-27.33 4.25-8.91 2.86-17.22 7.09-24.68 12.43l-.87.63-.87-.63c-7.46-5.34-15.77-9.57-24.68-12.43zm55.02 50.31c-3.4-8.04-7.96-15.48-13.46-22.13l-1.09-1.32 1.46-.91c5.4-3.33 11.28-5.95 17.51-7.72 6.04-1.71 12.41-2.63 18.99-2.63 19.19 0 36.58 7.78 49.16 20.37 12.58 12.58 20.36 29.96 20.36 49.16 0 19.19-7.78 36.57-20.36 49.15-12.58 12.59-29.97 20.37-49.16 20.37-6.58 0-12.95-.92-18.98-2.63-6.24-1.77-12.12-4.39-17.52-7.72l-1.46-.91 1.09-1.32c5.12-6.19 9.43-13.08 12.74-20.49 3.06-6.84 5.29-14.15 6.55-21.78l-19.3-5.17c-.83 6.05-2.44 11.86-4.72 17.31-2.56 6.13-5.99 11.82-10.12 16.92l-1.16 1.43-1.16-1.43c-1.65-2.04-3.19-4.18-4.62-6.41-1.2-1.89-2.3-3.81-3.31-5.77l-19.52 5.23c1.53 3.36 3.25 6.62 5.17 9.75 2.22 3.64 4.71 7.12 7.43 10.41l1.09 1.32-1.46.91c-5.4 3.33-11.28 5.95-17.52 7.72-6.03 1.71-12.4 2.63-18.98 2.63-19.19 0-36.58-7.78-49.16-20.36-12.58-12.59-20.36-29.97-20.36-49.16 0-19.2 7.78-36.58 20.36-49.16 12.58-12.59 29.97-20.37 49.16-20.37 6.58 0 12.95.92 18.98 2.63 6.24 1.77 12.12 4.39 17.52 7.72l1.46.91-1.09 1.32c-6.52 7.88-11.72 16.89-15.24 26.68-3.4 9.44-5.25 19.63-5.25 30.27 0 2.31.09 4.58.26 6.82.13 1.71.31 3.41.53 5.1l19.39-5.19c-.09-.9-.16-1.8-.21-2.72-.08-1.37-.12-2.71-.12-4.01 0-8.13 1.4-15.94 3.97-23.2 2.66-7.52 6.59-14.45 11.52-20.54l1.16-1.43 1.16 1.43c3.18 3.93 5.94 8.19 8.2 12.73 2.1 4.21 3.79 8.66 5.01 13.31l21.33 5.72c-1.07-8-3.19-15.66-6.23-22.84z" style="fill:#212121"/></svg>