<svg height="512" style="shape-rendering:geometricPrecision;text-rendering:geometricPrecision;image-rendering:optimizeQuality;fill-rule:evenodd;clip-rule:evenodd" viewBox="0 0 512 512" width="512" xmlns="http://www.w3.org/2000/svg"><circle cx="256" cy="256" r="256" style="fill:none"/><path d="m252.07 307.3v-7.96l-13.75-7.94c-8.17-.69-16.35-3.45-22.95-8.36-12.49-9.29-16.4-23.09-17.42-37.89 15.59 1.07 29.99 5.43 39.09 19.13 4.37 6.57 6.85 14.73 7.26 22.63l7.77 4.48v-37.33l-14.56-8.41c-10.55-.63-21.32-4.01-29.99-10.09-16.74-11.72-22.34-29.91-23.68-49.42 20.35 1.4 39.14 7.49 50.64 25.51 5.46 8.56 8.58 19.27 8.93 29.46l8.66 4.99v-26c-9.62-10.05-17.1-23.46-20.19-36.98-6.38-27.96 5.59-52.37 23.63-73.08 18.05 20.71 30.02 45.12 23.64 73.07-3.09 13.53-10.57 26.93-20.19 36.99v26l9.63-5.56c.35-10.18 3.47-20.89 8.93-29.45 11.5-18.02 30.29-24.11 50.64-25.51-1.34 19.51-6.94 37.69-23.68 49.42-8.67 6.07-19.44 9.46-29.99 10.09l-15.53 8.96v37.34l8.74-5.04c1.32-25.28 19.31-39.9 44.64-41.65l1.71-.12c-1.02 14.81-4.93 28.61-17.42 37.89-6.6 4.91-14.78 7.68-22.95 8.37l-14.72 8.5v7.96h49.77c7.94 0 9.51 7.93 9.21 8.03.68 4.97-2.73 9.52-7.53 10.4 2.85 24.98-4.12 56.04-19.81 76.23h-70.17c-15.46-22.55-23.06-47.61-19.81-76.23-10.69-1.96-10.01-18.43 1.67-18.43zm56.68 1.49h-51.29v-10.32l15.76-9.1c10.28-.79 36.69-6.42 39.22-43.17-39.19 2.7-42.99 32.54-43.28 41.03l-11.7 6.76v-40.8l16.59-9.58c12.27-.65 49.08-6.78 52.5-56.42-52.25 3.6-56.29 44.2-56.48 54.23l-12.61 7.28v-29.21c9.14-9.39 45.45-52.77-1.95-107.17-47.39 54.4-11.08 97.78-1.94 107.17v29.21l-11.64-6.71c-.19-10.03-4.23-50.64-56.48-54.23 3.42 49.64 40.23 55.76 52.5 56.41l15.62 9.02v40.8l-10.73-6.2c-.29-8.48-4.09-38.33-43.28-41.03 2.53 36.75 28.94 42.38 39.22 43.18l14.79 8.53v10.32h-51.29c-4.28 0-7.79 3.5-7.79 7.79 0 4.29 3.51 7.79 7.79 7.79-5.72 44.45 18.87 76.11 18.87 76.11h34.36 34.36s24.6-31.66 18.88-76.11c4.28 0 7.79-3.5 7.79-7.79 0-4.29-3.51-7.79-7.79-7.79z" style=""/><path d="m201.65 331.07h88.1c2.6 0 4.84 1.1 6.43 3.17 6.77 8.82-10.51 59.77-24.31 59.77h-54.95c2.48 4.18 4.24 6.46 4.24 6.46h34.35 34.35s24.59-31.66 18.87-76.09h-106.44c-.29 2.26-.5 4.49-.64 6.69z" style="fill:#5d4037"/><path d="m217.07 394.26c-6.27-10.52-17.32-33.62-15.42-63.19h88.1c2.6 0 4.84 1.1 6.43 3.17 6.77 8.82-10.51 59.77-24.31 59.77h-54.95zm-15.42-63.2c.02-.32.04-.65.07-.97-.03.32-.05.65-.07.97zm.17-2.22c.01-.19.03-.38.05-.58-.02.2-.04.39-.05.58z" style="fill:#795548"/><path d="m194.86 314.25c-.23.74-.36 1.53-.36 2.34 0 4.29 3.51 7.79 7.79 7.79h106.44c4.29 0 7.79-3.5 7.79-7.79 0-.81-.12-1.6-.36-2.34-1 3.15-3.96 5.46-7.43 5.46h-106.44c-3.47 0-6.43-2.31-7.43-5.46z" style="fill:#5d4037"/><path d="m308.73 308.8h-106.44c-3.49 0-6.46 2.33-7.44 5.51l.01-.06c1 3.15 3.96 5.46 7.43 5.46h106.44c3.47 0 6.43-2.31 7.43-5.46l.02.06c-.98-3.18-3.95-5.51-7.45-5.51z" style="fill:#795548"/><path d="m253.57 308.8v-10.33l-14.79-8.53c-10.28-.8-36.69-6.43-39.22-43.18 39.19 2.7 42.99 32.55 43.28 41.03l10.73 6.2v-40.8l-15.62-9.02c-12.27-.65-49.08-6.77-52.5-56.41 52.25 3.59 56.29 44.2 56.48 54.23l11.64 6.71v-29.21c-9.14-9.39-45.45-52.77 1.94-107.17 47.4 54.4 11.09 97.78 1.95 107.17v29.21l12.61-7.28c.19-10.03 4.23-50.63 56.48-54.23-3.42 49.64-40.23 55.77-52.5 56.42l-16.59 9.58v40.8l11.7-6.76c.29-8.49 4.09-38.33 43.28-41.03-2.53 36.75-28.94 42.38-39.22 43.17l-15.76 9.1v10.33z" style="fill:#7cb342;fill-rule:nonzero"/></svg>