<svg height="512" style="shape-rendering:geometricPrecision;text-rendering:geometricPrecision;image-rendering:optimizeQuality;fill-rule:evenodd;clip-rule:evenodd" viewBox="0 0 512 512" width="512" xmlns="http://www.w3.org/2000/svg"><circle cx="256" cy="256" r="249.66" style="fill:none"/><path d="m141.36 312.55c-11.3-19.89-17.15-42.22-17.15-65.1 0-72.8 58.97-131.87 131.79-131.87 31.92 0 62.46 11.43 86.49 32.38l.01-.01c28.92 25.73 45.29 60.69 45.29 99.5 0 74.86-62.21 134.79-137.18 131.77-6.02 16.59-27.42 20.97-44.13 13.73l-3.05-1.33c-14.55 2.73-29.37.78-41.91-7.47-17.15-11.3-24.38-30.72-24.16-50.66.06-5.34 2.51-15.29 4-20.94zm108.23 65.17c-4.92 16.26-25.96 21.09-42.54 13.9l-3.46-1.5c-14.1 2.73-28.77 1.04-41.27-7.18-16.75-11.03-23.73-29.98-23.51-49.44.05-4.62 2.12-13.43 3.3-18.08.24-.96.51-1.99.8-3.08-10.98-19.11-17.26-41.27-17.26-64.89 0-72.03 58.36-130.43 130.35-130.43 54.32 0 85.88 32.91 86.54 32.91 26.87 23.89 43.81 58.72 43.81 97.52 0 74.51-62.28 133.91-136.76 130.27z" style=""/><path d="m256 377.88c-2.15 0-4.29-.05-6.41-.16 1.18-3.85 1.2-7.52.37-10.93.9-1.15 1.73-2.33 2.46-3.52 67.24-5.2 120.17-61.43 120.17-130.04 0-31.67-11.28-60.71-30.05-83.31 26.87 23.9 43.81 58.73 43.81 97.53 0 72.03-58.36 130.43-130.35 130.43z" style="fill:#ffb300"/><path d="m342.54 149.93c-23.02-20.47-53.33-32.91-86.54-32.91-71.99 0-130.35 58.4-130.35 130.43 0 23.62 6.28 45.78 17.26 64.89 1.89-7.22 4.35-16.94 2.07-23.3-14.04-39.05 36.27-53.56 41.16 2.86l29.15-12.16c9.29-3.88 18.9-4.01 28.29-.38l18.55 7.16c2.98.48 5.94.83 8.96 1.09 8.9.77 15.83 6.51 16.94 15.51 1.04 8.41-3.99 14.88-10.4 19.54-3.8 2.77-10.56 3.53-15.33 3.09.29 10.18-5.78 17.9-5.85 18.3 1.23 6.55-.28 13.14-4.03 19.22 67.24-5.2 120.17-61.43 120.17-130.04 0-31.67-11.29-60.71-30.05-83.3zm-168.01 3.55c16.13-2.65 37.6-.94 51.95 7.34 2.88 1.67 4.06.96 5.08-2.23.5-1.56.62-2.72.5-4.35-.31-2.54-2.57-3.17-4.58-4.13-16.36-7.86-35.37-7.36-52.44-2.07-.75.23-2.32 5.74-.51 5.44zm153.86 21.13c1.66.64 1.51-4.97.44-5.55-9.16-5.02-22.08-7.02-32.33-6.32-6.91.51-14.25 2.22-20.72 4.67-3.68 1.71-4.29 3.26-3.66 7.24.96 6.11 5.15 2.73 9.02 1.4 14.68-5.03 32.05-6.96 46.89-1.57zm-145.64 20.45c0-12.41 8.2-22.47 18.31-22.47 10.12 0 18.32 10.06 18.32 22.47s-8.2 22.48-18.32 22.48c-10.11 0-18.31-10.07-18.31-22.48zm98.7 82.67c-1.33 2.92-3.47 4.4-6.64 4.79-3.11.23-4.87-2.16-7.33-3.83-17.95-12.13-40.06-17.11-61.53-16.57-.66.02-1.23-.38-1.43-1-.21-.63.01-1.29.55-1.66 6.62-4.63 22.76-12.65 49.42-6.49 7.72 2.3 20.7 7.92 26.15 13.84 3.19 3.46 2.65 6.9.81 10.92zm10.67-50.04c-10.11 0-18.31-10.06-18.31-22.47 0-12.42 8.2-22.48 18.31-22.48 10.12 0 18.31 10.06 18.31 22.48 0 12.41-8.19 22.47-18.31 22.47z" style="fill:#ffd54f"/><path d="m147.3 196.46c5.75-7.77 21.18-27.09 43.84-44.11-5.81-.12-11.48.28-16.61 1.13-.44.07-.68-.2-.78-.64-10.78 9.56-20.84 23.29-27.61 43.01-.11.31.02.65.32.8.29.16.64.08.84-.19zm55.62-52.27c6.93-4.41 14.4-8.47 22.33-11.88.31-.13.47-.45.39-.77s-.37-.53-.7-.51c-7.49.56-25.08 3.16-42.53 15.06 6.73-1.49 13.65-2.19 20.51-1.9z" style="fill:#ffecb3"/><path d="m205.07 259.46c6.62-4.63 22.76-12.65 49.42-6.49 7.72 2.3 20.7 7.92 26.15 13.84 3.19 3.46 2.65 6.91.82 10.92-1.34 2.92-3.48 4.4-6.65 4.79-3.11.23-4.87-2.16-7.33-3.83-17.95-12.13-40.06-17.11-61.53-16.57-.66.02-1.23-.38-1.43-1-.21-.63.01-1.28.55-1.66zm-4.01-86.87c10.12 0 18.32 10.06 18.32 22.47 0 12.42-8.2 22.48-18.32 22.48-10.11 0-18.31-10.06-18.31-22.48 0-12.41 8.2-22.47 18.31-22.47zm91.06 10.15c10.12 0 18.32 10.06 18.32 22.48 0 12.41-8.2 22.47-18.32 22.47-10.11 0-18.31-10.06-18.31-22.47 0-12.42 8.2-22.48 18.31-22.48z" style="fill:#263238"/><path d="m174.53 153.48c16.13-2.65 37.6-.94 51.95 7.34 2.88 1.67 4.06.96 5.08-2.23.5-1.56.62-2.72.5-4.35-.31-2.54-2.57-3.17-4.58-4.13-16.36-7.86-35.37-7.36-52.44-2.07-.75.23-2.32 5.74-.51 5.44zm153.86 21.13c1.66.64 1.51-4.97.44-5.55-9.16-5.02-22.08-7.02-32.33-6.32-6.91.51-14.25 2.22-20.72 4.67-3.68 1.71-4.29 3.26-3.66 7.24.96 6.11 5.15 2.73 9.02 1.4 14.68-5.03 32.05-6.96 46.89-1.57z" style="fill:#827717"/><path d="m256.45 344.05c1.48 7.85-.98 15.74-6.49 22.74.84 3.42.81 7.11-.39 10.98-2.44 7.86-9.16 13.3-16.83 15.71-8.46 2.64-17.63 1.64-25.69-1.86l-3.46-1.5c-14.1 2.73-28.77 1.04-41.27-7.18-16.75-11.03-23.73-29.98-23.51-49.44v-.3l.03-.31c.45-5.93 1.81-11.73 3.27-17.47 1.84-7.28 5.49-19.06 2.87-26.38-2.3-6.4-3.36-13.59-1.55-20.25 1.69-6.23 5.9-11.54 12.21-13.48 9.95-3.07 18.75 3.51 23.56 11.73 4.19 7.18 6.18 16.07 6.94 24.86l29.15-12.16c9.29-3.88 18.9-4.01 28.29-.38l18.55 7.16c2.98.48 5.94.83 8.96 1.09 8.86.77 15.6 6.31 16.91 15.31l.02.1.01.1c1.04 8.42-3.99 14.88-10.39 19.55l-.64.46-.7.34c-4.14 2.07-9.18 2.73-14 2.28.16 5.6-1.56 11.3-4.88 16.72zm-79.31-38.29 41.74-17.42c7.08-2.95 14.19-3.05 21.34-.28l19.45 7.51c3.75.63 6.83 1 10.62 1.33 4.53.39 7.8 2.67 8.49 7.37.58 4.73-3.15 8.33-6.63 10.86 0 0-6.24 3.12-14.15.2 0 0-9.36-6.86-18.73-6.86 0 0 22.06 9.78 10.2 29.13 0 0-5.41-6.03-14.15-7.07 0 0 21.85 12.48 7.07 30.79 0 0-5.61-6.24-13.42-5.72 26.36 15.63 5.19 37.62-18.2 27.47l6.24-7.08c-35.3 16.39-69.33-1.65-68.88-42.38 1.25-16.17 10.71-33.56 5.62-47.72-10.44-29.03 25.36-35.72 23.39 19.87z" style="fill:#90a4ae"/><path d="m177.14 305.76 41.74-17.42c7.08-2.95 14.19-3.05 21.34-.28l19.45 7.51c3.75.63 6.83 1 10.62 1.33 4.53.39 7.8 2.67 8.49 7.37.58 4.73-3.15 8.33-6.63 10.86 0 0-6.24 3.12-14.15.2 0 0-9.36-6.86-18.73-6.86 0 0 22.06 9.78 10.2 29.13 0 0-5.41-6.03-14.15-7.07 0 0 21.85 12.48 7.07 30.79 0 0-5.61-6.24-13.42-5.72 26.36 15.63 5.19 37.62-18.2 27.47l6.24-7.08c-35.3 16.39-69.33-1.65-68.88-42.38 1.25-16.17 10.71-33.56 5.62-47.72-10.44-29.03 25.36-35.72 23.39 19.87z" style="fill:#fafafa"/></svg>