<svg clip-rule="evenodd" fill-rule="evenodd" height="512" image-rendering="optimizeQuality" shape-rendering="geometricPrecision" text-rendering="geometricPrecision" viewBox="0 0 512 512" width="512" xmlns="http://www.w3.org/2000/svg"><circle cx="256" cy="256" r="256" style="fill:none"/><path d="m256 512c-141.39 0-256-114.61-256-256s114.61-256 256-256 256 114.61 256 256-114.61 256-256 256zm-177.48-78.52c45.42 45.43 108.17 73.52 177.48 73.52s132.06-28.09 177.48-73.52c45.43-45.42 73.52-108.17 73.52-177.48s-28.09-132.06-73.52-177.48c-45.42-45.43-108.17-73.52-177.48-73.52s-132.06 28.09-177.48 73.52c-45.43 45.42-73.52 108.17-73.52 177.48s28.09 132.06 73.52 177.48z" fill="#212121"/><path d="m256 318.12c-56.53 0-102.35-45.83-102.35-102.35 0-56.53 45.82-102.36 102.35-102.36s102.35 45.83 102.35 102.36c0 84.24-59.79 159.5-136.41 182.82 22.23-19.7 34.06-48.43 34.06-80.47z" fill="#ffc107"/><path d="m254.51 319.59c-28.08-.39-53.47-11.94-71.94-30.4-18.79-18.79-30.41-44.75-30.41-73.42 0-28.68 11.62-54.64 30.41-73.43 18.8-18.79 44.76-30.41 73.43-30.41s54.63 11.62 73.43 30.41c18.79 18.79 30.41 44.75 30.41 73.43 0 41.82-14.62 81.44-38.68 113.69-24.78 33.21-59.6 58.61-98.79 70.54-.78.24-1.61-.2-1.85-.98-.17-.57.02-1.17.44-1.54 10.88-9.64 19.23-21.48 24.88-34.82 5.55-13.11 8.49-27.68 8.67-43.07zm1.49-1.47c-56.53 0-102.35-45.83-102.35-102.35 0-56.53 45.82-102.36 102.35-102.36s102.35 45.83 102.35 102.36c0 84.24-59.79 159.5-136.41 182.82 22.23-19.7 34.06-48.43 34.06-80.47z"/></svg>