<svg xmlns="http://www.w3.org/2000/svg" xml:space="preserve" width="1024px" height="1024px" shape-rendering="geometricPrecision" text-rendering="geometricPrecision" image-rendering="optimizeQuality" fill-rule="evenodd" clip-rule="evenodd"><circle cx="512" cy="512" r="512" fill="none"/><path d="M631.56 672.59c-15.48-3.66-26.18-10.62-45.43-12.68-42.27-4.51-96.8 31.71-122.41 57 5.2 15.69 37.56 48.9 56.02 59.21 58.08 32.44 116.08-5.68 145.64-41.32 8.45-10.19 16.96-6 42.31-16.41 69.24-28.42 76.41-88.38 60.31-157.03-40.61 9.09-86.07 44.58-111.29 74.2-4.29 5.04-8.91 11.58-13.04 17.6-4.35 6.37-7.75 13.5-12.11 19.43zm-26.68-340.31c34.29 4.83 60 21.71 74.27 40.87 28.21 37.89 22.72 92.8-4.62 132.15l-19.06 25.06c-2.41 2.83-4.86 4.36-7.41 7.21-4.81 5.37-8.69 9.38-13.95 14.23-8.54 7.88-41.19 37.93-43.89 43.96 26.25 27.93 18.65 20.8 39.6 49.7 10.74-38.19 24.45-52.56 59.83-73.63 35.01-20.85 82.89-35.34 98.68-67.72 11.15-22.87 13.87-63.01 8.54-87.13-11.71-52.99-54.42-58.22-68.08-66.39-1.47-35.55-15.66-69.37-53.22-65.97-33.1 3-39.87 22.38-62.42 40.6-3.15 2.54-5.54 3.99-8.27 7.06zm-338.97 71.33 43.13-12.92c7.12-1.8 46.99-7.51 48.03-8.01l7.69-28.02c25.92-75.94 100.81-66.51 108.37-71.57 4.54-3.03 12.69-14.02 16.99-18.49 3.46-3.6 5.98-5.37 9.23-9.09 2.96-3.38 5.41-6.16 8.17-9.32-56-13.3-127.24 2.83-165.08 29.86-40.35 28.81-69 77.32-76.53 127.56z" fill="#de5e56"/><path d="M496.49 288.44c33.82-2.03 75.03 21.51 94.06 26.13 8.08-15.86 27.59-31.67 43.15-41 6.23-3.74 12.97-5.9 19.13-9.46l-8.52-6.63c-37.53-23.74-83.22-33.46-120.26-1.75-7.86 6.73-23.24 21.62-27.56 32.71zm127.89 238.78c-11.83-24.74-53.82-34.93-74.69-42.95-42.66-16.37-49.3-32.7-39.66-69.25-7.14-1.85-15.74-3-23.14-3.72-12.66-1.22-15.19-2.99-20.35 7.14-18.88 37.07-39.45 94.39-5.76 124.15 21.79 19.25 48.64 26.07 83.85 16.47 12.88-3.51 73.84-26.26 79.75-31.84zm-50.8-60.39c12.99-21.5-26.82-36.7-45.1-40.46.45 14.66 7.07 23.27 14.85 28.79 6.92 4.92 19.99 12.27 30.25 11.67zm-89.32-77.92c46.52-3.41 76.79 10.79 97.7 48.38 8.28 14.86 10.9 30.75 13.77 35.82 18.22-35.9 17.2-78.33-5.59-112.5-2.87-4.3-6.47-8.62-8.33-12.5-25.97 1.6-63.96 20.52-87.07 33.74-2.23 1.28-3.65 2.09-5.37 3.18l-5.11 3.88z" fill="#a82e26"/><path d="m611.95 486.42 1.38 1.34c7.41 5.89 15.4 5.51 21.66 27.23 8.17-3.37 24.04-23.2 29.57-33.08 26.48-47.36 9.96-115.07-49.19-116.11 2.41 8.57 7.66 18.08 10.74 28.64 6.31 21.65 7.95 46.38.35 67.71-2.7 7.6-9.29 20.58-14.51 24.27zm-.83 158.83c-11.18-23.52-48.98-41.82-73.01-51.47-29.83-11.98-60.87-22.42-90.91-33.95-80.33-30.8-101.2-70.31-87.17-152.84-79.66 9.19-115.23 35.41-130.67 109.62-10.03 48.23-7.61 105.73 37.11 132.14 32.02 18.92 18.17-3.15 28.83 31.17 36 115.93 158.27 14.77 223.96-27.57 12.19-7.86 25.44-14.41 42.71-17.18 8.94-1.43 18.48-1.43 27.25.46 10.86 2.35 13.79 5.69 21.9 9.62zM424.67 527.02c.49-60.17 6.67-97.37 36.08-138.79 21.43-30.18 53.69-52.3 89.53-63.47 4.74-1.47 13.32-3.31 16.74-5.71-33.52-10.5-62.4-21.69-103.01-18.02-38.09 3.44-61.42 21.65-74.75 47.53-23.82 46.23-24.65 153.39 35.41 178.46z" fill="#c23f38"/><path d="M287.14 661.04c-1.21-.49-4.2-1.11-5.49-1.55-5.76-1.98-11.48-5.07-16.7-8.15-46.92-27.72-48.42-87.78-38.52-135.34 16.34-78.55 55.96-103.07 133.25-111.99l3.97-.45-.67 3.93c-13.96 82.13 7.31 119.63 85.29 149.54 30.22 11.59 60.92 21.9 90.95 33.96 24.33 9.77 62.92 28.37 74.61 52.98l3.66 7.7-7.67-3.72c-8.18-3.96-11.77-7.34-21.24-9.38-8.46-1.83-17.6-1.81-26.13-.44-15.54 2.49-28.43 8.27-41.56 16.74-19.41 12.51-38.19 26-57.66 38.48-20.69 13.26-42.98 26.37-66.04 34.95-50.81 18.89-87.81 7.09-104.76-47.49-1.56-5.03-2.97-10.06-4.16-15.19-.18-.8-.73-3.62-1.13-4.58zm344.42 11.55c-15.48-3.66-26.18-10.62-45.43-12.68-42.27-4.51-96.8 31.71-122.41 57 5.2 15.69 37.56 48.9 56.02 59.21 58.08 32.44 116.08-5.68 145.64-41.32 8.45-10.19 16.96-6 42.31-16.41 69.24-28.42 76.41-88.38 60.31-157.03-40.61 9.09-86.07 44.58-111.29 74.2-4.29 5.04-8.91 11.58-13.04 17.6-4.35 6.37-7.75 13.5-12.11 19.43zm-26.68-340.31c34.29 4.83 60 21.71 74.27 40.87 28.21 37.89 22.72 92.8-4.62 132.15l-19.06 25.06c-2.41 2.83-4.86 4.36-7.41 7.21-4.81 5.37-8.69 9.38-13.95 14.23-8.54 7.88-41.19 37.93-43.89 43.96 26.25 27.93 18.65 20.8 39.6 49.7 10.74-38.19 24.45-52.56 59.83-73.63 35.01-20.85 82.89-35.34 98.68-67.72 11.15-22.87 13.87-63.01 8.54-87.13-11.71-52.99-54.42-58.22-68.08-66.39-1.47-35.55-15.66-69.37-53.22-65.97-33.1 3-39.87 22.38-62.42 40.6-3.15 2.54-5.54 3.99-8.27 7.06zm-338.97 71.33 43.13-12.92c7.12-1.8 46.99-7.51 48.03-8.01l7.69-28.02c25.92-75.94 100.81-66.51 108.37-71.57 4.54-3.03 12.69-14.02 16.99-18.49 3.46-3.6 5.98-5.37 9.23-9.09 2.96-3.38 5.41-6.16 8.17-9.32-56-13.3-127.24 2.83-165.08 29.86-40.35 28.81-69 77.32-76.53 127.56zm230.58-115.17c33.82-2.03 75.03 21.51 94.06 26.13 8.08-15.86 27.59-31.67 43.15-41 6.23-3.74 12.97-5.9 19.13-9.46l-8.52-6.63c-37.53-23.74-83.22-33.46-120.26-1.75-7.86 6.73-23.24 21.62-27.56 32.71zm127.89 238.78c-11.83-24.74-53.82-34.93-74.69-42.95-42.66-16.37-49.3-32.7-39.66-69.25-7.14-1.85-15.74-3-23.14-3.72-12.66-1.22-15.19-2.99-20.35 7.14-18.88 37.07-39.45 94.39-5.76 124.15 21.79 19.25 48.64 26.07 83.85 16.47 12.88-3.51 73.84-26.26 79.75-31.84zm-50.8-60.39c12.99-21.5-26.82-36.7-45.1-40.46.45 14.66 7.07 23.27 14.85 28.79 6.92 4.92 19.99 12.27 30.25 11.67zm-89.32-77.92c46.52-3.41 76.79 10.79 97.7 48.38 8.28 14.86 10.9 30.75 13.77 35.82 18.22-35.9 17.2-78.33-5.59-112.5-2.87-4.3-6.47-8.62-8.33-12.5-25.97 1.6-63.96 20.52-87.07 33.74-2.23 1.28-3.65 2.09-5.37 3.18l-5.11 3.88zm127.69 97.51 1.38 1.34c7.41 5.89 15.4 5.51 21.66 27.23 8.17-3.37 24.04-23.2 29.57-33.08 26.48-47.36 9.96-115.07-49.19-116.11 2.41 8.57 7.66 18.08 10.74 28.64 6.31 21.65 7.95 46.38.35 67.71-2.7 7.6-9.29 20.58-14.51 24.27zm-.83 158.83c-11.18-23.52-48.98-41.82-73.01-51.47-29.83-11.98-60.87-22.42-90.91-33.95-80.33-30.8-101.2-70.31-87.17-152.84-79.66 9.19-115.23 35.41-130.67 109.62-10.03 48.23-7.61 105.73 37.11 132.14 32.02 18.92 18.17-3.15 28.83 31.17 36 115.93 158.27 14.77 223.96-27.57 12.19-7.86 25.44-14.41 42.71-17.18 8.94-1.43 18.48-1.43 27.25.46 10.86 2.35 13.79 5.69 21.9 9.62zM424.67 527.02c.49-60.17 6.67-97.37 36.08-138.79 21.43-30.18 53.69-52.3 89.53-63.47 4.74-1.47 13.32-3.31 16.74-5.71-33.52-10.5-62.4-21.69-103.01-18.02-38.09 3.44-61.42 21.65-74.75 47.53-23.82 46.23-24.65 153.39 35.41 178.46zM630.3 669.18c3.91-5.68 6.99-12 10.9-17.71 4.15-6.06 8.47-12.26 13.23-17.85 26.52-31.15 72.46-66.14 112.92-75.19l2.89-.65.68 2.89c15.97 68.1 9.86 130.96-62.09 160.5-9.63 3.95-17.96 6.03-27.93 8.42-5.61 1.35-9.42 2.55-13.21 7.13-36.26 43.72-95.22 72.29-149.41 42.02-16.8-9.39-51.39-42.72-57.41-60.89l-.59-1.76 1.33-1.31c15.76-15.57 36.12-29.9 55.67-40.2 20.32-10.7 45.85-20.14 69.17-17.65 8.72.93 16.55 3.01 24.8 5.89 6.36 2.22 12.54 4.66 19.05 6.36zm22.83-140.7 18.97-24.94c13.17-18.98 21.33-41.93 22.58-65.02 1.22-22.69-4.26-45.21-17.94-63.58-16.89-22.69-44.76-35.82-72.28-39.69l-5.54-.79 3.72-4.18c2.68-3 5.55-4.91 8.63-7.39 23.58-19.06 29.73-38.15 64.03-41.25 17.97-1.63 32.81 4.74 42.9 19.68 9.09 13.46 12.66 31.36 13.51 47.47 3.94 2.08 8.96 3.77 12.96 5.39 7.15 2.88 14.02 6.08 20.52 10.28 18.99 12.27 29.76 29.93 34.6 51.87 5.57 25.18 2.58 65.82-8.77 89.1-8.7 17.85-26.51 30.03-43.35 39.48-18.52 10.38-38.26 18.65-56.49 29.5-33.72 20.08-47.7 33.57-58.48 71.86l-1.67 5.96-3.64-5.01c-6-8.28-11.67-17.04-17.78-25.17-6.33-8.43-14.37-16.57-21.58-24.24l-1.37-1.46.82-1.82c2.25-5.03 16.11-18.06 20.41-22.21 7.95-7.69 16.06-15.22 24.19-22.72 4.86-4.48 9.33-9.1 13.74-14.03 2.29-2.55 5.11-4.53 7.31-7.09zm-229.62 1.3c-33.11-13.82-46.96-50.48-50.98-83.7-3.71-30.66-.18-71.25 14.06-98.9 15.88-30.81 42.9-46.04 77.15-49.14 39.64-3.58 67.64 6.71 104.18 18.14l5.81 1.82-4.98 3.5c-4.18 2.93-12.52 4.55-17.58 6.13-34.86 10.86-66.73 32.42-87.97 62.34-31.2 43.95-35.1 84.2-35.53 137.07l-.04 4.46-4.12-1.72zm202.93-.38c-5.01 4.73-31.09 14.54-38.24 17.31-8.45 3.28-16.95 6.46-25.5 9.5-5.61 2-11.53 4.18-17.28 5.74-32.14 8.77-61.33 5.24-86.63-17.11-35.98-31.79-13.01-92.26 5.08-127.76 6.26-12.29 11.22-9.93 23.31-8.76 7.8.76 16 1.83 23.6 3.79l2.91.76-.77 2.91c-3.26 12.41-6.49 28.07-.03 40.01 6.99 12.92 24.87 20.7 37.87 25.69 24.42 9.37 64.04 18.74 76.32 44.45l.95 1.97-1.59 1.5zM367.63 355.55l-8.03 29.25-1.24.59c-1.3.61-6.24 1.22-7.76 1.46-4.93.78-9.87 1.54-14.8 2.31-5.3.83-10.61 1.66-15.9 2.55-3.27.54-6.85 1.06-10.06 1.87l-47.6 14.25.7-4.67c7.55-50.33 36.19-99.87 77.76-129.56 21.79-15.56 50.79-25.47 76.89-30.55 29.29-5.69 61.53-6.69 90.63.22l4.83 1.15-3.27 3.74c-2.72 3.11-5.45 6.22-8.17 9.33-2.92 3.34-6.28 6.02-9.33 9.19-5.22 5.42-11.55 14.94-17.48 18.91-2.98 1.99-13.99 2.66-17.79 3.12-10.31 1.23-20.35 3.08-30.21 6.42-29.77 10.1-49.02 30.75-59.17 60.42zm126.06-68.2c4.43-11.33 19.14-25.97 28.41-33.9 37.73-32.3 84.85-23.15 123.81 1.5l.13.07 12.15 9.45-3.86 2.23c-6.16 3.57-13 5.79-19.09 9.44-14.77 8.85-34.12 24.28-42.02 39.79l-1.07 2.11-2.3-.56c-6.13-1.48-12.52-4.1-18.38-6.44-7.8-3.12-15.55-6.32-23.44-9.21-15.77-5.79-34.42-11.41-51.37-10.39l-4.67.28 1.7-4.37zm116.53 196.62c4.95-3.51 11.35-17 13.42-22.83 7.4-20.8 5.69-44.94-.41-65.87-2.88-9.85-8.01-18.93-10.74-28.66l-1.09-3.88 4.03.07c28.42.5 50 16.16 59.47 42.67 8.99 25.14 5.19 54.81-7.72 77.9-5.15 9.21-21.48 30.44-31.04 34.39l-3.1 1.29-.93-3.22c-1.82-6.32-4.53-13.63-9.53-18.17-3.33-3.01-7.58-4.74-11.12-7.56l-.11-.09-4.08-3.95 2.95-2.09zm-135.85-91.33 13.29-10.07.1-.06c1.79-1.15 3.64-2.2 5.49-3.26 23.46-13.43 61.44-32.47 88.38-34.14l2.02-.12.87 1.82c1.96 4.11 5.55 8.29 8.11 12.14 23.19 34.76 24.55 78.51 5.78 115.52l-2.53 4.98-2.76-4.86c-2.13-3.76-3.76-10.56-5.11-14.81-2.3-7.26-4.96-14.37-8.67-21.03-21.37-38.41-51.99-49.99-94.86-46.85l-10.11.74zm54.71 30.79c11.61 2.39 25.43 7.53 35.32 14.01 10.87 7.12 19.56 18.02 11.75 30.94l-.82 1.35-1.57.1c-10.57.62-23.76-6.25-32.17-12.22-10.67-7.59-15.7-18.14-16.11-31.15l-.11-3.8 3.71.77z"/></svg>